<?xml version="1.0" encoding="UTF-8" standalone="no"?>
<svg
   width="16"
   height="16"
   fill="currentColor"
   class="bi bi-arrow-down-left-circle"
   viewBox="0 0 16 16"
   version="1.1"
   id="svg1"
   xmlns="http://www.w3.org/2000/svg"
   xmlns:svg="http://www.w3.org/2000/svg">
  <defs
     id="defs1" />
  <path
     fill-rule="evenodd"
     d="M 3.0476518,12.947146 A 7,7 0 1 0 12.947146,3.0476518 7,7 0 0 0 3.0476518,12.947146 M 13.654253,2.3405448 A 8,8 0 1 1 2.3405448,13.654253 8,8 0 0 1 13.654253,2.3405448 m -6.1928411,2.156675 a 0.50027818,0.50027818 0 1 1 1.0005561,7.08e-4 v 5.7926182 l 1.957271,-1.9572715 a 0.50000008,0.50000008 0 1 1 0.707107,0.7071068 L 8.3155969,11.851131 a 0.5,0.5 0 0 1 -0.7071068,0 L 4.7977408,9.0403813 A 0.50000008,0.50000008 0 1 1 5.5048478,8.3332745 L 7.462119,10.290546 Z"
     id="path1" />
</svg>
