<?xml version="1.0" encoding="UTF-8" standalone="no"?>
<svg
   width="16"
   height="16"
   fill="currentColor"
   class="bi bi-cloud-drizzle"
   viewBox="0 0 16 16"
   version="1.1"
   id="svg1"
   sodipodi:docname="drizzle_dense.svg"
   inkscape:version="1.3 (0e150ed6c4, 2023-07-21)"
   inkscape:export-filename="drizzle_dense.svg"
   inkscape:export-xdpi="96"
   inkscape:export-ydpi="96"
   xmlns:inkscape="http://www.inkscape.org/namespaces/inkscape"
   xmlns:sodipodi="http://sodipodi.sourceforge.net/DTD/sodipodi-0.dtd"
   xmlns="http://www.w3.org/2000/svg"
   xmlns:svg="http://www.w3.org/2000/svg">
  <defs
     id="defs1" />
  <sodipodi:namedview
     id="namedview1"
     pagecolor="#ffffff"
     bordercolor="#000000"
     borderopacity="0.25"
     inkscape:showpageshadow="2"
     inkscape:pageopacity="0.0"
     inkscape:pagecheckerboard="0"
     inkscape:deskcolor="#d1d1d1"
     inkscape:zoom="23.28125"
     inkscape:cx="3.6295302"
     inkscape:cy="4.7463087"
     inkscape:window-width="1920"
     inkscape:window-height="1001"
     inkscape:window-x="-9"
     inkscape:window-y="-9"
     inkscape:window-maximized="1"
     inkscape:current-layer="svg1" />
  <path
     d="M 8.1191406,1.0136719 A 5.001,5.001 0 0 0 7.2265625,1.1640625 5.001,5.001 0 0 0 6.375,1.4726562 5.001,5.001 0 0 0 5.59375,1.9296875 5.001,5.001 0 0 0 4.90625,2.5214844 5.001,5.001 0 0 0 4.3378906,3.2265625 5.001,5.001 0 0 0 3.90625,4.0234375 3.5,3.5 0 0 0 3.1484375,4.0175781 3.5,3.5 0 0 0 2.40625,4.1777344 3.5,3.5 0 0 0 1.7167969,4.4921875 3.5,3.5 0 0 0 1.1113281,4.9472656 3.5,3.5 0 0 0 0.6171875,5.5214844 3.5,3.5 0 0 0 0.25976563,6.1894531 3.5,3.5 0 0 0 0.0546875,6.9199219 3.5,3.5 0 0 0 0.00976563,7.6757812 3.5,3.5 0 0 0 0.12890625,8.4238281 3.5,3.5 0 0 0 0.40820313,9.1289063 3.5,3.5 0 0 0 0.83203125,9.7578125 3.5,3.5 0 0 0 1.3808594,10.28125 3.5,3.5 0 0 0 2.0292969,10.673828 3.5,3.5 0 0 0 2.7460938,10.916016 3.5,3.5 0 0 0 3.5,11 H 13 A 3,3 0 0 0 13.640625,10.931641 3,3 0 0 0 14.25,10.728516 3,3 0 0 0 14.802734,10.400391 3,3 0 0 0 15.273438,9.9609375 3,3 0 0 0 15.640625,9.4316406 3,3 0 0 0 15.884766,8.8359375 3,3 0 0 0 15.996094,8.203125 3,3 0 0 0 15.970703,7.5605469 3,3 0 0 0 15.808594,6.9375 3,3 0 0 0 15.517578,6.3632812 3,3 0 0 0 15.111328,5.8652344 3,3 0 0 0 14.607422,5.4648437 3,3 0 0 0 14.029297,5.1816406 3,3 0 0 0 13.404297,5.0273437 5.001,5.001 0 0 0 13.148438,4.1582031 5.001,5.001 0 0 0 12.740234,3.3496094 5.001,5.001 0 0 0 12.193359,2.6289063 5.001,5.001 0 0 0 11.523438,2.0175781 5.001,5.001 0 0 0 10.755859,1.5371094 5.001,5.001 0 0 0 9.9140625,1.203125 5.001,5.001 0 0 0 9.0253906,1.0273437 5.001,5.001 0 0 0 8.1191406,1.0136719 Z M 8.5,2 a 4,4 0 0 1 0.828125,0.085937 4,4 0 0 1 0.792969,0.2558594 4,4 0 0 1 0.720703,0.4160156 4,4 0 0 1 0.621094,0.5546875 4,4 0 0 1 0.492187,0.6699219 4,4 0 0 1 0.341797,0.7597656 4,4 0 0 1 0.179688,0.8125 0.5,0.5 0 0 0 0.08398,0.2265625 A 0.5,0.5 0 0 0 12.74023,5.9433589 0.5,0.5 0 0 0 12.976563,6 H 13 a 2,2 0 0 1 0.5625,0.080078 2,2 0 0 1 0.519531,0.2382813 2,2 0 0 1 0.429688,0.3710937 2,2 0 0 1 0.30664,0.4804688 2,2 0 0 1 0.16211,0.5449218 2,2 0 0 1 0,0.5703126 2,2 0 0 1 -0.16211,0.5449218 2,2 0 0 1 -0.30664,0.4804688 A 2,2 0 0 1 14.082031,9.6816406 2,2 0 0 1 13.5625,9.9199219 2,2 0 0 1 13,10 H 3.5 A 2.5,2.5 0 0 1 2.8554688,9.9160156 2.5,2.5 0 0 1 2.2558594,9.6679688 2.5,2.5 0 0 1 1.7402344,9.2734375 2.5,2.5 0 0 1 1.3417969,8.7617188 2.5,2.5 0 0 1 1.0898437,8.1621094 2.5,2.5 0 0 1 1.0019531,7.5195312 2.5,2.5 0 0 1 1.0800781,6.875 2.5,2.5 0 0 1 1.3222656,6.2734375 2.5,2.5 0 0 1 1.7128906,5.7539062 2.5,2.5 0 0 1 2.2226563,5.3515625 2.5,2.5 0 0 1 2.8183594,5.0957031 2.5,2.5 0 0 1 3.4609375,5 2.5,2.5 0 0 1 4.1054687,5.0742187 0.5,0.5 0 0 0 4.3515625,5.0722656 0.5,0.5 0 0 0 4.5683594,4.953125 0.5,0.5 0 0 0 4.7011719,4.7441406 4,4 0 0 1 5.0429687,3.9863281 4,4 0 0 1 5.5351562,3.3125 4,4 0 0 1 6.15625,2.7578125 4,4 0 0 1 6.8789062,2.34375 4,4 0 0 1 7.671875,2.0859375 4,4 0 0 1 8.5,2 Z"
     style="fill:#5599ff"
     id="path2" />
  <path
     d="m 11.997877,11.71447 c -0.0217,0.0015 -0.043,0.0054 -0.06445,0.0098 -0.02157,0.0043 -0.04378,0.01051 -0.06445,0.01758 -0.02068,0.0071 -0.04101,0.0157 -0.06055,0.02539 -0.01954,0.0097 -0.0385,0.02102 -0.05664,0.0332 -0.01814,0.01218 -0.03428,0.02451 -0.05078,0.03906 -0.01644,0.01461 -0.03258,0.03034 -0.04687,0.04687 -0.01429,0.01654 -0.02708,0.03451 -0.03906,0.05274 -0.01198,0.01822 -0.02368,0.03697 -0.0332,0.05664 -0.0095,0.01967 -0.01653,0.03966 -0.02344,0.06055 l -0.5,1.5 c -0.0059,0.02053 -0.01049,0.04152 -0.01367,0.0625 -0.0032,0.02098 -0.0054,0.04133 -0.0059,0.0625 -4.93e-4,0.02117 -2.47e-4,0.04335 0.0019,0.06445 0.0022,0.0211 0.0068,0.04172 0.01172,0.0625 0.0048,0.02092 0.0102,0.04249 0.01758,0.0625 0.0074,0.02001 0.01554,0.03777 0.02539,0.05664 0.0099,0.01887 0.02101,0.03719 0.0332,0.05469 0.0122,0.0175 0.02659,0.03489 0.04102,0.05078 0.01432,0.01588 0.02879,0.03109 0.04492,0.04492 0.01613,0.01384 0.03306,0.02741 0.05078,0.03906 0.01772,0.01165 0.03559,0.02193 0.05469,0.03125 0.0191,0.0093 0.04029,0.01658 0.06055,0.02344 0.02032,0.0067 0.03967,0.01163 0.06055,0.01563 0.02087,0.004 0.04328,0.0065 0.06445,0.0078 0.02117,0.0013 0.04129,0.0014 0.0625,0 0.02121,-0.0014 0.04347,-0.0037 0.06445,-0.0078 0.02103,-0.0039 0.04032,-0.0091 0.06055,-0.01563 0.02023,-0.0065 0.04135,-0.01441 0.06055,-0.02344 0.0192,-0.009 0.03675,-0.01984 0.05469,-0.03125 0.01793,-0.01141 0.0363,-0.02342 0.05273,-0.03711 0.01645,-0.01382 0.03046,-0.02921 0.04492,-0.04492 0.01446,-0.01572 0.02871,-0.03143 0.04102,-0.04883 0.01231,-0.0174 0.0232,-0.03583 0.0332,-0.05469 0.01001,-0.01886 0.01979,-0.03848 0.02734,-0.05859 l 0.5,-1.5 c 0.01028,-0.03112 0.01748,-0.06318 0.02148,-0.0957 0.0038,-0.03241 0.0045,-0.06512 0.002,-0.09766 -0.002,-0.03299 -0.0072,-0.0657 -0.01563,-0.09766 -0.0087,-0.03168 -0.02045,-0.06243 -0.03516,-0.0918 -0.01486,-0.029 -0.03252,-0.05647 -0.05273,-0.08203 -0.01971,-0.02621 -0.04196,-0.05042 -0.06641,-0.07227 -0.02477,-0.02146 -0.05159,-0.04043 -0.08008,-0.05664 -0.0286,-0.01593 -0.05869,-0.02901 -0.08984,-0.03906 -0.03116,-0.01041 -0.06329,-0.01716 -0.0957,-0.02148 -0.03241,-0.0043 -0.0651,-0.0062 -0.09766,-0.0039 z"
     style="fill:#0000ff"
     id="path6" />
  <path
     d="m 9.8502259,13.604403 c -0.0217,0.0015 -0.043,0.0054 -0.06445,0.0098 -0.02157,0.0043 -0.04378,0.01051 -0.06445,0.01758 -0.02068,0.0071 -0.04101,0.0157 -0.06055,0.02539 -0.01954,0.0097 -0.0385,0.02102 -0.05664,0.0332 -0.01814,0.01218 -0.03428,0.02451 -0.05078,0.03906 -0.01644,0.01461 -0.03258,0.03034 -0.04687,0.04687 -0.01429,0.01654 -0.02708,0.03451 -0.03906,0.05274 -0.01198,0.01822 -0.02368,0.03697 -0.0332,0.05664 -0.0095,0.01967 -0.01653,0.03966 -0.02344,0.06055 l -0.5,1.5 c -0.0059,0.02053 -0.01049,0.04152 -0.01367,0.0625 -0.0032,0.02098 -0.0054,0.04133 -0.0059,0.0625 -4.93e-4,0.02117 -2.47e-4,0.04335 0.0019,0.06445 0.0022,0.0211 0.0068,0.04172 0.01172,0.0625 0.0048,0.02092 0.0102,0.04249 0.01758,0.0625 0.0074,0.02001 0.01554,0.03777 0.02539,0.05664 0.0099,0.01887 0.02101,0.03719 0.0332,0.05469 0.0122,0.0175 0.02659,0.03489 0.04102,0.05078 0.01432,0.01588 0.02879,0.03109 0.04492,0.04492 0.01613,0.01384 0.03306,0.02741 0.05078,0.03906 0.01772,0.01165 0.03559,0.02193 0.05469,0.03125 0.0191,0.0093 0.04029,0.01658 0.06055,0.02344 0.02032,0.0067 0.03967,0.01163 0.06055,0.01563 0.02087,0.004 0.04328,0.0065 0.06445,0.0078 0.02117,0.0013 0.04129,0.0014 0.0625,0 0.02121,-0.0014 0.04347,-0.0037 0.06445,-0.0078 0.02103,-0.0039 0.04032,-0.0091 0.06055,-0.01563 0.02023,-0.0065 0.04135,-0.01441 0.06055,-0.02344 0.0192,-0.009 0.03675,-0.01984 0.05469,-0.03125 0.01793,-0.01141 0.0363,-0.02342 0.05273,-0.03711 0.01645,-0.01382 0.03046,-0.02921 0.04492,-0.04492 0.01446,-0.01572 0.02871,-0.03143 0.04102,-0.04883 0.01231,-0.0174 0.0232,-0.03583 0.0332,-0.05469 0.01001,-0.01886 0.01979,-0.03848 0.02734,-0.05859 l 0.5000001,-1.5 c 0.01028,-0.03112 0.01748,-0.06318 0.02148,-0.0957 0.0038,-0.03241 0.0045,-0.06512 0.002,-0.09766 -0.002,-0.03299 -0.0072,-0.0657 -0.01563,-0.09766 -0.0087,-0.03168 -0.02045,-0.06243 -0.03516,-0.0918 -0.01486,-0.029 -0.03252,-0.05647 -0.05273,-0.08203 -0.01971,-0.02621 -0.04196,-0.05042 -0.06641,-0.07227 -0.02477,-0.02146 -0.05159,-0.04043 -0.08008,-0.05664 -0.0286,-0.01593 -0.05869,-0.02901 -0.08984,-0.03906 -0.03116,-0.01041 -0.06329,-0.01716 -0.0957,-0.02148 -0.03241,-0.0043 -0.0651,-0.0062 -0.09766,-0.0039 z"
     style="fill:#0000ff"
     id="path7" />
  <path
     d="m 8.3898231,11.628564 c -0.0217,0.0015 -0.043,0.0054 -0.06445,0.0098 -0.02157,0.0043 -0.04378,0.01051 -0.06445,0.01758 -0.02068,0.0071 -0.04101,0.0157 -0.06055,0.02539 -0.01954,0.0097 -0.0385,0.02102 -0.05664,0.0332 -0.01814,0.01218 -0.03428,0.02451 -0.05078,0.03906 -0.01644,0.01461 -0.03258,0.03034 -0.04687,0.04687 -0.01429,0.01654 -0.02708,0.03451 -0.03906,0.05274 -0.01198,0.01822 -0.02368,0.03697 -0.0332,0.05664 -0.0095,0.01967 -0.01653,0.03966 -0.02344,0.06055 l -0.5,1.5 c -0.0059,0.02053 -0.01049,0.04152 -0.01367,0.0625 -0.0032,0.02098 -0.0054,0.04133 -0.0059,0.0625 -4.93e-4,0.02117 -2.47e-4,0.04335 0.0019,0.06445 0.0022,0.0211 0.0068,0.04172 0.01172,0.0625 0.0048,0.02092 0.0102,0.04249 0.01758,0.0625 0.0074,0.02001 0.01554,0.03777 0.02539,0.05664 0.0099,0.01887 0.02101,0.03719 0.0332,0.05469 0.0122,0.0175 0.02659,0.03489 0.04102,0.05078 0.01432,0.01588 0.02879,0.03109 0.04492,0.04492 0.01613,0.01384 0.03306,0.02741 0.05078,0.03906 0.01772,0.01165 0.03559,0.02193 0.05469,0.03125 0.0191,0.0093 0.04029,0.01658 0.06055,0.02344 0.02032,0.0067 0.03967,0.01163 0.06055,0.01563 0.02087,0.004 0.04328,0.0065 0.06445,0.0078 0.02117,0.0013 0.04129,0.0014 0.0625,0 0.02121,-0.0014 0.04347,-0.0037 0.06445,-0.0078 0.02103,-0.0039 0.04032,-0.0091 0.06055,-0.01563 0.02023,-0.0065 0.04135,-0.01441 0.06055,-0.02344 0.0192,-0.009 0.03675,-0.01984 0.05469,-0.03125 0.01793,-0.01141 0.0363,-0.02342 0.05273,-0.03711 0.01645,-0.01382 0.03046,-0.02921 0.04492,-0.04492 0.01446,-0.01572 0.02871,-0.03143 0.04102,-0.04883 0.01231,-0.0174 0.0232,-0.03583 0.0332,-0.05469 0.01001,-0.01886 0.01979,-0.03848 0.02734,-0.05859 l 0.5,-1.5 c 0.01028,-0.03112 0.01748,-0.06318 0.02148,-0.0957 0.0038,-0.03241 0.0045,-0.06512 0.002,-0.09766 -0.002,-0.03299 -0.0072,-0.0657 -0.01563,-0.09766 -0.0087,-0.03168 -0.02045,-0.06243 -0.03516,-0.0918 -0.01486,-0.029 -0.03252,-0.05647 -0.05273,-0.08203 -0.01971,-0.02621 -0.04196,-0.05042 -0.06641,-0.07227 -0.02477,-0.02146 -0.05159,-0.04043 -0.08008,-0.05664 -0.0286,-0.01593 -0.05869,-0.02901 -0.08984,-0.03906 -0.03116,-0.01041 -0.06329,-0.01716 -0.0957,-0.02148 -0.03241,-0.0043 -0.0651,-0.0062 -0.09766,-0.0039 z"
     style="fill:#0000ff"
     id="path8" />
  <path
     d="m 6.1992191,13.518497 c -0.0217,0.0015 -0.043,0.0054 -0.06445,0.0098 -0.02157,0.0043 -0.04378,0.01051 -0.06445,0.01758 -0.02068,0.0071 -0.04101,0.0157 -0.06055,0.02539 -0.01954,0.0097 -0.0385,0.02102 -0.05664,0.0332 -0.01814,0.01218 -0.03428,0.02451 -0.05078,0.03906 -0.01644,0.01461 -0.03258,0.03034 -0.04687,0.04687 -0.01429,0.01654 -0.02708,0.03451 -0.03906,0.05274 -0.01198,0.01822 -0.02368,0.03697 -0.0332,0.05664 -0.0095,0.01967 -0.01653,0.03966 -0.02344,0.06055 l -0.5,1.5 c -0.0059,0.02053 -0.01049,0.04152 -0.01367,0.0625 -0.0032,0.02098 -0.0054,0.04133 -0.0059,0.0625 -4.93e-4,0.02117 -2.47e-4,0.04335 0.0019,0.06445 0.0022,0.0211 0.0068,0.04172 0.01172,0.0625 0.0048,0.02092 0.0102,0.04249 0.01758,0.0625 0.0074,0.02001 0.01554,0.03777 0.02539,0.05664 0.0099,0.01887 0.02101,0.03719 0.0332,0.05469 0.0122,0.0175 0.02659,0.03489 0.04102,0.05078 0.01432,0.01588 0.02879,0.03109 0.04492,0.04492 0.01613,0.01384 0.03306,0.02741 0.05078,0.03906 0.01772,0.01165 0.03559,0.02193 0.05469,0.03125 0.0191,0.0093 0.04029,0.01658 0.06055,0.02344 0.02032,0.0067 0.03967,0.01163 0.06055,0.01563 0.02087,0.004 0.04328,0.0065 0.06445,0.0078 0.02117,0.0013 0.04129,0.0014 0.0625,0 0.02121,-0.0014 0.04347,-0.0037 0.06445,-0.0078 0.02103,-0.0039 0.04032,-0.0091 0.06055,-0.01563 0.02023,-0.0065 0.04135,-0.01441 0.06055,-0.02344 0.0192,-0.009 0.03675,-0.01984 0.05469,-0.03125 0.01793,-0.01141 0.0363,-0.02342 0.05273,-0.03711 0.01645,-0.01382 0.03046,-0.02921 0.04492,-0.04492 0.01446,-0.01572 0.02871,-0.03143 0.04102,-0.04883 0.01231,-0.0174 0.0232,-0.03583 0.0332,-0.05469 0.01001,-0.01886 0.01979,-0.03848 0.02734,-0.05859 l 0.5,-1.5 c 0.01028,-0.03112 0.01748,-0.06318 0.02148,-0.0957 0.0038,-0.03241 0.0045,-0.06512 0.002,-0.09766 -0.002,-0.03299 -0.0072,-0.0657 -0.01563,-0.09766 -0.0087,-0.03168 -0.02045,-0.06243 -0.03516,-0.0918 -0.01486,-0.029 -0.03252,-0.05647 -0.05273,-0.08203 -0.01971,-0.02621 -0.04196,-0.05042 -0.06641,-0.07227 -0.02477,-0.02146 -0.05159,-0.04043 -0.08008,-0.05664 -0.0286,-0.01593 -0.05869,-0.02901 -0.08984,-0.03906 -0.03116,-0.01041 -0.06329,-0.01716 -0.0957,-0.02148 -0.03241,-0.0043 -0.0651,-0.0062 -0.09766,-0.0039 z"
     style="fill:#0000ff"
     id="path9" />
  <path
     d="m 4.8676755,11.456752 c -0.0217,0.0015 -0.043,0.0054 -0.06445,0.0098 -0.02157,0.0043 -0.04378,0.01051 -0.06445,0.01758 -0.02068,0.0071 -0.04101,0.0157 -0.06055,0.02539 -0.01954,0.0097 -0.0385,0.02102 -0.05664,0.0332 -0.01814,0.01218 -0.03428,0.02451 -0.05078,0.03906 -0.01644,0.01461 -0.03258,0.03034 -0.04687,0.04687 -0.01429,0.01654 -0.02708,0.03451 -0.03906,0.05274 -0.01198,0.01822 -0.02368,0.03697 -0.0332,0.05664 -0.0095,0.01967 -0.01653,0.03966 -0.02344,0.06055 l -0.5,1.5 c -0.0059,0.02053 -0.01049,0.04152 -0.01367,0.0625 -0.0032,0.02098 -0.0054,0.04133 -0.0059,0.0625 -4.93e-4,0.02117 -2.47e-4,0.04335 0.0019,0.06445 0.0022,0.0211 0.0068,0.04172 0.01172,0.0625 0.0048,0.02092 0.0102,0.04249 0.01758,0.0625 0.0074,0.02001 0.01554,0.03777 0.02539,0.05664 0.0099,0.01887 0.02101,0.03719 0.0332,0.05469 0.0122,0.0175 0.02659,0.03489 0.04102,0.05078 0.01432,0.01588 0.02879,0.03109 0.04492,0.04492 0.01613,0.01384 0.03306,0.02741 0.05078,0.03906 0.01772,0.01165 0.03559,0.02193 0.05469,0.03125 0.0191,0.0093 0.04029,0.01658 0.06055,0.02344 0.02032,0.0067 0.03967,0.01163 0.06055,0.01563 0.02087,0.004 0.04328,0.0065 0.06445,0.0078 0.02117,0.0013 0.04129,0.0014 0.0625,0 0.02121,-0.0014 0.04347,-0.0037 0.06445,-0.0078 0.02103,-0.0039 0.04032,-0.0091 0.06055,-0.01563 0.02023,-0.0065 0.04135,-0.01441 0.06055,-0.02344 0.0192,-0.009 0.03675,-0.01984 0.05469,-0.03125 0.01793,-0.01141 0.0363,-0.02342 0.05273,-0.03711 0.01645,-0.01382 0.03046,-0.02921 0.04492,-0.04492 0.01446,-0.01572 0.02871,-0.03143 0.04102,-0.04883 0.01231,-0.0174 0.0232,-0.03583 0.0332,-0.05469 0.01001,-0.01886 0.01979,-0.03848 0.02734,-0.05859 l 0.5,-1.5 c 0.01028,-0.03112 0.01748,-0.06318 0.02148,-0.0957 0.0038,-0.03241 0.0045,-0.06512 0.002,-0.09766 -0.002,-0.03299 -0.0072,-0.0657 -0.01563,-0.09766 -0.0087,-0.03168 -0.02045,-0.06243 -0.03516,-0.0918 -0.01486,-0.029 -0.03252,-0.05647 -0.05273,-0.08203 -0.01971,-0.02621 -0.04196,-0.05042 -0.06641,-0.07227 -0.02477,-0.02146 -0.05159,-0.04043 -0.08008,-0.05664 -0.0286,-0.01593 -0.05869,-0.02901 -0.08984,-0.03906 -0.03116,-0.01041 -0.06329,-0.01716 -0.0957,-0.02148 -0.03241,-0.0043 -0.0651,-0.0062 -0.09766,-0.0039 z"
     style="fill:#0000ff"
     id="path10" />
  <path
     d="m 2.9777427,13.647356 c -0.0217,0.0015 -0.043,0.0054 -0.06445,0.0098 -0.02157,0.0043 -0.04378,0.01051 -0.06445,0.01758 -0.02068,0.0071 -0.04101,0.0157 -0.06055,0.02539 -0.01954,0.0097 -0.0385,0.02102 -0.05664,0.0332 -0.01814,0.01218 -0.03428,0.02451 -0.05078,0.03906 -0.01644,0.01461 -0.03258,0.03034 -0.04687,0.04687 -0.01429,0.01654 -0.02708,0.03451 -0.03906,0.05274 -0.01198,0.01822 -0.02368,0.03697 -0.0332,0.05664 -0.0095,0.01967 -0.01653,0.03966 -0.02344,0.06055 l -0.5000001,1.5 c -0.0059,0.02053 -0.01049,0.04152 -0.01367,0.0625 -0.0032,0.02098 -0.0054,0.04133 -0.0059,0.0625 -4.93e-4,0.02117 -2.47e-4,0.04335 0.0019,0.06445 0.0022,0.0211 0.0068,0.04172 0.01172,0.0625 0.0048,0.02092 0.0102,0.04249 0.01758,0.0625 0.0074,0.02001 0.01554,0.03777 0.02539,0.05664 0.0099,0.01887 0.02101,0.03719 0.0332,0.05469 0.0122,0.0175 0.02659,0.03489 0.04102,0.05078 0.01432,0.01588 0.02879,0.03109 0.04492,0.04492 0.01613,0.01384 0.03306,0.02741 0.05078,0.03906 0.01772,0.01165 0.03559,0.02193 0.05469,0.03125 0.0191,0.0093 0.04029,0.01658 0.06055,0.02344 0.02032,0.0067 0.03967,0.01163 0.06055,0.01563 0.02087,0.004 0.04328,0.0065 0.06445,0.0078 0.02117,0.0013 0.04129,0.0014 0.0625,0 0.02121,-0.0014 0.04347,-0.0037 0.06445,-0.0078 0.02103,-0.0039 0.04032,-0.0091 0.06055,-0.01563 0.02023,-0.0065 0.04135,-0.01441 0.06055,-0.02344 0.0192,-0.009 0.03675,-0.01984 0.05469,-0.03125 0.01793,-0.01141 0.0363,-0.02342 0.05273,-0.03711 0.01645,-0.01382 0.03046,-0.02921 0.04492,-0.04492 0.01446,-0.01572 0.02871,-0.03143 0.04102,-0.04883 0.01231,-0.0174 0.0232,-0.03583 0.0332,-0.05469 0.01001,-0.01886 0.01979,-0.03848 0.02734,-0.05859 l 0.5,-1.5 c 0.01028,-0.03112 0.01748,-0.06318 0.02148,-0.0957 0.0038,-0.03241 0.0045,-0.06512 0.002,-0.09766 -0.002,-0.03299 -0.0072,-0.0657 -0.01563,-0.09766 -0.0087,-0.03168 -0.02045,-0.06243 -0.03516,-0.0918 -0.01486,-0.029 -0.03252,-0.05647 -0.05273,-0.08203 -0.01971,-0.02621 -0.04196,-0.05042 -0.06641,-0.07227 -0.02477,-0.02146 -0.05159,-0.04043 -0.08008,-0.05664 -0.0286,-0.01593 -0.05869,-0.02901 -0.08984,-0.03906 -0.03116,-0.01041 -0.06329,-0.01716 -0.0957,-0.02148 -0.03241,-0.0043 -0.0651,-0.0062 -0.09766,-0.0039 z"
     style="fill:#0000ff"
     id="path11" />
</svg>
