<?xml version="1.0" encoding="UTF-8" standalone="no"?>
<svg
   width="16"
   height="16"
   fill="currentColor"
   class="bi bi-cloud-fog"
   viewBox="0 0 16 16"
   version="1.1"
   id="svg1"
   sodipodi:docname="cloud-fog.svg"
   inkscape:version="1.3 (0e150ed6c4, 2023-07-21)"
   xmlns:inkscape="http://www.inkscape.org/namespaces/inkscape"
   xmlns:sodipodi="http://sodipodi.sourceforge.net/DTD/sodipodi-0.dtd"
   xmlns="http://www.w3.org/2000/svg"
   xmlns:svg="http://www.w3.org/2000/svg">
  <defs
     id="defs1" />
  <sodipodi:namedview
     id="namedview1"
     pagecolor="#ffffff"
     bordercolor="#000000"
     borderopacity="0.25"
     inkscape:showpageshadow="2"
     inkscape:pageopacity="0.0"
     inkscape:pagecheckerboard="0"
     inkscape:deskcolor="#d1d1d1"
     inkscape:zoom="23.28125"
     inkscape:cx="-0.19328859"
     inkscape:cy="7.0228188"
     inkscape:window-width="1920"
     inkscape:window-height="1001"
     inkscape:window-x="-9"
     inkscape:window-y="-9"
     inkscape:window-maximized="1"
     inkscape:current-layer="svg1" />
  <path
     d="m 3.5,13 c -0.087715,-1.77e-4 -0.1739343,0.02272 -0.25,0.06641 C 3.1737032,13.11037 3.1103697,13.173703 3.0664063,13.25 3.0227252,13.326066 2.9998233,13.412285 3,13.5 c -1.767e-4,0.08771 0.022725,0.173934 0.066406,0.25 0.043963,0.0763 0.1072969,0.13963 0.1835937,0.183594 0.076066,0.04368 0.1622846,0.06658 0.25,0.06641 h 9 c 0.08771,1.77e-4 0.173934,-0.02272 0.25,-0.06641 0.0763,-0.04396 0.13963,-0.107297 0.183594,-0.183594 0.04368,-0.07607 0.06658,-0.162285 0.06641,-0.25 1.77e-4,-0.08771 -0.02272,-0.173934 -0.06641,-0.25 C 12.88963,13.173703 12.826297,13.11037 12.75,13.066406 12.673934,13.022725 12.587715,12.999823 12.5,13 Z m 0,2 c -0.087715,-1.77e-4 -0.1739343,0.02272 -0.25,0.06641 C 3.1737032,15.11037 3.1103697,15.173703 3.0664063,15.25 3.0227252,15.326066 2.9998233,15.412285 3,15.5 c -1.767e-4,0.08771 0.022725,0.173934 0.066406,0.25 0.043963,0.0763 0.1072969,0.13963 0.1835937,0.183594 0.076066,0.04368 0.1622846,0.06658 0.25,0.06641 h 9 c 0.08771,1.77e-4 0.173934,-0.02272 0.25,-0.06641 0.0763,-0.04396 0.13963,-0.107297 0.183594,-0.183594 0.04368,-0.07607 0.06658,-0.162285 0.06641,-0.25 1.77e-4,-0.08771 -0.02272,-0.173934 -0.06641,-0.25 C 12.88963,15.173703 12.826297,15.11037 12.75,15.066406 12.673934,15.022725 12.587715,14.999823 12.5,15 Z"
     style="fill:#b7c4c8"
     id="path3" />
  <path
     d="M 8.1191406,2.0136719 A 5.001,5.001 0 0 0 7.2265625,2.1640625 5.001,5.001 0 0 0 6.375,2.4726563 5.001,5.001 0 0 0 5.59375,2.9296875 5.001,5.001 0 0 0 4.90625,3.5214844 5.001,5.001 0 0 0 4.3378906,4.2265625 5.001,5.001 0 0 0 3.90625,5.0234375 3.5,3.5 0 0 0 3.1484375,5.0175781 3.5,3.5 0 0 0 2.40625,5.1777344 3.5,3.5 0 0 0 1.7167969,5.4921875 3.5,3.5 0 0 0 1.1113281,5.9472656 3.5,3.5 0 0 0 0.6171875,6.5214844 3.5,3.5 0 0 0 0.25976563,7.1894531 3.5,3.5 0 0 0 0.0546875,7.9199219 3.5,3.5 0 0 0 0.00976563,8.6757813 3.5,3.5 0 0 0 0.12890625,9.4238281 3.5,3.5 0 0 0 0.40820313,10.128906 3.5,3.5 0 0 0 0.83203125,10.757813 3.5,3.5 0 0 0 1.3808594,11.28125 3.5,3.5 0 0 0 2.0292969,11.673828 3.5,3.5 0 0 0 2.7460938,11.916016 3.5,3.5 0 0 0 3.5,12 H 13 A 3,3 0 0 0 13.640625,11.931641 3,3 0 0 0 14.25,11.728516 3,3 0 0 0 14.802734,11.400391 3,3 0 0 0 15.273438,10.960938 3,3 0 0 0 15.640625,10.431641 3,3 0 0 0 15.884766,9.8359375 3,3 0 0 0 15.996094,9.203125 3,3 0 0 0 15.970703,8.5605469 3,3 0 0 0 15.808594,7.9375 3,3 0 0 0 15.517578,7.3632812 3,3 0 0 0 15.111328,6.8652344 3,3 0 0 0 14.607422,6.4648437 3,3 0 0 0 14.029297,6.1816406 3,3 0 0 0 13.404297,6.0273437 5.001,5.001 0 0 0 13.148438,5.1582031 5.001,5.001 0 0 0 12.740234,4.3496094 5.001,5.001 0 0 0 12.193359,3.6289063 5.001,5.001 0 0 0 11.523438,3.0175781 5.001,5.001 0 0 0 10.755859,2.5371094 5.001,5.001 0 0 0 9.9140625,2.203125 5.001,5.001 0 0 0 9.0253906,2.0273438 5.001,5.001 0 0 0 8.1191406,2.0136719 Z M 8.5,3 a 4,4 0 0 1 0.7265625,0.066406 4,4 0 0 1 0.7011719,0.1972656 4,4 0 0 1 0.6542966,0.3203125 4,4 0 0 1 0.583985,0.4335937 4,4 0 0 1 0.498047,0.5332031 4,4 0 0 1 0.390625,0.6152344 4,4 0 0 1 0.27539,0.6757813 4,4 0 0 1 0.146485,0.7128906 0.5,0.5 0 0 0 0.08398,0.2265625 0.5,0.5 0 0 0 0.179687,0.1621094 A 0.5,0.5 0 0 0 12.976563,7 H 13 a 2,2 0 0 1 0.5625,0.080078 2,2 0 0 1 0.519531,0.2382813 2,2 0 0 1 0.429688,0.3710937 2,2 0 0 1 0.30664,0.4804688 2,2 0 0 1 0.16211,0.5449219 2,2 0 0 1 0,0.5703125 2,2 0 0 1 -0.16211,0.5449218 2,2 0 0 1 -0.30664,0.4804689 2,2 0 0 1 -0.429688,0.371094 A 2,2 0 0 1 13.5625,10.919922 2,2 0 0 1 13,11 H 3.5 A 2.5,2.5 0 0 1 2.8554688,10.916016 2.5,2.5 0 0 1 2.2558594,10.667969 2.5,2.5 0 0 1 1.7402344,10.273438 2.5,2.5 0 0 1 1.3417969,9.7617188 2.5,2.5 0 0 1 1.0898437,9.1621094 2.5,2.5 0 0 1 1.0019531,8.5195313 2.5,2.5 0 0 1 1.0800781,7.875 2.5,2.5 0 0 1 1.3222656,7.2734375 2.5,2.5 0 0 1 1.7128906,6.7539062 2.5,2.5 0 0 1 2.2226563,6.3515625 2.5,2.5 0 0 1 2.8183594,6.0957031 2.5,2.5 0 0 1 3.4609375,6 2.5,2.5 0 0 1 4.1054687,6.0742187 0.5,0.5 0 0 0 4.3515625,6.0722656 0.5,0.5 0 0 0 4.5683594,5.953125 0.5,0.5 0 0 0 4.7011719,5.7441406 4,4 0 0 1 4.984375,5.0898437 4,4 0 0 1 5.3808594,4.4941406 4,4 0 0 1 5.8769531,3.9804688 4,4 0 0 1 6.4550781,3.5625 4,4 0 0 1 7.0996094,3.2519531 4,4 0 0 1 7.7890625,3.0644531 4,4 0 0 1 8.5,3 Z"
     style="fill:#5599ff"
     id="path2" />
</svg>
