<?xml version="1.0" encoding="UTF-8" standalone="no"?>
<svg
   width="16"
   height="16"
   fill="currentColor"
   class="bi bi-cloud-lightning"
   viewBox="0 0 16 16"
   version="1.1"
   id="svg1"
   sodipodi:docname="cloud-lightning.svg"
   inkscape:version="1.3 (0e150ed6c4, 2023-07-21)"
   xmlns:inkscape="http://www.inkscape.org/namespaces/inkscape"
   xmlns:sodipodi="http://sodipodi.sourceforge.net/DTD/sodipodi-0.dtd"
   xmlns="http://www.w3.org/2000/svg"
   xmlns:svg="http://www.w3.org/2000/svg">
  <defs
     id="defs1" />
  <sodipodi:namedview
     id="namedview1"
     pagecolor="#ffffff"
     bordercolor="#000000"
     borderopacity="0.25"
     inkscape:showpageshadow="2"
     inkscape:pageopacity="0.0"
     inkscape:pagecheckerboard="0"
     inkscape:deskcolor="#d1d1d1"
     inkscape:zoom="23.28125"
     inkscape:cx="15.012081"
     inkscape:cy="7.452349"
     inkscape:window-width="1920"
     inkscape:window-height="1001"
     inkscape:window-x="-9"
     inkscape:window-y="-9"
     inkscape:window-maximized="1"
     inkscape:current-layer="svg1" />
  <path
     d="m 7.5,11 a 0.5,0.5 0 0 0 -0.2617188,0.07422 0.5,0.5 0 0 0 -0.1855468,0.201172 l -1,2 A 0.5,0.5 0 0 0 6,13.521484 0.5,0.5 0 0 0 6.0742187,13.761719 0.5,0.5 0 0 0 6.2558594,13.9375 0.5,0.5 0 0 0 6.5,14 h 0.859375 l -0.34375,1.378906 a 0.5,0.5 0 0 0 0.00781,0.267578 0.5,0.5 0 0 0 0.1445312,0.22461 0.5,0.5 0 0 0 0.2382813,0.11914 0.5,0.5 0 0 0 0.2675781,-0.02148 0.5,0.5 0 0 0 0.2167969,-0.15625 l 2,-2.5 A 0.5,0.5 0 0 0 9.96875,13.173828 0.5,0.5 0 0 0 9.9980469,13.015625 0.5,0.5 0 0 0 9.9785156,12.857422 0.5,0.5 0 0 0 9.9101563,12.714844 0.5,0.5 0 0 0 9.7988281,12.599609 0.5,0.5 0 0 0 9.6582031,12.525391 0.5,0.5 0 0 0 9.5,12.5 H 8.6933594 l 0.28125,-0.841797 a 0.5,0.5 0 0 0 0.023437,-0.115234 0.5,0.5 0 0 0 -0.00391,-0.119141 0.5,0.5 0 0 0 -0.03125,-0.113281 A 0.5,0.5 0 0 0 8.90625,11.207031 0.5,0.5 0 0 0 8.8261719,11.121094 0.5,0.5 0 0 0 8.7285156,11.054688 0.5,0.5 0 0 0 8.6171875,11.013672 0.5,0.5 0 0 0 8.5,11 Z"
     style="fill:#ffdd55"
     id="path3" />
  <path
     d="M 8.1191406,0.01367188 A 5.001,5.001 0 0 0 7.2265625,0.1640625 5.001,5.001 0 0 0 6.375,0.47265625 5.001,5.001 0 0 0 5.59375,0.9296875 5.001,5.001 0 0 0 4.90625,1.5214844 5.001,5.001 0 0 0 4.3378906,2.2265625 5.001,5.001 0 0 0 3.90625,3.0234375 3.5,3.5 0 0 0 3.1484375,3.0175781 3.5,3.5 0 0 0 2.40625,3.1777344 3.5,3.5 0 0 0 1.7167969,3.4921875 3.5,3.5 0 0 0 1.1113281,3.9472656 3.5,3.5 0 0 0 0.6171875,4.5214844 3.5,3.5 0 0 0 0.25976563,5.1894531 3.5,3.5 0 0 0 0.0546875,5.9199219 3.5,3.5 0 0 0 0.00976563,6.6757812 3.5,3.5 0 0 0 0.12890625,7.4238281 3.5,3.5 0 0 0 0.40820313,8.1289063 3.5,3.5 0 0 0 0.83203125,8.7578125 3.5,3.5 0 0 0 1.3808594,9.28125 3.5,3.5 0 0 0 2.0292969,9.6738281 3.5,3.5 0 0 0 2.7460938,9.9160156 3.5,3.5 0 0 0 3.5,10 H 13 A 3,3 0 0 0 13.640625,9.9316406 3,3 0 0 0 14.25,9.7285156 3,3 0 0 0 14.802734,9.4003906 3,3 0 0 0 15.273438,8.9609375 3,3 0 0 0 15.640625,8.4316406 3,3 0 0 0 15.884766,7.8359375 3,3 0 0 0 15.996094,7.203125 3,3 0 0 0 15.970703,6.5605469 3,3 0 0 0 15.808594,5.9375 3,3 0 0 0 15.517578,5.3632812 3,3 0 0 0 15.111328,4.8652344 3,3 0 0 0 14.607422,4.4648437 3,3 0 0 0 14.029297,4.1816406 3,3 0 0 0 13.404297,4.0273437 5.001,5.001 0 0 0 13.148438,3.1582031 5.001,5.001 0 0 0 12.740234,2.3496094 5.001,5.001 0 0 0 12.193359,1.6289062 5.001,5.001 0 0 0 11.523438,1.0175781 5.001,5.001 0 0 0 10.755859,0.53710937 5.001,5.001 0 0 0 9.9140625,0.203125 5.001,5.001 0 0 0 9.0253906,0.02734375 5.001,5.001 0 0 0 8.1191406,0.01367188 Z M 8.5,1 a 4,4 0 0 1 0.828125,0.085937 4,4 0 0 1 0.792969,0.2558594 4,4 0 0 1 0.720703,0.4160156 4,4 0 0 1 0.621094,0.5546875 4,4 0 0 1 0.492187,0.6699219 4,4 0 0 1 0.341797,0.7597656 4,4 0 0 1 0.179688,0.8125 0.5,0.5 0 0 0 0.08398,0.2265625 0.5,0.5 0 0 0 0.179687,0.1621094 A 0.5,0.5 0 0 0 12.976563,5 H 13 a 2,2 0 0 1 0.5625,0.080078 2,2 0 0 1 0.519531,0.2382813 2,2 0 0 1 0.429688,0.3710937 2,2 0 0 1 0.30664,0.4804688 2,2 0 0 1 0.16211,0.5449218 2,2 0 0 1 0,0.5703125 2,2 0 0 1 -0.16211,0.5449219 2,2 0 0 1 -0.30664,0.4804688 A 2,2 0 0 1 14.082031,8.6816406 2,2 0 0 1 13.5625,8.9199219 2,2 0 0 1 13,9 H 3.5 A 2.5,2.5 0 0 1 2.8554688,8.9160156 2.5,2.5 0 0 1 2.2558594,8.6679688 2.5,2.5 0 0 1 1.7402344,8.2734375 2.5,2.5 0 0 1 1.3417969,7.7617187 2.5,2.5 0 0 1 1.0898437,7.1621094 2.5,2.5 0 0 1 1.0019531,6.5195312 2.5,2.5 0 0 1 1.0800781,5.875 2.5,2.5 0 0 1 1.3222656,5.2734375 2.5,2.5 0 0 1 1.7128906,4.7539062 2.5,2.5 0 0 1 2.2226563,4.3515625 2.5,2.5 0 0 1 2.8183594,4.0957031 2.5,2.5 0 0 1 3.4609375,4 2.5,2.5 0 0 1 4.1054687,4.0742187 0.5,0.5 0 0 0 4.3515625,4.0722656 0.5,0.5 0 0 0 4.5683594,3.953125 0.5,0.5 0 0 0 4.7011719,3.7441406 4,4 0 0 1 5.0429687,2.9863281 4,4 0 0 1 5.5351562,2.3125 4,4 0 0 1 6.15625,1.7578125 4,4 0 0 1 6.8789062,1.34375 4,4 0 0 1 7.671875,1.0859375 4,4 0 0 1 8.5,1 Z"
     style="fill:#5599ff"
     id="path2" />
</svg>
