<?xml version="1.0" encoding="UTF-8" standalone="no"?>
<svg
   width="16"
   height="16"
   fill="currentColor"
   class="bi bi-cloud"
   viewBox="0 0 16 16"
   version="1.1"
   id="svg1"
   sodipodi:docname="mainly_clear.svg"
   xml:space="preserve"
   inkscape:version="1.3 (0e150ed6c4, 2023-07-21)"
   xmlns:inkscape="http://www.inkscape.org/namespaces/inkscape"
   xmlns:sodipodi="http://sodipodi.sourceforge.net/DTD/sodipodi-0.dtd"
   xmlns="http://www.w3.org/2000/svg"
   xmlns:svg="http://www.w3.org/2000/svg"><defs
     id="defs1" /><sodipodi:namedview
     id="namedview1"
     pagecolor="#ffffff"
     bordercolor="#000000"
     borderopacity="0.25"
     inkscape:showpageshadow="2"
     inkscape:pageopacity="0.0"
     inkscape:pagecheckerboard="0"
     inkscape:deskcolor="#d1d1d1"
     inkscape:zoom="11.640625"
     inkscape:cx="-10.09396"
     inkscape:cy="4.4241611"
     inkscape:window-width="1920"
     inkscape:window-height="1001"
     inkscape:window-x="-9"
     inkscape:window-y="-9"
     inkscape:window-maximized="1"
     inkscape:current-layer="svg1" /><path
     d="m 9.0996094,10.494141 c -0.03384,-6.22e-4 -0.067552,-1.97e-4 -0.1015625,-0.002 -0.062791,-0.0033 -0.1249866,-0.0091 -0.1875,-0.01563 -0.062514,-0.0065 -0.1253927,-0.01364 -0.1875,-0.02344 -0.062107,-0.0098 -0.1259286,-0.0221 -0.1875,-0.03516 -0.053816,-0.01142 -0.1070227,-0.0234 -0.1601563,-0.03711 7.13e-4,0.0013 0.00124,0.0026 0.00195,0.0039 0.044946,0.08031 0.086145,0.163369 0.1230468,0.248047 0.036902,0.08468 0.069276,0.171212 0.097656,0.259765 0.02838,0.08855 0.052883,0.179546 0.072266,0.271485 0.016808,0.07973 0.029356,0.160255 0.039063,0.242187 v -0.125 c -2.73e-5,-0.02525 8.875e-4,-0.0496 0.00391,-0.07422 0.00302,-0.02462 0.00723,-0.05002 0.013672,-0.07422 0.00644,-0.0242 0.015616,-0.04684 0.025391,-0.07031 0.00977,-0.02347 0.020629,-0.04646 0.033203,-0.06836 0.012664,-0.02194 0.027464,-0.04271 0.042969,-0.0625 0.015505,-0.01979 0.03302,-0.03888 0.050781,-0.05664 0.017761,-0.01776 0.034899,-0.03528 0.054687,-0.05078 0.019788,-0.01551 0.040558,-0.0303 0.0625,-0.04297 0.038328,-0.02201 0.080883,-0.03979 0.1230469,-0.05273 0.042164,-0.01294 0.08497,-0.02062 0.1289062,-0.02344 0.00859,-5.55e-4 0.017001,-1.85e-4 0.025391,0 -0.022279,-0.07135 -0.047514,-0.141609 -0.074219,-0.210937 z"
     style="fill:#5599ff;stroke-width:0.700852"
     id="path37" /><path
     d="M 6.2246094,8.9453125 C 6.2039114,8.9145151 6.1822264,8.884652 6.1621094,8.8535156 6.1279607,8.8006652 6.0938672,8.7460273 6.0625,8.6914063 6.0309189,8.6368125 6.0013031,8.5834599 5.9726562,8.5273438 5.9440094,8.4712279 5.9182383,8.4129886 5.8925781,8.3554688 5.8703459,8.3056334 5.8499901,8.2541114 5.8300781,8.203125 5.7850467,8.2015119 5.7407308,8.1972656 5.6953125,8.1972656 A 3.8757095,3.8757095 0 0 0 5.0117187,8.2597656 3.8757095,3.8757095 0 0 0 4.3515625,8.4414063 3.8757095,3.8757095 0 0 0 3.7324219,8.7363281 3.8757095,3.8757095 0 0 0 3.1757813,9.1367188 C 3.1086748,9.1945389 3.044632,9.2544754 2.9824219,9.3164063 2.9202118,9.3783371 2.8594978,9.4423103 2.8027344,9.5078125 2.7459709,9.5733147 2.6933446,9.6404502 2.6425781,9.7089844 2.5918116,9.7775186 2.5442193,9.848895 2.5,9.9199219 2.4557807,9.9909487 2.414075,10.061785 2.3769531,10.134766 c -0.037122,0.07298 -0.070135,0.146309 -0.099609,0.220703 -0.029474,0.07439 -0.054896,0.14934 -0.076172,0.224609 -0.021276,0.07527 -0.038254,0.150958 -0.050781,0.226563 -0.073414,0.01621 -0.1457741,0.03655 -0.2167969,0.05859 -0.071023,0.02204 -0.1406459,0.04661 -0.2089843,0.07422 -0.068339,0.0276 -0.1358107,0.05694 -0.2011719,0.08984 -0.065361,0.0329 -0.1293152,0.0695 -0.1914063,0.107422 -0.062091,0.03793 -0.1211595,0.07841 -0.1796875,0.121094 -0.058528,0.04268 -0.11525,0.0876 -0.16992182,0.134765 -0.0546719,0.04717 -0.10768026,0.09705 -0.15820313,0.148438 -0.0505229,0.05139 -0.0984503,0.104821 -0.14453125,0.160156 -0.046081,0.05533 -0.0914664,0.110908 -0.1328125,0.169922 -0.0413461,0.05901 -0.0789161,0.121171 -0.11523437,0.183594 -0.0363183,0.06242 -0.0705649,0.125842 -0.1015625,0.191406 -0.0309976,0.06556 -0.0586004,0.132737 -0.0839844,0.201172 -0.0253839,0.06843 -0.048882,0.137948 -0.0683594,0.208984 -0.0194774,0.07104 -0.0355503,0.143429 -0.0488281,0.216797 -0.0132778,0.07337 -0.0225115,0.147225 -0.02929688,0.222656 -0.0067854,0.07543 -0.01171875,0.153244 -0.01171875,0.230469 0,0.08971 0.0045497,0.178392 0.01367188,0.265625 0.009122,0.08723 0.0232308,0.171519 0.0410156,0.255859 0.0177848,0.08434 0.0404185,0.167017 0.0664063,0.248047 0.0259878,0.08103 0.0561126,0.16098 0.0898438,0.238281 0.0337312,0.0773 0.0703131,0.153407 0.11132812,0.226563 0.041015,0.07316 0.0849733,0.144297 0.1328125,0.212891 0.0478392,0.06859 0.100093,0.133653 0.15429687,0.197265 0.0542039,0.06361 0.11176608,0.125379 0.17187501,0.183594 0.0601089,0.05821 0.12194562,0.113617 0.18749997,0.166016 0.065554,0.0524 0.1345379,0.102271 0.2050781,0.148437 0.07054,0.04617 0.1436835,0.08744 0.21875,0.126953 0.075067,0.03951 0.1513356,0.07693 0.2304688,0.109375 0.079133,0.03245 0.1614003,0.06098 0.2441406,0.08594 0.08274,0.02496 0.1660654,0.04544 0.2519532,0.0625 0.085888,0.01706 0.173143,0.03032 0.2617187,0.03906 0.088576,0.0087 0.1787272,0.01367 0.2695313,0.01367 h 6.2421875 c 0.079503,0 0.1587631,-0.0041 0.2363281,-0.01172 0.077565,-0.0077 0.1532925,-0.01826 0.2285156,-0.0332 0.075223,-0.01494 0.1482261,-0.03478 0.2207031,-0.05664 0.072477,-0.02187 0.1435639,-0.0458 0.2128907,-0.07422 0.069327,-0.02842 0.1373527,-0.06109 0.2031247,-0.0957 0.06577,-0.03462 0.129593,-0.07284 0.191407,-0.113282 0.06181,-0.04044 0.122236,-0.083 0.179687,-0.128906 0.05745,-0.04591 0.111378,-0.09352 0.164063,-0.144531 0.05268,-0.05101 0.102877,-0.104413 0.15039,-0.160156 0.04751,-0.05574 0.09283,-0.113715 0.134766,-0.173828 0.04194,-0.06011 0.08123,-0.123383 0.117187,-0.1875 0.03596,-0.06412 0.07003,-0.129508 0.09961,-0.197266 0.02957,-0.06776 0.05534,-0.137951 0.07813,-0.208984 0.02279,-0.07103 0.04104,-0.142853 0.05664,-0.216797 0.0156,-0.07394 0.02716,-0.150073 0.03516,-0.226563 0.008,-0.07649 0.01367,-0.153751 0.01367,-0.232422 0,-0.07166 -0.0031,-0.143025 -0.0098,-0.21289 -0.0066,-0.06987 -0.01826,-0.139239 -0.03125,-0.207032 -0.01299,-0.06779 -0.02785,-0.133773 -0.04687,-0.199218 -0.01903,-0.06545 -0.04165,-0.128585 -0.06641,-0.191407 -0.02476,-0.06282 -0.05185,-0.125623 -0.08203,-0.185546 -0.03019,-0.05992 -0.06235,-0.11708 -0.09766,-0.173829 -0.03531,-0.05675 -0.07316,-0.112716 -0.113281,-0.166015 -0.04012,-0.0533 -0.08427,-0.104723 -0.128906,-0.154297 -0.04464,-0.04957 -0.08983,-0.097 -0.138672,-0.142578 -0.04884,-0.04557 -0.0996,-0.08956 -0.152344,-0.13086 -0.05274,-0.0413 -0.107726,-0.08044 -0.164063,-0.117187 -0.05634,-0.03675 -0.114201,-0.0716 -0.173828,-0.103516 -0.05963,-0.03192 -0.1209816,-0.06107 -0.1835935,-0.08789 -0.048744,-0.02088 -0.1000019,-0.03901 -0.1503906,-0.05664 v 0.761719 c 0.04375,0.02332 0.085851,0.04724 0.1269531,0.07422 0.043067,0.02827 0.085089,0.05978 0.125,0.0918 0.03991,0.03201 0.07874,0.06608 0.115234,0.101563 0.0365,0.03548 0.07069,0.07266 0.103516,0.111328 0.03283,0.03867 0.06484,0.07756 0.09375,0.119141 0.02891,0.04158 0.05535,0.08468 0.08008,0.128906 0.02473,0.04422 0.04611,0.09013 0.06641,0.136719 0.0203,0.04658 0.03908,0.09391 0.05469,0.142578 0.0156,0.04867 0.0284,0.09796 0.03906,0.148437 0.01066,0.05048 0.01993,0.102288 0.02539,0.154297 0.0055,0.05201 0.0078,0.104939 0.0078,0.158203 0,0.05322 -0.0024,0.106232 -0.0078,0.158203 -0.0055,0.05197 -0.01473,0.1019 -0.02539,0.152344 -0.01066,0.05044 -0.02346,0.10175 -0.03906,0.150391 -0.0156,0.04864 -0.03439,0.09602 -0.05469,0.142578 -0.02029,0.04656 -0.04168,0.09056 -0.06641,0.134766 -0.02473,0.0442 -0.05117,0.08734 -0.08008,0.128906 -0.02891,0.04157 -0.06092,0.08244 -0.09375,0.121094 -0.03283,0.03866 -0.06702,0.07586 -0.103516,0.111328 -0.0365,0.03547 -0.07532,0.06956 -0.115234,0.101562 -0.039911,0.032 -0.081933,0.06158 -0.125,0.08984 -0.043067,0.02826 -0.086844,0.05583 -0.1328125,0.08008 -0.045968,0.02425 -0.093965,0.04646 -0.1425781,0.06641 -0.048613,0.01995 -0.097435,0.03736 -0.1484375,0.05274 -0.051003,0.01538 -0.1031133,0.02853 -0.15625,0.03906 -0.053137,0.01053 -0.1070945,0.01803 -0.1621094,0.02344 -0.055015,0.0054 -0.1113312,0.0078 -0.1679687,0.0078 H 2.7382813 c -0.067939,0 -0.1351463,-0.0033 -0.2011719,-0.0098 -0.066026,-0.0065 -0.1315111,-0.01665 -0.1953125,-0.0293 -0.063801,-0.01265 -0.1262339,-0.0284 -0.1875,-0.04687 -0.061266,-0.01848 -0.1212678,-0.03853 -0.1796875,-0.0625 -0.05842,-0.02397 -0.1146596,-0.05094 -0.1699219,-0.08008 -0.055262,-0.02914 -0.1083624,-0.06172 -0.1601563,-0.0957 -0.051794,-0.03398 -0.1023763,-0.06893 -0.1503906,-0.107421 -0.048014,-0.0385 -0.094748,-0.08037 -0.1386719,-0.123047 -0.043924,-0.04268 -0.085478,-0.08629 -0.125,-0.132813 -0.039522,-0.04653 -0.076519,-0.09448 -0.1113281,-0.144531 -0.034809,-0.05005 -0.067871,-0.103009 -0.097656,-0.15625 -0.0297853,-0.05324 -0.0556278,-0.107959 -0.0800782,-0.164063 -0.0244504,-0.0561 -0.0456487,-0.113238 -0.0644531,-0.171875 -0.0188044,-0.05864 -0.0359808,-0.118847 -0.0488281,-0.179687 -0.0128473,-0.06084 -0.0227177,-0.122832 -0.0292969,-0.185547 -0.006579,-0.06272 -0.009766,-0.125194 -0.009766,-0.189453 0,-0.05983 0.004065,-0.119231 0.009766,-0.177734 0.005701,-0.0585 0.0142393,-0.116922 0.0253906,-0.173829 0.0111513,-0.05691 0.0246639,-0.112924 0.0410156,-0.167968 0.0163518,-0.05505 0.0353386,-0.109193 0.0566406,-0.16211 0.021302,-0.05292 0.0443104,-0.103772 0.0703125,-0.154297 0.0260022,-0.05052 0.0535323,-0.10057 0.0839844,-0.148437 0.030452,-0.04787 0.063004,-0.09373 0.097656,-0.138672 0.034652,-0.04494 0.072727,-0.0891 0.1113281,-0.130859 0.038602,-0.04176 0.078793,-0.08084 0.1210938,-0.119141 0.042301,-0.0383 0.087062,-0.07479 0.1328125,-0.109375 0.04575,-0.03458 0.091676,-0.06901 0.140625,-0.09961 0.048949,-0.0306 0.1004452,-0.05763 0.1523437,-0.08399 0.051899,-0.02635 0.1055589,-0.05043 0.1601563,-0.07226 0.054597,-0.02184 0.1089695,-0.04154 0.1660156,-0.05859 0.057046,-0.01706 0.1165366,-0.03291 0.1757813,-0.04492 0.059245,-0.01201 0.1184944,-0.02064 0.1796875,-0.02734 l 0.3125,-0.03516 v -0.3125 c 0,-0.05397 0.00505,-0.110676 0.013672,-0.167969 0.00863,-0.05729 0.019955,-0.115995 0.037109,-0.175781 0.017154,-0.05979 0.038865,-0.120197 0.064453,-0.181641 0.025588,-0.06144 0.055918,-0.12328 0.089844,-0.185546 0.033926,-0.06227 0.071114,-0.125247 0.1132813,-0.1875 0.042167,-0.06225 0.088358,-0.124141 0.1386718,-0.185547 0.050313,-0.061407 0.1056989,-0.1219167 0.1640625,-0.181641 0.058364,-0.059724 0.121182,-0.1185743 0.1875,-0.1757812 A 3.1748578,3.1748578 0 0 1 4.0898437,9.3417969 3.1748578,3.1748578 0 0 1 4.5957031,9.0996094 3.1748578,3.1748578 0 0 1 5.1367187,8.9492188 3.1748578,3.1748578 0 0 1 5.6953125,8.8984375 c 0.1019738,0 0.2035614,0.00392 0.3027344,0.013672 0.077196,0.00759 0.1513201,0.019973 0.2265625,0.033203 z"
     style="fill:#5599ff;stroke-width:0.700852"
     id="path36" /><g
     style="display:inline;fill:#ffdd55"
     id="g1"
     transform="matrix(0.8533221,0,0,0.8533221,2.3592644,0.06243366)"><path
       d="M 8,12 A 4,4 0 1 0 8,4 4,4 0 0 0 8,12 M 8,0 a 0.5,0.5 0 0 1 0.5,0.5 v 2 a 0.5,0.5 0 0 1 -1,0 v -2 A 0.5,0.5 0 0 1 8,0 m 0,13 a 0.5,0.5 0 0 1 0.5,0.5 v 2 a 0.5,0.5 0 0 1 -1,0 v -2 A 0.5,0.5 0 0 1 8,13 m 8,-5 a 0.5,0.5 0 0 1 -0.5,0.5 h -2 a 0.5,0.5 0 0 1 0,-1 h 2 A 0.5,0.5 0 0 1 16,8 M 3,8 A 0.5,0.5 0 0 1 2.5,8.5 h -2 a 0.5,0.5 0 0 1 0,-1 h 2 A 0.5,0.5 0 0 1 3,8 M 13.657,2.343 a 0.5,0.5 0 0 1 0,0.707 L 12.243,4.465 A 0.50027817,0.50027817 0 1 1 11.536,3.757 L 12.95,2.343 a 0.5,0.5 0 0 1 0.707,0 m -9.193,9.193 a 0.5,0.5 0 0 1 0,0.707 L 3.05,13.657 A 0.5,0.5 0 0 1 2.343,12.95 l 1.414,-1.414 a 0.5,0.5 0 0 1 0.707,0 m 9.193,2.121 a 0.5,0.5 0 0 1 -0.707,0 l -1.414,-1.414 a 0.5,0.5 0 0 1 0.707,-0.707 l 1.414,1.414 a 0.5,0.5 0 0 1 0,0.707 M 4.464,4.465 a 0.5,0.5 0 0 1 -0.707,0 L 2.343,3.05 A 0.5,0.5 0 1 1 3.05,2.343 l 1.414,1.414 a 0.5,0.5 0 0 1 0,0.708"
       id="path1-8"
       style="fill:#ffdd55" /></g></svg>
