<?xml version="1.0" encoding="UTF-8" standalone="no"?>
<svg
   width="16"
   height="16"
   fill="currentColor"
   class="bi bi-cloud"
   viewBox="0 0 16 16"
   version="1.1"
   id="svg1"
   sodipodi:docname="mainly_clear_day.svg"
   xml:space="preserve"
   inkscape:version="1.3 (0e150ed6c4, 2023-07-21)"
   inkscape:export-filename="mainly_clear_night.svg"
   inkscape:export-xdpi="96"
   inkscape:export-ydpi="96"
   xmlns:inkscape="http://www.inkscape.org/namespaces/inkscape"
   xmlns:sodipodi="http://sodipodi.sourceforge.net/DTD/sodipodi-0.dtd"
   xmlns="http://www.w3.org/2000/svg"
   xmlns:svg="http://www.w3.org/2000/svg"><defs
     id="defs1" /><sodipodi:namedview
     id="namedview1"
     pagecolor="#ffffff"
     bordercolor="#000000"
     borderopacity="0.25"
     inkscape:showpageshadow="2"
     inkscape:pageopacity="0.0"
     inkscape:pagecheckerboard="0"
     inkscape:deskcolor="#d1d1d1"
     inkscape:zoom="11.640625"
     inkscape:cx="-10.09396"
     inkscape:cy="4.4241611"
     inkscape:window-width="1920"
     inkscape:window-height="1001"
     inkscape:window-x="-9"
     inkscape:window-y="-9"
     inkscape:window-maximized="1"
     inkscape:current-layer="svg1" /><path
     d="m 4.6640625,8.3398438 a 3.8757095,3.8757095 0 0 0 -0.3125,0.1015625 3.8757095,3.8757095 0 0 0 -0.3164063,0.1328125 3.8757095,3.8757095 0 0 0 -0.3027343,0.1621093 3.8757095,3.8757095 0 0 0 -0.2871094,0.1875 3.8757095,3.8757095 0 0 0 -0.2695312,0.2128907 C 3.1086748,9.1945386 3.0446317,9.2544754 2.9824219,9.3164063 2.9202118,9.3783368 2.8594975,9.4423106 2.8027344,9.5078125 2.7459709,9.5733144 2.6933446,9.6404502 2.6425781,9.7089844 2.5918119,9.7775183 2.5442193,9.848895 2.5,9.9199219 2.4557807,9.9909484 2.414075,10.061785 2.3769531,10.134766 c -0.037122,0.07298 -0.070135,0.146309 -0.099609,0.220703 -0.029474,0.07439 -0.054896,0.14934 -0.076172,0.224609 -0.021276,0.07527 -0.038254,0.150958 -0.050781,0.226563 -0.073414,0.01621 -0.1457741,0.03655 -0.2167969,0.05859 -0.071023,0.02204 -0.1406462,0.04661 -0.2089843,0.07422 -0.068339,0.0276 -0.135811,0.05694 -0.2011719,0.08984 -0.065361,0.0329 -0.1293152,0.0695 -0.1914063,0.107422 -0.062091,0.03793 -0.1211595,0.07841 -0.1796875,0.121094 -0.058528,0.04268 -0.1152503,0.0876 -0.16992182,0.134765 -0.0546718,0.04717 -0.10768041,0.09705 -0.15820313,0.148438 -0.0505229,0.05139 -0.0984504,0.104821 -0.14453125,0.160156 -0.046081,0.05533 -0.0914664,0.110908 -0.1328125,0.169922 -0.0413461,0.05901 -0.0789161,0.121171 -0.11523437,0.183594 -0.0363183,0.06242 -0.0705649,0.125842 -0.1015625,0.191406 -0.0309976,0.06556 -0.0586004,0.132737 -0.0839844,0.201172 -0.0253839,0.06843 -0.048882,0.137948 -0.0683594,0.208984 -0.0194774,0.07104 -0.0355503,0.143429 -0.0488281,0.216797 -0.0132778,0.07337 -0.0225115,0.147225 -0.02929688,0.222656 -0.0067854,0.07543 -0.01171875,0.153244 -0.01171875,0.230469 0,0.04486 0.0016286,0.08852 0.0039063,0.132812 0.0022777,0.04429 0.0052045,0.0892 0.0097656,0.132813 0.004561,0.04362 0.0106876,0.08639 0.0175781,0.128906 0.006891,0.04252 0.0145451,0.08478 0.0234375,0.126953 0.008892,0.04217 0.0181669,0.08366 0.0292969,0.125 0.01113,0.04134 0.0241155,0.08253 0.0371094,0.123047 0.0259878,0.08103 0.0561126,0.16098 0.0898438,0.238281 0.0168656,0.03865 0.0342456,0.0774 0.0527344,0.115235 0.0184887,0.03783 0.0380863,0.07475 0.0585938,0.111328 0.041015,0.07316 0.0849733,0.144297 0.1328125,0.212891 0.0239196,0.03429 0.0483999,0.06682 0.0742188,0.09961 0.0258188,0.03279 0.0529762,0.06585 0.0800781,0.09766 0.0542036,0.06361 0.11176626,0.125379 0.17187501,0.183594 0.0601086,0.05821 0.12194589,0.113617 0.18749999,0.166016 0.065554,0.0524 0.1345382,0.102271 0.2050781,0.148437 0.03527,0.02309 0.070935,0.04538 0.1074219,0.06641 0.036487,0.02103 0.073795,0.04079 0.1113281,0.06055 0.037533,0.01975 0.074939,0.03829 0.1132813,0.05664 0.038342,0.01835 0.077621,0.03651 0.1171875,0.05273 0.079133,0.03245 0.1614006,0.06098 0.2441406,0.08594 0.08274,0.02496 0.1660654,0.04544 0.2519532,0.0625 0.085888,0.01706 0.1731433,0.03032 0.2617187,0.03906 0.044288,0.0044 0.089805,0.0074 0.1347656,0.0098 0.04496,0.0023 0.089364,0.0039 0.1347657,0.0039 h 6.2421875 c 0.079503,0 0.1587634,-0.0041 0.2363281,-0.01172 0.077565,-0.0077 0.1532928,-0.01826 0.2285156,-0.0332 0.075223,-0.01494 0.1482264,-0.03478 0.2207031,-0.05664 0.072477,-0.02187 0.1435639,-0.0458 0.2128907,-0.07422 0.069327,-0.02842 0.137353,-0.06109 0.203125,-0.0957 0.06577,-0.03462 0.129593,-0.07284 0.191407,-0.113282 0.06181,-0.04044 0.122236,-0.083 0.179687,-0.128906 0.05745,-0.04591 0.111378,-0.09352 0.164063,-0.144531 0.05268,-0.05101 0.102877,-0.104413 0.15039,-0.160156 0.04751,-0.05574 0.09283,-0.113718 0.134766,-0.173828 0.04194,-0.06011 0.08123,-0.123386 0.117187,-0.1875 0.03596,-0.06412 0.07003,-0.129508 0.09961,-0.197266 0.02957,-0.06776 0.05531,-0.137954 0.07813,-0.208984 0.02279,-0.07103 0.04104,-0.142853 0.05664,-0.216797 0.0156,-0.07394 0.02716,-0.150073 0.03516,-0.226563 0.004,-0.03824 0.0073,-0.07652 0.0098,-0.115234 0.0024,-0.03871 0.0039,-0.07785 0.0039,-0.117188 0,-0.07166 -0.0031,-0.143025 -0.0098,-0.21289 -0.0066,-0.06987 -0.01826,-0.139239 -0.03125,-0.207032 -0.01299,-0.06779 -0.02785,-0.133773 -0.04687,-0.199218 -0.01903,-0.06545 -0.04165,-0.128585 -0.06641,-0.191407 -0.02476,-0.06282 -0.05185,-0.125626 -0.08203,-0.185546 -0.003,-0.006 -0.0067,-0.01159 -0.0098,-0.01758 a 6.8132756,6.8132756 0 0 1 -0.05274,0.0039 c -0.117549,0 -0.23548,-0.0039 -0.351562,-0.0098 -0.116082,-0.0058 -0.231231,-0.01384 -0.345703,-0.02539 -0.04736,-0.0048 -0.09356,-0.01184 -0.140625,-0.01758 0.02327,0.02429 0.04657,0.04855 0.06836,0.07422 0.03283,0.03867 0.06484,0.07756 0.09375,0.119141 0.02891,0.04158 0.05535,0.08468 0.08008,0.128906 0.02473,0.04422 0.04611,0.09013 0.06641,0.136719 0.0203,0.04658 0.03908,0.09391 0.05469,0.142578 0.0156,0.04867 0.0284,0.09796 0.03906,0.148437 0.01066,0.05048 0.01993,0.102288 0.02539,0.154297 0.0055,0.05201 0.0078,0.104939 0.0078,0.158203 0,0.05322 -0.0024,0.106232 -0.0078,0.158203 -0.0055,0.05197 -0.01473,0.1019 -0.02539,0.152344 -0.01066,0.05044 -0.02346,0.10175 -0.03906,0.150391 -0.0156,0.04864 -0.03439,0.09602 -0.05469,0.142578 -0.02029,0.04656 -0.04168,0.09056 -0.06641,0.134766 -0.02473,0.0442 -0.05117,0.08734 -0.08008,0.128906 -0.02891,0.04157 -0.06092,0.08244 -0.09375,0.121094 -0.03283,0.03866 -0.06702,0.07586 -0.103516,0.111328 -0.0365,0.03547 -0.07532,0.06956 -0.115234,0.101562 -0.039911,0.032 -0.081933,0.06158 -0.1250003,0.08984 -0.043067,0.02826 -0.086844,0.05583 -0.1328125,0.08008 -0.045968,0.02425 -0.093965,0.04646 -0.1425781,0.06641 -0.048613,0.01995 -0.097435,0.03735 -0.1484375,0.05274 -0.051003,0.01538 -0.1031136,0.02853 -0.15625,0.03906 -0.053137,0.01053 -0.1070948,0.01803 -0.1621094,0.02344 -0.055015,0.0054 -0.1113315,0.0078 -0.1679687,0.0078 H 2.7382813 c -0.067939,0 -0.1351466,-0.0033 -0.2011719,-0.0098 -0.066026,-0.0065 -0.1315114,-0.01665 -0.1953125,-0.0293 -0.063801,-0.01265 -0.1262342,-0.02843 -0.1875,-0.04687 -0.061266,-0.01848 -0.1212681,-0.03853 -0.1796875,-0.0625 -0.05842,-0.02397 -0.1146599,-0.05094 -0.1699219,-0.08008 -0.055262,-0.02914 -0.1083624,-0.06172 -0.1601563,-0.0957 -0.051794,-0.03398 -0.1023763,-0.06893 -0.1503906,-0.107421 -0.048014,-0.0385 -0.094748,-0.08037 -0.1386719,-0.123047 -0.043924,-0.04268 -0.085478,-0.08629 -0.125,-0.132813 -0.039522,-0.04653 -0.076519,-0.09448 -0.1113281,-0.144531 -0.034809,-0.05005 -0.067871,-0.103009 -0.097656,-0.15625 C 0.9916993,14.163512 0.9658568,14.108793 0.9414064,14.052689 0.916956,13.996589 0.8957577,13.939451 0.8769533,13.880814 0.8581489,13.822174 0.8409725,13.761967 0.8281252,13.701127 0.8152779,13.640287 0.8054075,13.578295 0.7988283,13.51558 c -0.006579,-0.06272 -0.009766,-0.125194 -0.009766,-0.189453 0,-0.05983 0.004065,-0.119234 0.009766,-0.177734 0.005701,-0.0585 0.0142393,-0.116922 0.0253906,-0.173829 0.0111513,-0.05691 0.0246639,-0.112924 0.0410156,-0.167968 0.0163518,-0.05505 0.0353386,-0.109193 0.0566406,-0.16211 0.021302,-0.05292 0.0443104,-0.103772 0.0703125,-0.154297 0.0260022,-0.05052 0.0535323,-0.10057 0.0839844,-0.148437 0.030452,-0.04787 0.063004,-0.09373 0.097656,-0.138672 0.034652,-0.04494 0.072727,-0.0891 0.1113281,-0.130859 0.038602,-0.04176 0.078793,-0.08084 0.1210938,-0.119141 0.042301,-0.0383 0.087062,-0.07479 0.1328125,-0.109375 0.04575,-0.03458 0.091676,-0.06901 0.140625,-0.09961 0.048949,-0.0306 0.1004455,-0.05763 0.1523437,-0.08399 0.051899,-0.02635 0.1055592,-0.05044 0.1601563,-0.07226 0.054597,-0.02184 0.1089698,-0.04154 0.1660156,-0.05859 0.057046,-0.01706 0.1165366,-0.03291 0.1757813,-0.04492 0.059245,-0.01201 0.1184944,-0.02064 0.1796875,-0.02734 l 0.3125,-0.03516 v -0.3125 c 0,-0.05397 0.00505,-0.110676 0.013672,-0.167969 0.00863,-0.05729 0.019955,-0.115995 0.037109,-0.175781 0.017154,-0.05979 0.038865,-0.120197 0.064453,-0.181641 0.025588,-0.06144 0.055918,-0.123283 0.089844,-0.185546 0.033926,-0.06227 0.071114,-0.12525 0.1132813,-0.1875 0.042167,-0.06225 0.088358,-0.124141 0.1386718,-0.185547 C 3.3335159,9.963944 3.3889021,9.903434 3.4472654,9.84371 3.5056294,9.783986 3.5684477,9.7251354 3.6347654,9.6679288 A 3.1748578,3.1748578 0 0 1 4.0898437,9.3417969 3.1748578,3.1748578 0 0 1 4.5957031,9.0996094 3.1748578,3.1748578 0 0 1 4.9648437,8.9960938 C 4.9310723,8.931837 4.8969679,8.8681811 4.8652344,8.8027344 4.817442,8.7041683 4.7715671,8.6031002 4.7285156,8.5019531 4.705735,8.4484314 4.6854852,8.3940577 4.6640625,8.3398438 Z"
     style="fill:#5599ff;stroke-width:0.700852"
     id="path7" /><g
     style="display:none;fill:#ffdd55"
     id="g1"
     transform="matrix(0.8533221,0,0,0.8533221,2.3592644,0.06243366)"><path
       d="M 8,12 A 4,4 0 1 0 8,4 4,4 0 0 0 8,12 M 8,0 a 0.5,0.5 0 0 1 0.5,0.5 v 2 a 0.5,0.5 0 0 1 -1,0 v -2 A 0.5,0.5 0 0 1 8,0 m 0,13 a 0.5,0.5 0 0 1 0.5,0.5 v 2 a 0.5,0.5 0 0 1 -1,0 v -2 A 0.5,0.5 0 0 1 8,13 m 8,-5 a 0.5,0.5 0 0 1 -0.5,0.5 h -2 a 0.5,0.5 0 0 1 0,-1 h 2 A 0.5,0.5 0 0 1 16,8 M 3,8 A 0.5,0.5 0 0 1 2.5,8.5 h -2 a 0.5,0.5 0 0 1 0,-1 h 2 A 0.5,0.5 0 0 1 3,8 M 13.657,2.343 a 0.5,0.5 0 0 1 0,0.707 L 12.243,4.465 A 0.50027817,0.50027817 0 1 1 11.536,3.757 L 12.95,2.343 a 0.5,0.5 0 0 1 0.707,0 m -9.193,9.193 a 0.5,0.5 0 0 1 0,0.707 L 3.05,13.657 A 0.5,0.5 0 0 1 2.343,12.95 l 1.414,-1.414 a 0.5,0.5 0 0 1 0.707,0 m 9.193,2.121 a 0.5,0.5 0 0 1 -0.707,0 l -1.414,-1.414 a 0.5,0.5 0 0 1 0.707,-0.707 l 1.414,1.414 a 0.5,0.5 0 0 1 0,0.707 M 4.464,4.465 a 0.5,0.5 0 0 1 -0.707,0 L 2.343,3.05 A 0.5,0.5 0 1 1 3.05,2.343 l 1.414,1.414 a 0.5,0.5 0 0 1 0,0.708"
       id="path1-8"
       style="fill:#ffdd55" /></g><g
     style="display:inline;fill:currentColor"
     id="g2"
     transform="matrix(0.72844651,0,0,0.72844651,4.9060673,0.22043888)"><path
       d="m 6,0.278 a 0.77,0.77 0 0 1 0.08,0.858 7.2,7.2 0 0 0 -0.878,3.46 c 0,4.021 3.278,7.277 7.318,7.277 q 0.792,-10e-4 1.533,-0.16 a 0.79,0.79 0 0 1 0.81,0.316 0.73,0.73 0 0 1 -0.031,0.893 A 8.35,8.35 0 0 1 8.344,16 C 3.734,16 0,12.286 0,7.71 0,4.266 2.114,1.312 5.124,0.06 A 0.75,0.75 0 0 1 6,0.278"
       id="path1"
       style="fill:#2ad4ff" /></g></svg>
