<?xml version="1.0" encoding="UTF-8" standalone="no"?>
<svg
   width="16"
   height="16"
   fill="currentColor"
   class="bi bi-clouds"
   viewBox="0 0 16 16"
   version="1.1"
   id="svg2"
   sodipodi:docname="overcast.svg"
   inkscape:version="1.3 (0e150ed6c4, 2023-07-21)"
   xmlns:inkscape="http://www.inkscape.org/namespaces/inkscape"
   xmlns:sodipodi="http://sodipodi.sourceforge.net/DTD/sodipodi-0.dtd"
   xmlns="http://www.w3.org/2000/svg"
   xmlns:svg="http://www.w3.org/2000/svg">
  <defs
     id="defs2" />
  <sodipodi:namedview
     id="namedview2"
     pagecolor="#ffffff"
     bordercolor="#000000"
     borderopacity="0.25"
     inkscape:showpageshadow="2"
     inkscape:pageopacity="0.0"
     inkscape:pagecheckerboard="0"
     inkscape:deskcolor="#d1d1d1"
     inkscape:zoom="46.5625"
     inkscape:cx="8"
     inkscape:cy="8"
     inkscape:window-width="1920"
     inkscape:window-height="1001"
     inkscape:window-x="-9"
     inkscape:window-y="-9"
     inkscape:window-maximized="1"
     inkscape:current-layer="svg2" />
  <path
     d="M16 7.5a2.5 2.5 0 0 1-1.456 2.272 3.5 3.5 0 0 0-.65-.824 1.5 1.5 0 0 0-.789-2.896.5.5 0 0 1-.627-.421 3 3 0 0 0-5.22-1.625 5.6 5.6 0 0 0-1.276.088 4.002 4.002 0 0 1 7.392.91A2.5 2.5 0 0 1 16 7.5"
     id="path1"
     style="fill:#5599ff" />
  <path
     d="M7 5a4.5 4.5 0 0 1 4.473 4h.027a2.5 2.5 0 0 1 0 5H3a3 3 0 0 1-.247-5.99A4.5 4.5 0 0 1 7 5m3.5 4.5a3.5 3.5 0 0 0-6.89-.873.5.5 0 0 1-.51.375A2 2 0 1 0 3 13h8.5a1.5 1.5 0 1 0-.376-2.953.5.5 0 0 1-.624-.492z"
     id="path2"
     style="fill:#5599ff" />
</svg>
