<?xml version="1.0" encoding="UTF-8" standalone="no"?>
<svg
   width="16"
   height="16"
   fill="currentColor"
   class="bi bi-cloud-sun"
   viewBox="0 0 16 16"
   version="1.1"
   id="svg2"
   xmlns="http://www.w3.org/2000/svg"
   xmlns:svg="http://www.w3.org/2000/svg">
  <defs
     id="defs2" />
  <path
     d="m 7,8 a 3.5,3.5 0 0 1 3.5,3.555 0.5,0.5 0 0 0 0.624,0.492 A 1.503,1.503 0 0 1 13,13.5 1.5,1.5 0 0 1 11.5,15 H 3 A 2,2 0 1 1 3.1,11.002 0.5,0.5 0 0 0 3.61,10.627 3.5,3.5 0 0 1 7,8 m 4.473,3 A 4.5,4.5 0 0 0 2.753,10.01 3,3 0 0 0 3,16 h 8.5 a 2.5,2.5 0 0 0 0,-5 z"
     id="path1"
     style="fill:#5599ff" />
  <path
     d="M 10,1 C 9.9122855,0.99982328 9.8260649,1.0227256 9.75,1.0664062 9.673704,1.1103693 9.6103693,1.173704 9.5664063,1.25 9.5227256,1.3260649 9.4998233,1.4122855 9.5,1.5 v 1 C 9.4998233,2.587715 9.522726,2.6739351 9.566406,2.75 9.6103693,2.826296 9.673704,2.8896307 9.75,2.9335938 9.8260649,2.9772744 9.9122855,3.0001767 10,3 10.08771,3.0001767 10.173935,2.977274 10.25,2.933594 10.326296,2.8896307 10.389631,2.826296 10.433594,2.75 10.477274,2.6739351 10.500177,2.5877145 10.5,2.5 v -1 C 10.500177,1.4122855 10.477274,1.3260649 10.433594,1.25 10.389631,1.173704 10.326296,1.1103693 10.25,1.0664062 10.173935,1.0227256 10.087715,0.99982328 10,1 Z m 3.857422,1.6054688 c -0.03293,0.00242 -0.06559,0.00862 -0.09766,0.017578 -0.08552,0.024164 -0.163047,0.070683 -0.22461,0.1347656 l -0.707031,0.7070313 c -0.06163,0.061721 -0.106068,0.138476 -0.128906,0.2226562 -0.02286,0.085079 -0.02286,0.1746862 0,0.2597656 0.02252,0.084879 0.06698,0.1623421 0.128906,0.2246094 0.06227,0.061924 0.13973,0.1063813 0.224609,0.1289062 0.08508,0.022855 0.174687,0.022855 0.259766,0 0.08418,-0.022838 0.160935,-0.067275 0.222656,-0.1289062 l 0.707032,-0.7070312 c 0.06408,-0.061563 0.110601,-0.139095 0.134765,-0.2246094 0.02388,-0.085518 0.02455,-0.1758541 0.002,-0.2617188 C 14.357045,2.8922281 14.312543,2.8133387 14.25,2.75 14.186661,2.6874567 14.107772,2.642955 14.021484,2.6210938 13.967819,2.6069699 13.912312,2.601428 13.857422,2.6054688 Z m -7.7460939,0.011719 c -0.043004,3.283e-4 -0.085117,0.00616 -0.1269531,0.017578 -0.083492,0.023122 -0.1595464,0.067543 -0.2207031,0.1289063 -0.061363,0.061157 -0.1057842,0.1372109 -0.1289063,0.2207031 -0.022831,0.083673 -0.023504,0.1718481 -0.00195,0.2558594 0.02138,0.084483 0.064472,0.1619131 0.125,0.2246094 L 6.4648437,4.171875 C 6.5265649,4.2335058 6.60332,4.277943 6.6875,4.3007812 c 0.085079,0.022855 0.1746863,0.022855 0.2597656,0 C 7.0321446,4.2782562 7.1096078,4.2337992 7.171875,4.171875 7.233799,4.109608 7.2782563,4.0321445 7.3007812,3.9472656 c 0.022855,-0.085079 0.022855,-0.1746863 0,-0.2597656 C 7.277943,3.60332 7.2335058,3.5265649 7.171875,3.4648438 L 6.4648437,2.7578125 C 6.4021475,2.6972845 6.3247172,2.6541928 6.2402344,2.6328125 6.1982287,2.622037 6.1543317,2.6168592 6.1113281,2.6171878 Z M 9.9023438,4.0019531 C 9.6960716,4.0085585 9.4902396,4.0370181 9.2890625,4.0859375 8.9669317,4.1644179 8.660035,4.2957565 8.3808594,4.4746094 8.1018281,4.6533466 7.8543346,4.8770808 7.6484375,5.1367187 7.4462444,5.3930672 7.2872515,5.6807059 7.1777344,5.9882812 c 0.078297,0.00679 0.1564401,0.015258 0.234375,0.025391 0.00716,6.37e-4 0.014324,0.00129 0.021484,0.00195 0.086916,0.00679 0.1721463,0.016594 0.2578125,0.027344 0.033955,0.00426 0.067804,0.00879 0.1015625,0.013672 0.1064565,0.00928 0.212622,0.021658 0.3183594,0.037109 0.030677,0.00885 0.061278,0.017964 0.091797,0.027344 0.2916589,0.06266 0.5777549,0.1488805 0.8554688,0.2578125 0.3065467,0.1236885 0.6013543,0.2746876 0.8808593,0.4511719 0.2798051,0.1758821 0.5432361,0.3765601 0.7871101,0.5996094 0.243422,0.2230624 0.466323,0.4675347 0.666015,0.7304688 0.03548,0.054722 0.07,0.1100694 0.103516,0.1660156 0.01648,0.025257 0.03276,0.050648 0.04883,0.076172 0.03184,0.046507 0.0634,0.093195 0.09375,0.140625 0.0465,0.072666 0.09177,0.1478232 0.134766,0.2226562 0.0048,0.00837 0.0089,0.016993 0.01367,0.025391 0.04517,0.068677 0.0888,0.1383567 0.13086,0.2089844 0.03012,0.070359 0.05877,0.1413388 0.08594,0.2128906 0.002,0.00455 0.0039,0.00911 0.0059,0.013672 0.245728,-0.2221817 0.452961,-0.483533 0.613281,-0.7734375 0.160777,-0.2901605 0.272317,-0.6049816 0.330078,-0.9316406 0.05765,-0.325984 0.06095,-0.6592665 0.0098,-0.9863282 -0.05163,-0.3276245 -0.157227,-0.644424 -0.3125,-0.9375 C 12.495284,5.3046014 12.292666,5.0392839 12.050781,4.8125 11.808784,4.5860398 11.53093,4.4012436 11.228516,4.265625 10.926265,4.129448 10.60353,4.0443092 10.273438,4.0136719 10.149739,4.0022626 10.026107,3.9979899 9.9023438,4.0019531 Z M 14.5,6.5 C 14.41229,6.4998233 14.326065,6.522725 14.25,6.566406 14.173704,6.6103694 14.110369,6.6737037 14.066406,6.75 14.022725,6.8260652 13.999823,6.9122851 14,7 c -1.77e-4,0.087715 0.02272,0.1739348 0.06641,0.25 0.04396,0.076296 0.107298,0.1396306 0.183594,0.1835937 0.07606,0.043681 0.162285,0.066583 0.25,0.066406 h 1 c 0.08771,1.767e-4 0.173935,-0.022725 0.25,-0.066406 C 15.826296,7.3896306 15.889631,7.3262963 15.933594,7.25 15.977275,7.1739348 16.000177,7.0877149 16,7 16.000177,6.9122851 15.977275,6.8260652 15.933594,6.75 15.889631,6.6737037 15.826296,6.6103694 15.75,6.5664062 15.673935,6.5227254 15.587715,6.4998233 15.5,6.5 Z m -1.339844,3.1816406 c -0.06254,0.00232 -0.123715,0.015603 -0.18164,0.041016 -0.09224,0.041123 -0.169867,0.1092163 -0.222657,0.1953125 -0.0532,0.085995 -0.07908,0.1861029 -0.07422,0.2871089 0.075,0.02688 0.150104,0.05612 0.222656,0.08789 0.07255,0.03177 0.142993,0.0651 0.212891,0.101562 0.0699,0.03646 0.138041,0.07625 0.205078,0.117188 0.06704,0.04094 0.133297,0.08369 0.197265,0.128906 0.06397,0.04522 0.126807,0.09329 0.1875,0.142578 0.06069,0.04929 0.118571,0.0992 0.175782,0.152344 0.05721,0.05315 0.112494,0.109213 0.166015,0.166016 0.05352,0.0568 0.104672,0.115531 0.154297,0.175781 0.02727,-0.02207 0.05215,-0.04694 0.07422,-0.07422 0.0219,-0.02724 0.04088,-0.05669 0.05664,-0.08789 0.01642,-0.03109 0.02951,-0.06382 0.03906,-0.09766 0.0088,-0.03386 0.01405,-0.06856 0.01563,-0.103515 0.0016,-0.03462 -3.24e-4,-0.06931 -0.0059,-0.103516 -0.0055,-0.03472 -0.01468,-0.06876 -0.02734,-0.101563 -0.01242,-0.03213 -0.02813,-0.06289 -0.04687,-0.0918 -0.01918,-0.02961 -0.04144,-0.05711 -0.06641,-0.08203 L 13.535156,9.828125 C 13.463926,9.75653 13.372679,9.7081839 13.273438,9.6894531 c -0.03728,-0.00714 -0.07576,-0.0092 -0.113282,-0.00781 z"
     style="fill:#ffdd55"
     id="path4" />
</svg>
