<?xml version="1.0" encoding="UTF-8" standalone="no"?>
<svg
   width="16"
   height="16"
   fill="currentColor"
   class="bi bi-cloud-moon"
   viewBox="0 0 16 16"
   version="1.1"
   id="svg2"
   sodipodi:docname="cloud-moon.svg"
   inkscape:version="1.3 (0e150ed6c4, 2023-07-21)"
   xmlns:inkscape="http://www.inkscape.org/namespaces/inkscape"
   xmlns:sodipodi="http://sodipodi.sourceforge.net/DTD/sodipodi-0.dtd"
   xmlns="http://www.w3.org/2000/svg"
   xmlns:svg="http://www.w3.org/2000/svg">
  <defs
     id="defs2" />
  <sodipodi:namedview
     id="namedview2"
     pagecolor="#ffffff"
     bordercolor="#000000"
     borderopacity="0.25"
     inkscape:showpageshadow="2"
     inkscape:pageopacity="0.0"
     inkscape:pagecheckerboard="0"
     inkscape:deskcolor="#d1d1d1"
     inkscape:zoom="11.640625"
     inkscape:cx="-2.7919463"
     inkscape:cy="2.5342282"
     inkscape:window-width="1920"
     inkscape:window-height="1001"
     inkscape:window-x="-9"
     inkscape:window-y="-9"
     inkscape:window-maximized="1"
     inkscape:current-layer="svg2" />
  <path
     d="M7 8a3.5 3.5 0 0 1 3.5 3.555.5.5 0 0 0 .625.492A1.503 1.503 0 0 1 13 13.5a1.5 1.5 0 0 1-1.5 1.5H3a2 2 0 1 1 .1-3.998.5.5 0 0 0 .509-.375A3.5 3.5 0 0 1 7 8m4.473 3a4.5 4.5 0 0 0-8.72-.99A3 3 0 0 0 3 16h8.5a2.5 2.5 0 0 0 0-5z"
     id="path1"
     style="fill:#5599ff" />
  <path
     d="m 10.894531,1 c -0.05887,-0.002491 -0.117719,0.00544 -0.173828,0.023437 C 10.427429,1.1152957 10.144108,1.236345 9.875,1.3847656 9.6062664,1.5329182 9.3530481,1.7076192 9.1191406,1.90625 8.8853186,2.1051311 8.6720126,2.3269431 8.4824219,2.5683594 8.2928768,2.809737 8.1279903,3.0694987 7.9902344,3.34375 7.8518398,3.6178116 7.7412607,3.9050555 7.6601562,4.2011719 c -0.080277,0.2963006 -0.1306587,0.599902 -0.1503906,0.90625 -0.017363,0.2880414 -0.00755,0.5770797 0.029297,0.8632812 0.1956935,0.011849 0.3906267,0.034016 0.5839844,0.066406 0.1568866,0.039456 0.311982,0.085724 0.4648437,0.1386718 0.1669163,0.041825 0.3318071,0.091357 0.4941407,0.1484375 0.3092405,0.1248024 0.6066586,0.2771066 0.8886718,0.4550782 0.2826459,0.1782359 0.5486919,0.3815294 0.7949219,0.6074218 0.246267,0.2254161 0.471783,0.4725041 0.673828,0.7382813 0.202133,0.2660567 0.379933,0.5497523 0.53125,0.8476563 0.0026,0.00585 0.0052,0.011714 0.0078,0.017578 0.147581,0.2921303 0.269145,0.5966938 0.363281,0.9101562 0.0061,0.027949 0.01193,0.055945 0.01758,0.083984 0.264981,-0.012993 0.528338,-0.048935 0.787109,-0.1074219 0.280101,-0.065365 0.55344,-0.1569136 0.816407,-0.2734375 0.263407,-0.1173418 0.515172,-0.2592457 0.751953,-0.4238281 0.236291,-0.1638698 0.456662,-0.3495828 0.658203,-0.5546875 0.20229,-0.2056858 0.384738,-0.4299864 0.544922,-0.6699219 0.03198,-0.048976 0.05512,-0.1031834 0.06836,-0.1601562 0.01428,-0.057438 0.01825,-0.1169559 0.01172,-0.1757813 -0.0071,-0.057876 -0.0243,-0.1140617 -0.05078,-0.1660156 -0.02599,-0.052584 -0.06103,-0.1001848 -0.103516,-0.140625 -0.04341,-0.040456 -0.09367,-0.072863 -0.148437,-0.095703 -0.05392,-0.022872 -0.111431,-0.036094 -0.169922,-0.039063 -0.05876,-0.00312 -0.117601,0.00415 -0.173828,0.021484 -0.255789,0.080648 -0.519804,0.132403 -0.78711,0.1542969 -0.267686,0.021563 -0.536946,0.013046 -0.802734,-0.025391 C 13.495826,7.2896916 13.23508,7.2215571 12.984375,7.125 12.733615,7.0283521 12.494488,6.9038752 12.271484,6.7539062 12.048953,6.604094 11.843898,6.4298302 11.660156,6.234375 11.475829,6.0388939 11.31401,5.8233529 11.177734,5.5917969 11.042026,5.36059 10.932621,5.1149192 10.851563,4.859375 10.770252,4.6036633 10.717841,4.3396462 10.695313,4.0722656 c -0.02221,-0.2676127 -0.01435,-0.5368733 0.02344,-0.8027343 0.03717,-0.2657401 0.103995,-0.5264815 0.199219,-0.7773438 0.0959,-0.2513488 0.21972,-0.4911338 0.36914,-0.7148438 h -0.002 c 0.03267,-0.048839 0.05647,-0.1030543 0.07031,-0.1601562 0.01405,-0.05681 0.01802,-0.1156462 0.01172,-0.1738281 -0.0069,-0.058545 -0.02409,-0.1154106 -0.05078,-0.1679688 -0.02599,-0.052584 -0.06103,-0.1001847 -0.103515,-0.140625 -0.04341,-0.040456 -0.09367,-0.072863 -0.148438,-0.095703 C 11.010537,1.0161905 10.953022,1.0029686 10.894531,1 Z"
     style="fill:#2ad4ff"
     id="path4" />
</svg>
