<?xml version="1.0" encoding="UTF-8" standalone="no"?>
<svg
   width="16"
   height="16"
   fill="currentColor"
   class="bi bi-cloud-rain-heavy"
   viewBox="0 0 16 16"
   version="1.1"
   id="svg1"
   xmlns="http://www.w3.org/2000/svg"
   xmlns:svg="http://www.w3.org/2000/svg">
  <defs
     id="defs1" />
  <path
     d="m 3.9824219,11 c -0.021788,8.72e-4 -0.042827,0.0041 -0.064453,0.0078 -0.086667,0.01381 -0.1681733,0.05018 -0.2363282,0.105468 -0.067791,0.05588 -0.1196625,0.128634 -0.1503906,0.210938 l -1.5,4 c -0.03465,0.08329 -0.046123,0.174395 -0.033203,0.263672 0.01281,0.08872 0.049238,0.172372 0.1054687,0.242187 0.056215,0.0705 0.1304503,0.124492 0.2148438,0.15625 0.084189,0.03136 0.1752719,0.03946 0.2636719,0.02344 0.088336,-0.01631 0.1706478,-0.05612 0.2382812,-0.115235 0.068208,-0.05828 0.1194797,-0.133837 0.1484375,-0.21875 l 1.5,-4 c 0.010944,-0.03105 0.018795,-0.06311 0.023437,-0.0957 0.00579,-0.03222 0.00841,-0.06493 0.00781,-0.09766 -0.00146,-0.03227 -0.00603,-0.06432 -0.013672,-0.0957 -0.0073,-0.0322 -0.017763,-0.06361 -0.03125,-0.09375 -0.013511,-0.02951 -0.029865,-0.05764 -0.048828,-0.08399 -0.018994,-0.0268 -0.040583,-0.05166 -0.064453,-0.07422 C 4.3177272,11.11272 4.2915602,11.09309 4.2636692,11.07616 4.2359252,11.05832 4.2064852,11.04328 4.1757782,11.03124 4.113989,11.008518 4.0477861,10.997385 3.9824219,11 Z m 3,0 c -0.021788,8.72e-4 -0.042827,0.0041 -0.064453,0.0078 -0.086666,0.01381 -0.1681733,0.05018 -0.2363281,0.105468 -0.067791,0.05588 -0.1196625,0.128634 -0.1503906,0.210938 l -1.5,4 c -0.03465,0.08329 -0.046123,0.174395 -0.033203,0.263672 0.01281,0.08872 0.049238,0.172373 0.1054687,0.242187 0.056215,0.0705 0.1304504,0.124492 0.2148438,0.15625 0.084188,0.03136 0.1752721,0.03946 0.2636718,0.02344 0.088336,-0.01631 0.170648,-0.05612 0.2382813,-0.115235 0.068208,-0.05828 0.1194797,-0.133837 0.1484375,-0.21875 l 1.5,-4 c 0.010944,-0.03105 0.018795,-0.06311 0.023437,-0.0957 0.00579,-0.03222 0.00841,-0.06493 0.00781,-0.09766 -0.00146,-0.03227 -0.00603,-0.06432 -0.013672,-0.0957 -0.0073,-0.0322 -0.017763,-0.06361 -0.03125,-0.09375 -0.013511,-0.02951 -0.029865,-0.05764 -0.048828,-0.08399 -0.018994,-0.0268 -0.040583,-0.05166 -0.064453,-0.07422 C 7.3177273,11.11272 7.2915603,11.09309 7.2636693,11.07616 7.2359253,11.05832 7.2064853,11.04328 7.1757783,11.03124 7.1139892,11.008518 7.047786,10.997385 6.9824219,11 Z m 3,0 c -0.021788,8.72e-4 -0.042827,0.0041 -0.064453,0.0078 -0.086666,0.01381 -0.1681736,0.05018 -0.2363282,0.105468 -0.067791,0.05588 -0.1196626,0.128635 -0.1503906,0.210938 l -1.5,4 c -0.03465,0.08329 -0.046123,0.174396 -0.033203,0.263672 0.01281,0.08872 0.049238,0.172373 0.1054687,0.242187 0.056215,0.0705 0.1304506,0.124493 0.2148438,0.15625 0.084188,0.03136 0.1752722,0.03946 0.2636719,0.02344 0.088336,-0.01631 0.170648,-0.05612 0.2382812,-0.115235 0.068208,-0.05828 0.1194798,-0.133837 0.1484375,-0.21875 l 1.4999998,-4 c 0.01094,-0.03105 0.0188,-0.06311 0.02344,-0.0957 0.0058,-0.03222 0.0084,-0.06493 0.0078,-0.09766 -0.0015,-0.03227 -0.006,-0.06432 -0.01367,-0.0957 -0.0073,-0.0322 -0.01776,-0.06361 -0.03125,-0.09375 C 10.44156,11.26345 10.4252,11.23532 10.40624,11.20897 10.38725,11.18217 10.36566,11.15731 10.34179,11.13475 10.31772,11.11272 10.29156,11.09309 10.26366,11.07616 10.23592,11.05832 10.20648,11.04328 10.17577,11.03124 10.113989,11.008518 10.047786,10.997385 9.9824219,11 Z m 3.0000001,0 c -0.02179,8.72e-4 -0.04283,0.0041 -0.06445,0.0078 -0.08667,0.01381 -0.168174,0.05018 -0.236328,0.105468 -0.06779,0.05588 -0.119663,0.128635 -0.150391,0.210938 l -1.5,4 c -0.02701,0.08187 -0.03239,0.169339 -0.01563,0.253906 0.01655,0.08361 0.0542,0.161599 0.109375,0.226563 0.05527,0.06581 0.126579,0.11626 0.207031,0.146484 0.07981,0.02961 0.165865,0.03835 0.25,0.02539 0.08473,-0.01274 0.164763,-0.04704 0.232422,-0.09961 0.06786,-0.05269 0.121002,-0.121972 0.154297,-0.201172 l 1.5,-4 c 0.01094,-0.03105 0.0188,-0.06311 0.02344,-0.0957 0.0058,-0.03222 0.0084,-0.06493 0.0078,-0.09766 -0.0015,-0.03227 -0.006,-0.06432 -0.01367,-0.0957 -0.0073,-0.0322 -0.01776,-0.06361 -0.03125,-0.09375 -0.01351,-0.02951 -0.02987,-0.05764 -0.04883,-0.08399 -0.01899,-0.0268 -0.04058,-0.05166 -0.06445,-0.07422 -0.02407,-0.02203 -0.05023,-0.04166 -0.07813,-0.05859 -0.02774,-0.01784 -0.05718,-0.03288 -0.08789,-0.04492 C 13.113989,11.008518 13.047786,10.997385 12.982422,11 Z"
     style="fill:#0000ff"
     id="path3" />
  <path
     d="M 8.1191406,0.01367188 A 5.001,5.001 0 0 0 7.2265625,0.1640625 5.001,5.001 0 0 0 6.375,0.47265625 5.001,5.001 0 0 0 5.59375,0.9296875 5.001,5.001 0 0 0 4.90625,1.5214844 5.001,5.001 0 0 0 4.3378906,2.2265625 5.001,5.001 0 0 0 3.90625,3.0234375 3.5,3.5 0 0 0 3.1484375,3.0175781 3.5,3.5 0 0 0 2.40625,3.1777344 3.5,3.5 0 0 0 1.7167969,3.4921875 3.5,3.5 0 0 0 1.1113281,3.9472656 3.5,3.5 0 0 0 0.6171875,4.5214844 3.5,3.5 0 0 0 0.25976563,5.1894531 3.5,3.5 0 0 0 0.0546875,5.9199219 3.5,3.5 0 0 0 0.00976563,6.6757812 3.5,3.5 0 0 0 0.12890625,7.4238281 3.5,3.5 0 0 0 0.40820313,8.1289063 3.5,3.5 0 0 0 0.83203125,8.7578125 3.5,3.5 0 0 0 1.3808594,9.28125 3.5,3.5 0 0 0 2.0292969,9.6738281 3.5,3.5 0 0 0 2.7460938,9.9160156 3.5,3.5 0 0 0 3.5,10 H 13 A 3,3 0 0 0 13.640625,9.9316406 3,3 0 0 0 14.25,9.7285156 3,3 0 0 0 14.802734,9.4003906 3,3 0 0 0 15.273438,8.9609375 3,3 0 0 0 15.640625,8.4316406 3,3 0 0 0 15.884766,7.8359375 3,3 0 0 0 15.996094,7.203125 3,3 0 0 0 15.970703,6.5605469 3,3 0 0 0 15.808594,5.9375 3,3 0 0 0 15.517578,5.3632812 3,3 0 0 0 15.111328,4.8652344 3,3 0 0 0 14.607422,4.4648437 3,3 0 0 0 14.029297,4.1816406 3,3 0 0 0 13.404297,4.0273437 5.001,5.001 0 0 0 13.148438,3.1582031 5.001,5.001 0 0 0 12.740234,2.3496094 5.001,5.001 0 0 0 12.193359,1.6289062 5.001,5.001 0 0 0 11.523438,1.0175781 5.001,5.001 0 0 0 10.755859,0.53710937 5.001,5.001 0 0 0 9.9140625,0.203125 5.001,5.001 0 0 0 9.0253906,0.02734375 5.001,5.001 0 0 0 8.1191406,0.01367188 Z M 8.5,1 a 4,4 0 0 1 0.828125,0.085937 4,4 0 0 1 0.792969,0.2558594 4,4 0 0 1 0.720703,0.4160156 4,4 0 0 1 0.621094,0.5546875 4,4 0 0 1 0.492187,0.6699219 4,4 0 0 1 0.341797,0.7597656 4,4 0 0 1 0.179688,0.8125 0.5,0.5 0 0 0 0.08398,0.2265625 A 0.5,0.5 0 0 0 12.74023,4.9433589 0.5,0.5 0 0 0 12.976563,5 H 13 a 2,2 0 0 1 0.5625,0.080078 2,2 0 0 1 0.519531,0.2382813 2,2 0 0 1 0.429688,0.3710937 2,2 0 0 1 0.30664,0.4804688 2,2 0 0 1 0.16211,0.5449218 2,2 0 0 1 0,0.5703125 2,2 0 0 1 -0.16211,0.5449219 2,2 0 0 1 -0.30664,0.4804688 A 2,2 0 0 1 14.082031,8.6816406 2,2 0 0 1 13.5625,8.9199219 2,2 0 0 1 13,9 H 3.5 A 2.5,2.5 0 0 1 2.8554688,8.9160156 2.5,2.5 0 0 1 2.2558594,8.6679688 2.5,2.5 0 0 1 1.7402344,8.2734375 2.5,2.5 0 0 1 1.3417969,7.7617187 2.5,2.5 0 0 1 1.0898437,7.1621094 2.5,2.5 0 0 1 1.0019531,6.5195312 2.5,2.5 0 0 1 1.0800781,5.875 2.5,2.5 0 0 1 1.3222656,5.2734375 2.5,2.5 0 0 1 1.7128906,4.7539062 2.5,2.5 0 0 1 2.2226563,4.3515625 2.5,2.5 0 0 1 2.8183594,4.0957031 2.5,2.5 0 0 1 3.4609375,4 2.5,2.5 0 0 1 4.1054687,4.0742187 0.5,0.5 0 0 0 4.3515625,4.0722656 0.5,0.5 0 0 0 4.5683594,3.953125 0.5,0.5 0 0 0 4.7011719,3.7441406 4,4 0 0 1 5.0429687,2.9863281 4,4 0 0 1 5.5351562,2.3125 4,4 0 0 1 6.15625,1.7578125 4,4 0 0 1 6.8789062,1.34375 4,4 0 0 1 7.671875,1.0859375 4,4 0 0 1 8.5,1 Z"
     style="fill:#5599ff"
     id="path2" />
</svg>
