<?xml version="1.0" encoding="UTF-8" standalone="no"?>
<svg
   width="16"
   height="16"
   fill="currentColor"
   class="bi bi-cloud-rain"
   viewBox="0 0 16 16"
   version="1.1"
   id="svg1"
   xmlns="http://www.w3.org/2000/svg"
   xmlns:svg="http://www.w3.org/2000/svg">
  <defs
     id="defs1" />
  <path
     d="M 8.1191406,1.0136719 A 5.001,5.001 0 0 0 7.2265625,1.1640625 5.001,5.001 0 0 0 6.375,1.4726562 5.001,5.001 0 0 0 5.59375,1.9296875 5.001,5.001 0 0 0 4.90625,2.5214844 5.001,5.001 0 0 0 4.3378906,3.2265625 5.001,5.001 0 0 0 3.90625,4.0234375 3.5,3.5 0 0 0 3.1484375,4.0175781 3.5,3.5 0 0 0 2.40625,4.1777344 3.5,3.5 0 0 0 1.7167969,4.4921875 3.5,3.5 0 0 0 1.1113281,4.9472656 3.5,3.5 0 0 0 0.6171875,5.5214844 3.5,3.5 0 0 0 0.25976563,6.1894531 3.5,3.5 0 0 0 0.0546875,6.9199219 3.5,3.5 0 0 0 0.00976563,7.6757812 3.5,3.5 0 0 0 0.12890625,8.4238281 3.5,3.5 0 0 0 0.40820313,9.1289063 3.5,3.5 0 0 0 0.83203125,9.7578125 3.5,3.5 0 0 0 1.3808594,10.28125 3.5,3.5 0 0 0 2.0292969,10.673828 3.5,3.5 0 0 0 2.7460938,10.916016 3.5,3.5 0 0 0 3.5,11 H 13 A 3,3 0 0 0 13.640625,10.931641 3,3 0 0 0 14.25,10.728516 3,3 0 0 0 14.802734,10.400391 3,3 0 0 0 15.273438,9.9609375 3,3 0 0 0 15.640625,9.4316406 3,3 0 0 0 15.884766,8.8359375 3,3 0 0 0 15.996094,8.203125 3,3 0 0 0 15.970703,7.5605469 3,3 0 0 0 15.808594,6.9375 3,3 0 0 0 15.517578,6.3632812 3,3 0 0 0 15.111328,5.8652344 3,3 0 0 0 14.607422,5.4648437 3,3 0 0 0 14.029297,5.1816406 3,3 0 0 0 13.404297,5.0273437 5.001,5.001 0 0 0 13.148438,4.1582031 5.001,5.001 0 0 0 12.740234,3.3496094 5.001,5.001 0 0 0 12.193359,2.6289063 5.001,5.001 0 0 0 11.523438,2.0175781 5.001,5.001 0 0 0 10.755859,1.5371094 5.001,5.001 0 0 0 9.9140625,1.203125 5.001,5.001 0 0 0 9.0253906,1.0273437 5.001,5.001 0 0 0 8.1191406,1.0136719 Z M 8.5,2 a 4,4 0 0 1 0.828125,0.085937 4,4 0 0 1 0.792969,0.2558594 4,4 0 0 1 0.720703,0.4160156 4,4 0 0 1 0.621094,0.5546875 4,4 0 0 1 0.492187,0.6699219 4,4 0 0 1 0.341797,0.7597656 4,4 0 0 1 0.179688,0.8125 0.5,0.5 0 0 0 0.08398,0.2265625 A 0.5,0.5 0 0 0 12.74023,5.9433589 0.5,0.5 0 0 0 12.976563,6 H 13 a 2,2 0 0 1 0.5625,0.080078 2,2 0 0 1 0.519531,0.2382813 2,2 0 0 1 0.429688,0.3710937 2,2 0 0 1 0.30664,0.4804688 2,2 0 0 1 0.16211,0.5449218 2,2 0 0 1 0,0.5703126 2,2 0 0 1 -0.16211,0.5449218 2,2 0 0 1 -0.30664,0.4804688 A 2,2 0 0 1 14.082031,9.6816406 2,2 0 0 1 13.5625,9.9199219 2,2 0 0 1 13,10 H 3.5 A 2.5,2.5 0 0 1 2.8554688,9.9160156 2.5,2.5 0 0 1 2.2558594,9.6679688 2.5,2.5 0 0 1 1.7402344,9.2734375 2.5,2.5 0 0 1 1.3417969,8.7617188 2.5,2.5 0 0 1 1.0898437,8.1621094 2.5,2.5 0 0 1 1.0019531,7.5195312 2.5,2.5 0 0 1 1.0800781,6.875 2.5,2.5 0 0 1 1.3222656,6.2734375 2.5,2.5 0 0 1 1.7128906,5.7539062 2.5,2.5 0 0 1 2.2226563,5.3515625 2.5,2.5 0 0 1 2.8183594,5.0957031 2.5,2.5 0 0 1 3.4609375,5 2.5,2.5 0 0 1 4.1054687,5.0742187 0.5,0.5 0 0 0 4.3515625,5.0722656 0.5,0.5 0 0 0 4.5683594,4.953125 0.5,0.5 0 0 0 4.7011719,4.7441406 4,4 0 0 1 5.0429687,3.9863281 4,4 0 0 1 5.5351562,3.3125 4,4 0 0 1 6.15625,2.7578125 4,4 0 0 1 6.8789062,2.34375 4,4 0 0 1 7.671875,2.0859375 4,4 0 0 1 8.5,2 Z"
     style="fill:#5599ff"
     id="path3" />
  <path
     d="m 8.2946236,12.374497 c -0.02179,8.72e-4 -0.04283,0.0041 -0.06445,0.0078 -0.02167,0.0035 -0.04356,0.0075 -0.06445,0.01367 -0.02089,0.0062 -0.04068,0.01457 -0.06055,0.02344 -0.01987,0.0089 -0.04001,0.01985 -0.05859,0.03125 -0.01858,0.0114 -0.0357,0.02329 -0.05273,0.03711 -0.01695,0.01397 -0.032,0.02896 -0.04687,0.04492 -0.01488,0.01596 -0.03033,0.03305 -0.04297,0.05078 -0.01264,0.01773 -0.02296,0.03542 -0.0332,0.05469 -0.01024,0.01927 -0.02734,0.06055 -0.02734,0.06055 L 7.4348996,16 8.7809486,13.050377 c 0,0 0.0188,-0.06311 0.02344,-0.0957 0.0058,-0.03222 0.0084,-0.06493 0.0078,-0.09766 -0.0015,-0.03227 -0.006,-0.06432 -0.01367,-0.0957 -0.0073,-0.0322 -0.01776,-0.06361 -0.03125,-0.09375 -0.01351,-0.02951 -0.02987,-0.05763 -0.04883,-0.08399 -0.01899,-0.0268 -0.04058,-0.05166 -0.06445,-0.07422 -0.02407,-0.02203 -0.05023,-0.04166 -0.07813,-0.05859 -0.02774,-0.01784 -0.05718,-0.03288 -0.08789,-0.04492 -0.0309,-0.01136 -0.06326,-0.02009 -0.0957,-0.02539 -0.03245,-0.0053 -0.06497,-0.0072 -0.09766,-0.0059 z"
     style="fill:#ff0000"
     id="path5-6" />
  <path
     d="m 10.399322,12.374497 c -0.02179,8.72e-4 -0.04283,0.0041 -0.06445,0.0078 -0.02167,0.0035 -0.04356,0.0075 -0.06445,0.01367 -0.02089,0.0062 -0.04068,0.01457 -0.06055,0.02344 -0.01987,0.0089 -0.04001,0.01985 -0.05859,0.03125 -0.01858,0.0114 -0.0357,0.02329 -0.05273,0.03711 -0.01695,0.01397 -0.032,0.02896 -0.04687,0.04492 -0.01488,0.01596 -0.03033,0.03305 -0.04297,0.05078 -0.01264,0.01773 -0.02296,0.03542 -0.0332,0.05469 -0.01024,0.01927 -0.02734,0.06055 -0.02734,0.06055 l -0.3011914,1.991226 1.2386654,-1.639556 c 0,0 0.0188,-0.06311 0.02344,-0.0957 0.0058,-0.03222 0.0084,-0.06493 0.0078,-0.09766 -0.0015,-0.03227 -0.006,-0.06432 -0.01367,-0.0957 -0.0073,-0.0322 -0.01776,-0.06361 -0.03125,-0.09375 -0.01351,-0.02951 -0.02987,-0.05763 -0.04883,-0.08399 -0.01899,-0.0268 -0.04058,-0.05166 -0.06445,-0.07422 -0.02407,-0.02203 -0.05023,-0.04166 -0.07813,-0.05859 -0.02774,-0.01784 -0.05718,-0.03288 -0.08789,-0.04492 -0.0309,-0.01136 -0.06326,-0.02009 -0.0957,-0.02539 -0.03245,-0.0053 -0.06497,-0.0072 -0.09766,-0.0059 z"
     style="fill:#ff0000"
     id="path1" />
  <path
     d="m 6.146973,12.374497 c -0.02179,8.72e-4 -0.04283,0.0041 -0.06445,0.0078 -0.02167,0.0035 -0.04356,0.0075 -0.06445,0.01367 -0.02089,0.0062 -0.04068,0.01457 -0.06055,0.02344 -0.01987,0.0089 -0.04001,0.01985 -0.05859,0.03125 -0.01858,0.0114 -0.0357,0.02329 -0.05273,0.03711 -0.01695,0.01397 -0.032,0.02896 -0.04687,0.04492 -0.01488,0.01596 -0.03033,0.03305 -0.04297,0.05078 -0.01264,0.01773 -0.02296,0.03542 -0.0332,0.05469 -0.01024,0.01927 -0.02734,0.06055 -0.02734,0.06055 l -0.3011914,1.991226 1.2386658,-1.639556 c 0,0 0.0188,-0.06311 0.02344,-0.0957 0.0058,-0.03222 0.0084,-0.06493 0.0078,-0.09766 -0.0015,-0.03227 -0.006,-0.06432 -0.01367,-0.0957 -0.0073,-0.0322 -0.01776,-0.06361 -0.03125,-0.09375 -0.01351,-0.02951 -0.02987,-0.05763 -0.04883,-0.08399 -0.01899,-0.0268 -0.04058,-0.05166 -0.06445,-0.07422 -0.02407,-0.02203 -0.05023,-0.04166 -0.07813,-0.05859 -0.02774,-0.01784 -0.05718,-0.03288 -0.08789,-0.04492 -0.0309,-0.01136 -0.06326,-0.02009 -0.0957,-0.02539 -0.03245,-0.0053 -0.06497,-0.0072 -0.09766,-0.0059 z"
     style="fill:#ff0000"
     id="path2" />
</svg>
