<?xml version="1.0" encoding="UTF-8" standalone="no"?>
<svg
   width="16"
   height="16"
   fill="currentColor"
   class="bi bi-cloud-rain-heavy"
   viewBox="0 0 16 16"
   version="1.1"
   id="svg1"
   xmlns="http://www.w3.org/2000/svg"
   xmlns:svg="http://www.w3.org/2000/svg">
  <defs
     id="defs1" />
  <path
     d="m 3.9824219,11 c -0.021788,8.72e-4 -0.042827,0.0041 -0.064453,0.0078 -0.021667,0.0035 -0.04356,0.0075 -0.064453,0.01367 -0.020894,0.0062 -0.040682,0.01457 -0.060547,0.02344 -0.019865,0.0089 -0.040014,0.01985 -0.058594,0.03125 -0.01858,0.0114 -0.035696,0.02329 -0.052734,0.03711 -0.016948,0.01397 -0.031999,0.02896 -0.046875,0.04492 -0.014876,0.01596 -0.030327,0.03305 -0.042969,0.05078 -0.012641,0.01773 -0.02296,0.03542 -0.033203,0.05469 -0.010243,0.01927 -0.027344,0.06055 -0.027344,0.06055 L 2.5857848,16 4.4687469,11.67588 c 0,0 0.018796,-0.06311 0.023437,-0.0957 0.00579,-0.03222 0.00841,-0.06493 0.00781,-0.09766 -0.00146,-0.03227 -0.00603,-0.06432 -0.013672,-0.0957 -0.0073,-0.0322 -0.017763,-0.06361 -0.03125,-0.09375 -0.013511,-0.02951 -0.029865,-0.05763 -0.048828,-0.08399 -0.018994,-0.0268 -0.040583,-0.05166 -0.064453,-0.07422 -0.024067,-0.02203 -0.050234,-0.04166 -0.078125,-0.05859 -0.027744,-0.01784 -0.057184,-0.03288 -0.087891,-0.04492 -0.030895,-0.01136 -0.063258,-0.02009 -0.095703,-0.02539 -0.032445,-0.0053 -0.064974,-0.0072 -0.097656,-0.0059 z"
     style="fill:#ff0000"
     id="path1" />
  <path
     d="M 8.1191406,0.01367188 A 5.001,5.001 0 0 0 7.2265625,0.1640625 5.001,5.001 0 0 0 6.375,0.47265625 5.001,5.001 0 0 0 5.59375,0.9296875 5.001,5.001 0 0 0 4.90625,1.5214844 5.001,5.001 0 0 0 4.3378906,2.2265625 5.001,5.001 0 0 0 3.90625,3.0234375 3.5,3.5 0 0 0 3.1484375,3.0175781 3.5,3.5 0 0 0 2.40625,3.1777344 3.5,3.5 0 0 0 1.7167969,3.4921875 3.5,3.5 0 0 0 1.1113281,3.9472656 3.5,3.5 0 0 0 0.6171875,4.5214844 3.5,3.5 0 0 0 0.25976563,5.1894531 3.5,3.5 0 0 0 0.0546875,5.9199219 3.5,3.5 0 0 0 0.00976563,6.6757812 3.5,3.5 0 0 0 0.12890625,7.4238281 3.5,3.5 0 0 0 0.40820313,8.1289063 3.5,3.5 0 0 0 0.83203125,8.7578125 3.5,3.5 0 0 0 1.3808594,9.28125 3.5,3.5 0 0 0 2.0292969,9.6738281 3.5,3.5 0 0 0 2.7460938,9.9160156 3.5,3.5 0 0 0 3.5,10 H 13 A 3,3 0 0 0 13.640625,9.9316406 3,3 0 0 0 14.25,9.7285156 3,3 0 0 0 14.802734,9.4003906 3,3 0 0 0 15.273438,8.9609375 3,3 0 0 0 15.640625,8.4316406 3,3 0 0 0 15.884766,7.8359375 3,3 0 0 0 15.996094,7.203125 3,3 0 0 0 15.970703,6.5605469 3,3 0 0 0 15.808594,5.9375 3,3 0 0 0 15.517578,5.3632812 3,3 0 0 0 15.111328,4.8652344 3,3 0 0 0 14.607422,4.4648437 3,3 0 0 0 14.029297,4.1816406 3,3 0 0 0 13.404297,4.0273437 5.001,5.001 0 0 0 13.148438,3.1582031 5.001,5.001 0 0 0 12.740234,2.3496094 5.001,5.001 0 0 0 12.193359,1.6289062 5.001,5.001 0 0 0 11.523438,1.0175781 5.001,5.001 0 0 0 10.755859,0.53710937 5.001,5.001 0 0 0 9.9140625,0.203125 5.001,5.001 0 0 0 9.0253906,0.02734375 5.001,5.001 0 0 0 8.1191406,0.01367188 Z M 8.5,1 a 4,4 0 0 1 0.828125,0.085937 4,4 0 0 1 0.792969,0.2558594 4,4 0 0 1 0.720703,0.4160156 4,4 0 0 1 0.621094,0.5546875 4,4 0 0 1 0.492187,0.6699219 4,4 0 0 1 0.341797,0.7597656 4,4 0 0 1 0.179688,0.8125 0.5,0.5 0 0 0 0.08398,0.2265625 A 0.5,0.5 0 0 0 12.74023,4.9433589 0.5,0.5 0 0 0 12.976563,5 H 13 a 2,2 0 0 1 0.5625,0.080078 2,2 0 0 1 0.519531,0.2382813 2,2 0 0 1 0.429688,0.3710937 2,2 0 0 1 0.30664,0.4804688 2,2 0 0 1 0.16211,0.5449218 2,2 0 0 1 0,0.5703125 2,2 0 0 1 -0.16211,0.5449219 2,2 0 0 1 -0.30664,0.4804688 A 2,2 0 0 1 14.082031,8.6816406 2,2 0 0 1 13.5625,8.9199219 2,2 0 0 1 13,9 H 3.5 A 2.5,2.5 0 0 1 2.8554688,8.9160156 2.5,2.5 0 0 1 2.2558594,8.6679688 2.5,2.5 0 0 1 1.7402344,8.2734375 2.5,2.5 0 0 1 1.3417969,7.7617187 2.5,2.5 0 0 1 1.0898437,7.1621094 2.5,2.5 0 0 1 1.0019531,6.5195312 2.5,2.5 0 0 1 1.0800781,5.875 2.5,2.5 0 0 1 1.3222656,5.2734375 2.5,2.5 0 0 1 1.7128906,4.7539062 2.5,2.5 0 0 1 2.2226563,4.3515625 2.5,2.5 0 0 1 2.8183594,4.0957031 2.5,2.5 0 0 1 3.4609375,4 2.5,2.5 0 0 1 4.1054687,4.0742187 0.5,0.5 0 0 0 4.3515625,4.0722656 0.5,0.5 0 0 0 4.5683594,3.953125 0.5,0.5 0 0 0 4.7011719,3.7441406 4,4 0 0 1 5.0429687,2.9863281 4,4 0 0 1 5.5351562,2.3125 4,4 0 0 1 6.15625,1.7578125 4,4 0 0 1 6.8789062,1.34375 4,4 0 0 1 7.671875,1.0859375 4,4 0 0 1 8.5,1 Z"
     style="fill:#5599ff"
     id="path2" />
  <path
     d="m 6.6074219,11 c -0.021788,8.72e-4 -0.042827,0.0041 -0.064453,0.0078 -0.021667,0.0035 -0.04356,0.0075 -0.064453,0.01367 -0.020894,0.0062 -0.040682,0.01457 -0.060547,0.02344 -0.019865,0.0089 -0.040014,0.01985 -0.058594,0.03125 -0.01858,0.0114 -0.035696,0.02329 -0.052734,0.03711 -0.016948,0.01397 -0.031999,0.02896 -0.046875,0.04492 -0.014876,0.01596 -0.030327,0.03305 -0.042969,0.05078 -0.012641,0.01773 -0.02296,0.03542 -0.033203,0.05469 -0.010243,0.01927 -0.027344,0.06055 -0.027344,0.06055 L 5.2107848,16 7.0937469,11.67588 c 0,0 0.018796,-0.06311 0.023437,-0.0957 0.00579,-0.03222 0.00841,-0.06493 0.00781,-0.09766 -0.00146,-0.03227 -0.00603,-0.06432 -0.013672,-0.0957 -0.0073,-0.0322 -0.017763,-0.06361 -0.03125,-0.09375 -0.013511,-0.02951 -0.029865,-0.05763 -0.048828,-0.08399 -0.018994,-0.0268 -0.040583,-0.05166 -0.064453,-0.07422 -0.024067,-0.02203 -0.050234,-0.04166 -0.078125,-0.05859 -0.027744,-0.01784 -0.057184,-0.03288 -0.087891,-0.04492 -0.030895,-0.01136 -0.063258,-0.02009 -0.095703,-0.02539 -0.032445,-0.0053 -0.064974,-0.0072 -0.097656,-0.0059 z"
     style="fill:#ff0000"
     id="path3" />
  <path
     d="m 9.3966371,11 c -0.021788,8.72e-4 -0.042827,0.0041 -0.064453,0.0078 -0.021667,0.0035 -0.04356,0.0075 -0.064453,0.01367 -0.020894,0.0062 -0.040682,0.01457 -0.060547,0.02344 -0.019865,0.0089 -0.040014,0.01985 -0.058594,0.03125 -0.01858,0.0114 -0.035696,0.02329 -0.052734,0.03711 -0.016948,0.01397 -0.031999,0.02896 -0.046875,0.04492 -0.014876,0.01596 -0.030327,0.03305 -0.042969,0.05078 -0.012641,0.01773 -0.02296,0.03542 -0.033203,0.05469 -0.010243,0.01927 -0.027344,0.06055 -0.027344,0.06055 L 8,16 9.8829621,11.67588 c 0,0 0.018796,-0.06311 0.023437,-0.0957 0.00579,-0.03222 0.00841,-0.06493 0.00781,-0.09766 -0.00146,-0.03227 -0.00603,-0.06432 -0.013672,-0.0957 -0.0073,-0.0322 -0.017763,-0.06361 -0.03125,-0.09375 -0.013511,-0.02951 -0.029865,-0.05763 -0.048828,-0.08399 -0.018994,-0.0268 -0.040583,-0.05166 -0.064453,-0.07422 -0.024067,-0.02203 -0.050234,-0.04166 -0.078125,-0.05859 -0.027744,-0.01784 -0.057184,-0.03288 -0.087891,-0.04492 -0.030895,-0.01136 -0.063258,-0.02009 -0.095703,-0.02539 -0.032445,-0.0053 -0.064974,-0.0072 -0.097656,-0.0059 z"
     style="fill:#ff0000"
     id="path4" />
  <path
     d="m 12.185852,11 c -0.02179,8.72e-4 -0.04283,0.0041 -0.06445,0.0078 -0.02167,0.0035 -0.04356,0.0075 -0.06445,0.01367 -0.02089,0.0062 -0.04068,0.01457 -0.06055,0.02344 -0.01987,0.0089 -0.04001,0.01985 -0.05859,0.03125 -0.01858,0.0114 -0.0357,0.02329 -0.05273,0.03711 -0.01695,0.01397 -0.032,0.02896 -0.04687,0.04492 -0.01488,0.01596 -0.03033,0.03305 -0.04297,0.05078 -0.01264,0.01773 -0.02296,0.03542 -0.0332,0.05469 -0.01024,0.01927 -0.02734,0.06055 -0.02734,0.06055 L 10.789215,16 12.672177,11.67588 c 0,0 0.0188,-0.06311 0.02344,-0.0957 0.0058,-0.03222 0.0084,-0.06493 0.0078,-0.09766 -0.0015,-0.03227 -0.006,-0.06432 -0.01367,-0.0957 -0.0073,-0.0322 -0.01776,-0.06361 -0.03125,-0.09375 -0.01351,-0.02951 -0.02987,-0.05763 -0.04883,-0.08399 -0.01899,-0.0268 -0.04058,-0.05166 -0.06445,-0.07422 -0.02407,-0.02203 -0.05023,-0.04166 -0.07813,-0.05859 -0.02774,-0.01784 -0.05718,-0.03288 -0.08789,-0.04492 -0.0309,-0.01136 -0.06326,-0.02009 -0.0957,-0.02539 -0.03245,-0.0053 -0.06497,-0.0072 -0.09766,-0.0059 z"
     style="fill:#ff0000"
     id="path5" />
</svg>
