<?xml version="1.0" encoding="UTF-8" standalone="no"?>
<svg
   width="16"
   height="16"
   fill="currentColor"
   class="bi bi-cloud-rain"
   viewBox="0 0 16 16"
   version="1.1"
   id="svg1"
   xmlns="http://www.w3.org/2000/svg"
   xmlns:svg="http://www.w3.org/2000/svg">
  <defs
     id="defs1" />
  <path
     d="M 8.1191406,1.0136719 A 5.001,5.001 0 0 0 7.2265625,1.1640625 5.001,5.001 0 0 0 6.375,1.4726562 5.001,5.001 0 0 0 5.59375,1.9296875 5.001,5.001 0 0 0 4.90625,2.5214844 5.001,5.001 0 0 0 4.3378906,3.2265625 5.001,5.001 0 0 0 3.90625,4.0234375 3.5,3.5 0 0 0 3.1484375,4.0175781 3.5,3.5 0 0 0 2.40625,4.1777344 3.5,3.5 0 0 0 1.7167969,4.4921875 3.5,3.5 0 0 0 1.1113281,4.9472656 3.5,3.5 0 0 0 0.6171875,5.5214844 3.5,3.5 0 0 0 0.25976563,6.1894531 3.5,3.5 0 0 0 0.0546875,6.9199219 3.5,3.5 0 0 0 0.00976563,7.6757812 3.5,3.5 0 0 0 0.12890625,8.4238281 3.5,3.5 0 0 0 0.40820313,9.1289063 3.5,3.5 0 0 0 0.83203125,9.7578125 3.5,3.5 0 0 0 1.3808594,10.28125 3.5,3.5 0 0 0 2.0292969,10.673828 3.5,3.5 0 0 0 2.7460938,10.916016 3.5,3.5 0 0 0 3.5,11 H 13 A 3,3 0 0 0 13.640625,10.931641 3,3 0 0 0 14.25,10.728516 3,3 0 0 0 14.802734,10.400391 3,3 0 0 0 15.273438,9.9609375 3,3 0 0 0 15.640625,9.4316406 3,3 0 0 0 15.884766,8.8359375 3,3 0 0 0 15.996094,8.203125 3,3 0 0 0 15.970703,7.5605469 3,3 0 0 0 15.808594,6.9375 3,3 0 0 0 15.517578,6.3632812 3,3 0 0 0 15.111328,5.8652344 3,3 0 0 0 14.607422,5.4648437 3,3 0 0 0 14.029297,5.1816406 3,3 0 0 0 13.404297,5.0273437 5.001,5.001 0 0 0 13.148438,4.1582031 5.001,5.001 0 0 0 12.740234,3.3496094 5.001,5.001 0 0 0 12.193359,2.6289063 5.001,5.001 0 0 0 11.523438,2.0175781 5.001,5.001 0 0 0 10.755859,1.5371094 5.001,5.001 0 0 0 9.9140625,1.203125 5.001,5.001 0 0 0 9.0253906,1.0273437 5.001,5.001 0 0 0 8.1191406,1.0136719 Z M 8.5,2 a 4,4 0 0 1 0.828125,0.085937 4,4 0 0 1 0.792969,0.2558594 4,4 0 0 1 0.720703,0.4160156 4,4 0 0 1 0.621094,0.5546875 4,4 0 0 1 0.492187,0.6699219 4,4 0 0 1 0.341797,0.7597656 4,4 0 0 1 0.179688,0.8125 0.5,0.5 0 0 0 0.08398,0.2265625 A 0.5,0.5 0 0 0 12.74023,5.9433589 0.5,0.5 0 0 0 12.976563,6 H 13 a 2,2 0 0 1 0.5625,0.080078 2,2 0 0 1 0.519531,0.2382813 2,2 0 0 1 0.429688,0.3710937 2,2 0 0 1 0.30664,0.4804688 2,2 0 0 1 0.16211,0.5449218 2,2 0 0 1 0,0.5703126 2,2 0 0 1 -0.16211,0.5449218 2,2 0 0 1 -0.30664,0.4804688 A 2,2 0 0 1 14.082031,9.6816406 2,2 0 0 1 13.5625,9.9199219 2,2 0 0 1 13,10 H 3.5 A 2.5,2.5 0 0 1 2.8554688,9.9160156 2.5,2.5 0 0 1 2.2558594,9.6679688 2.5,2.5 0 0 1 1.7402344,9.2734375 2.5,2.5 0 0 1 1.3417969,8.7617188 2.5,2.5 0 0 1 1.0898437,8.1621094 2.5,2.5 0 0 1 1.0019531,7.5195312 2.5,2.5 0 0 1 1.0800781,6.875 2.5,2.5 0 0 1 1.3222656,6.2734375 2.5,2.5 0 0 1 1.7128906,5.7539062 2.5,2.5 0 0 1 2.2226563,5.3515625 2.5,2.5 0 0 1 2.8183594,5.0957031 2.5,2.5 0 0 1 3.4609375,5 2.5,2.5 0 0 1 4.1054687,5.0742187 0.5,0.5 0 0 0 4.3515625,5.0722656 0.5,0.5 0 0 0 4.5683594,4.953125 0.5,0.5 0 0 0 4.7011719,4.7441406 4,4 0 0 1 5.0429687,3.9863281 4,4 0 0 1 5.5351562,3.3125 4,4 0 0 1 6.15625,2.7578125 4,4 0 0 1 6.8789062,2.34375 4,4 0 0 1 7.671875,2.0859375 4,4 0 0 1 8.5,2 Z"
     style="fill:#5599ff"
     id="path3" />
  <path
     d="m 3.9648438,12 c -0.021702,0.0015 -0.042998,0.0054 -0.064453,0.0098 -0.086262,0.01729 -0.1664358,0.05704 -0.2324218,0.115234 -0.065776,0.05846 -0.1149585,0.133244 -0.1425782,0.216797 l -0.5,1.5 c -0.023434,0.08211 -0.025451,0.168846 -0.00586,0.251953 0.019132,0.08369 0.059491,0.161042 0.1171875,0.224609 0.057294,0.06351 0.1299221,0.111251 0.2109375,0.138672 0.081265,0.02667 0.1680152,0.03205 0.2519531,0.01563 0.084107,-0.01567 0.162789,-0.05265 0.2285156,-0.107422 0.065809,-0.05527 0.1162607,-0.126579 0.1464844,-0.207031 l 0.5,-1.5 c 0.010281,-0.03112 0.017477,-0.06318 0.021484,-0.0957 0.00384,-0.03241 0.00449,-0.06512 0.00195,-0.09766 -0.00197,-0.03299 -0.0072,-0.0657 -0.015625,-0.09766 -0.00868,-0.03168 -0.020451,-0.06243 -0.035156,-0.0918 -0.014863,-0.029 -0.032525,-0.05647 -0.052734,-0.08203 -0.019712,-0.02621 -0.041955,-0.05041 -0.066406,-0.07226 -0.024772,-0.02146 -0.051594,-0.04043 -0.080078,-0.05664 -0.028597,-0.01593 -0.05869,-0.02901 -0.089844,-0.03906 C 4.0958891,12.004617 4.0299487,11.995447 3.9648438,12 Z m 2.9999999,0 c -0.021702,0.0015 -0.042998,0.0054 -0.064453,0.0098 -0.086262,0.01729 -0.1664358,0.05704 -0.2324219,0.115234 -0.065776,0.05846 -0.1149584,0.133244 -0.1425781,0.216797 l -1,3 c -0.023434,0.08211 -0.025451,0.168846 -0.00586,0.251953 0.019132,0.08369 0.059491,0.161042 0.1171875,0.224609 0.057294,0.06351 0.1299222,0.111251 0.2109375,0.138672 0.081265,0.02667 0.1680153,0.03205 0.2519532,0.01563 0.084107,-0.01567 0.162789,-0.05265 0.2285156,-0.107422 0.065809,-0.05527 0.1162607,-0.126579 0.1464844,-0.207031 l 1,-3 c 0.010281,-0.03112 0.017477,-0.06318 0.021484,-0.0957 0.00384,-0.03241 0.00449,-0.06512 0.00195,-0.09766 -0.00197,-0.03299 -0.0072,-0.0657 -0.015625,-0.09766 -0.00868,-0.03168 -0.020451,-0.06243 -0.035156,-0.0918 -0.014863,-0.029 -0.032525,-0.05647 -0.052734,-0.08203 -0.019712,-0.02621 -0.041955,-0.05041 -0.066406,-0.07226 -0.024772,-0.02146 -0.051594,-0.04043 -0.080078,-0.05664 -0.028597,-0.01593 -0.05869,-0.02901 -0.089844,-0.03906 C 7.0958891,12.004617 7.0299487,11.995447 6.9648437,12 Z m 3.0000001,0 c -0.021702,0.0015 -0.042998,0.0054 -0.064453,0.0098 -0.086263,0.01729 -0.1664357,0.05704 -0.2324218,0.115234 -0.065776,0.05846 -0.1149585,0.133244 -0.1425782,0.216797 l -0.5,1.5 c -0.023434,0.08211 -0.025451,0.168846 -0.00586,0.251953 0.019132,0.08369 0.059491,0.161042 0.1171875,0.224609 0.057294,0.06351 0.1299219,0.111251 0.2109375,0.138672 0.081265,0.02667 0.168015,0.03205 0.2519531,0.01563 0.084108,-0.01567 0.1627889,-0.05265 0.2285156,-0.107422 0.065809,-0.05527 0.1162606,-0.126578 0.1464844,-0.207031 l 0.5000001,-1.5 c 0.01028,-0.03112 0.01748,-0.06318 0.02149,-0.0957 0.0038,-0.03241 0.0045,-0.06512 0.002,-0.09766 -0.002,-0.03299 -0.0072,-0.0657 -0.01563,-0.09766 -0.0087,-0.03168 -0.02045,-0.06243 -0.03516,-0.0918 -0.01486,-0.029 -0.03253,-0.05647 -0.05274,-0.08203 -0.01971,-0.02621 -0.04195,-0.05041 -0.06641,-0.07226 -0.02477,-0.02146 -0.05159,-0.04043 -0.08008,-0.05664 -0.0286,-0.01593 -0.05869,-0.02901 -0.08984,-0.03906 C 10.095889,12.004617 10.029949,11.995447 9.9648438,12 Z m 3.0000002,0 c -0.0217,0.0015 -0.043,0.0054 -0.06445,0.0098 -0.08626,0.01729 -0.166436,0.05704 -0.232422,0.115234 -0.06578,0.05846 -0.114959,0.133244 -0.142578,0.216797 l -1,3 c -0.03136,0.08419 -0.03946,0.175272 -0.02344,0.263672 0.01541,0.08883 0.05455,0.171833 0.113281,0.240234 0.05906,0.06778 0.135304,0.118386 0.220704,0.146485 0.08508,0.0281 0.176143,0.03282 0.263671,0.01367 0.08846,-0.01889 0.170132,-0.06141 0.236329,-0.123046 0.06551,-0.0611 0.113402,-0.13867 0.138671,-0.22461 l 1,-3 c 0.01028,-0.03112 0.01748,-0.06318 0.02149,-0.0957 0.0038,-0.03241 0.0045,-0.06512 0.002,-0.09766 -0.002,-0.03299 -0.0072,-0.0657 -0.01563,-0.09766 -0.0087,-0.03168 -0.02045,-0.06243 -0.03516,-0.0918 -0.01486,-0.029 -0.03253,-0.05647 -0.05274,-0.08203 -0.01971,-0.02621 -0.04195,-0.05041 -0.06641,-0.07226 -0.02477,-0.02146 -0.05159,-0.04043 -0.08008,-0.05664 -0.0286,-0.01593 -0.05869,-0.02901 -0.08984,-0.03906 C 13.095889,12.004617 13.029949,11.995447 12.964844,12 Z"
     style="fill:#0000ff"
     id="path2" />
</svg>
