<?xml version="1.0" encoding="UTF-8" standalone="no"?>
<svg
   width="16"
   height="16"
   fill="currentColor"
   class="bi bi-cloud-sun"
   viewBox="0 0 16 16"
   version="1.1"
   id="svg2"
   sodipodi:docname="partly_cloudy_day.svg"
   inkscape:export-filename="shower_moderate.png"
   inkscape:export-xdpi="96"
   inkscape:export-ydpi="96"
   xmlns:inkscape="http://www.inkscape.org/namespaces/inkscape"
   xmlns:sodipodi="http://sodipodi.sourceforge.net/DTD/sodipodi-0.dtd"
   xmlns="http://www.w3.org/2000/svg"
   xmlns:svg="http://www.w3.org/2000/svg">
  <sodipodi:namedview
     id="namedview1"
     pagecolor="#ffffff"
     bordercolor="#000000"
     borderopacity="0.25"
     inkscape:showpageshadow="2"
     inkscape:pageopacity="0.0"
     inkscape:pagecheckerboard="0"
     inkscape:deskcolor="#d1d1d1" />
  <defs
     id="defs2" />
  <path
     d="m 8.001762,5.9665068 a 2.9231646,2.9231646 0 0 1 2.923164,2.9691002 0.41759494,0.41759494 0 0 0 0.52116,0.4109126 1.2552904,1.2552904 0 0 1 1.566815,1.2135324 1.2527847,1.2527847 0 0 1 -1.252785,1.252784 H 4.6610026 A 1.6703798,1.6703798 0 1 1 4.7445205,8.4737468 0.41759494,0.41759494 0 0 0 5.1704674,8.1605507 2.9231646,2.9231646 0 0 1 8.0017612,5.9665068 M 11.737565,8.4720766 A 3.7583544,3.7583544 0 0 0 4.4547106,7.6452385 2.5055697,2.5055697 0 0 0 4.6610026,12.648025 h 7.0991134 a 2.0879747,2.0879747 0 0 0 0,-4.1759484 z"
     id="path1"
     style="fill:#5599ff;stroke-width:0.835189" />
  <path
     d="m 10.507332,0.12017753 c -0.07326,-1.4757e-4 -0.14527,0.0189804 -0.208797,0.0554615 -0.06372,0.0367176 -0.116619,0.0896137 -0.153337,0.15333574 -0.03648,0.0635291 -0.05561,0.13553911 -0.05546,0.20879739 V 1.3729623 c -1.47e-4,0.07326 0.01898,0.1452687 0.05546,0.2087974 0.03672,0.063722 0.08961,0.1166188 0.153337,0.1533357 0.06353,0.036482 0.135537,0.055611 0.208798,0.055461 0.07325,1.476e-4 0.145268,-0.01898 0.208797,-0.055461 0.06373,-0.036716 0.116622,-0.089615 0.153334,-0.1533358 0.0365,-0.063529 0.05562,-0.1355392 0.05546,-0.2087975 V 0.53777243 c 1.5e-4,-0.0732577 -0.01897,-0.14526885 -0.05546,-0.20879743 -0.03671,-0.0637209 -0.08961,-0.11661849 -0.153335,-0.15333573 -0.06352,-0.036481 -0.135539,-0.0556087 -0.208797,-0.0554617 z M 13.729011,1.461049 c -0.0275,0.00201 -0.05478,0.00721 -0.08156,0.01468 -0.07143,0.020181 -0.136176,0.059034 -0.187592,0.112554 L 12.86935,2.1787891 c -0.05148,0.051549 -0.08858,0.1156549 -0.107658,0.1859602 -0.0191,0.071058 -0.0191,0.1458962 0,0.2169537 0.0188,0.07089 0.05595,0.1355862 0.107658,0.1875914 0.05201,0.051719 0.116696,0.08885 0.187591,0.107661 0.07106,0.019087 0.145896,0.019087 0.216954,0 0.0703,-0.019073 0.134412,-0.056188 0.185959,-0.107661 L 14.05036,2.1787891 c 0.05353,-0.051416 0.09238,-0.1161701 0.112558,-0.1875915 0.01995,-0.071422 0.0205,-0.1468715 0.0016,-0.2185849 -0.0183,-0.072065 -0.05546,-0.1379538 -0.10768,-0.1908537 -0.05289,-0.052234 -0.118784,-0.089402 -0.190854,-0.1076598 -0.04484,-0.011795 -0.09118,-0.016425 -0.137023,-0.01305 z m -6.4694588,0.00978 c -0.035916,2.741e-4 -0.071088,0.00514 -0.1060294,0.01468 -0.069732,0.019312 -0.1332516,0.056412 -0.1843292,0.1076609 -0.051249,0.051078 -0.08835,0.1145966 -0.1076609,0.184329 -0.019068,0.069882 -0.01963,0.1435258 -0.00163,0.213691 0.017857,0.070558 0.053846,0.1352283 0.1044001,0.1875915 l 0.5905045,0.5905063 c 0.051549,0.051472 0.1156549,0.088588 0.1859603,0.1076609 0.071057,0.019088 0.1458964,0.019088 0.2169536,0 0.07089,-0.018812 0.1355866,-0.055942 0.1875915,-0.1076609 0.051719,-0.052006 0.088849,-0.116701 0.1076598,-0.1875914 0.019088,-0.071057 0.019088,-0.1458962 0,-0.2169536 -0.01907,-0.0703 -0.056183,-0.1344062 -0.1076576,-0.185955 L 7.5548049,1.588285 C 7.5024422,1.5377332 7.4377721,1.5017422 7.3672135,1.4838852 7.3321309,1.4748866 7.2954675,1.4705611 7.2595522,1.4708347 Z M 10.42577,2.6273741 C 10.253494,2.6328958 10.081585,2.65666 9.9135639,2.6975166 9.6445234,2.7630674 9.3882064,2.87276 9.1550417,3.0221362 8.9219979,3.1714156 8.7152936,3.3582763 8.5433305,3.5751233 8.3744608,3.7892228 8.2416716,4.0294558 8.1502038,4.2863395 c 0.065393,0.00569 0.1306578,0.012747 0.1957479,0.021207 0.00598,5.323e-4 0.011956,0.00108 0.017944,0.00163 0.072591,0.00569 0.1437748,0.01386 0.2153223,0.022839 0.028359,0.00356 0.05663,0.00734 0.084824,0.011417 0.08891,0.00775 0.1775797,0.018089 0.2658904,0.030993 0.02562,0.00738 0.051179,0.015002 0.076668,0.022838 0.2435905,0.052331 0.4825351,0.1243432 0.7144788,0.2153224 0.2560248,0.1033035 0.5022438,0.2294162 0.7356848,0.3768141 0.233688,0.146895 0.453705,0.3144991 0.657385,0.5007877 0.203305,0.1862995 0.389468,0.3904804 0.556248,0.6100803 0.02963,0.045702 0.05846,0.09193 0.08646,0.1386544 0.01376,0.021095 0.02736,0.0423 0.04078,0.063619 0.0266,0.038843 0.05295,0.077835 0.07831,0.1174491 0.03885,0.060689 0.07665,0.12346 0.112558,0.1859602 0.0039,0.00699 0.0074,0.014193 0.01146,0.021207 0.03774,0.057358 0.07418,0.1155542 0.109304,0.1745418 0.02516,0.058762 0.04909,0.1180445 0.07177,0.1778041 0.0016,0.00379 0.0034,0.0076 0.0049,0.011417 0.205229,-0.185564 0.378308,-0.4038419 0.512206,-0.6459672 0.13428,-0.2423391 0.227439,-0.5052745 0.275679,-0.7780969 0.04815,-0.2722584 0.05092,-0.5506127 0.0082,-0.8237713 C 12.938851,4.4694539 12.850658,4.2048662 12.720976,3.960092 12.591367,3.7153372 12.422141,3.4937467 12.220123,3.3043392 12.01801,3.1152017 11.785948,2.9608618 11.533375,2.8475946 11.280939,2.7338609 11.011394,2.6627538 10.735704,2.637166 10.632414,2.627636 10.529135,2.624063 10.42577,2.627386 Z m 3.839916,2.0863434 c -0.07324,-1.475e-4 -0.14527,0.018981 -0.208798,0.055463 -0.06373,0.036717 -0.116623,0.089614 -0.153335,0.1533359 -0.0365,0.063529 -0.05562,0.1355387 -0.05546,0.2087974 -1.49e-4,0.073258 0.01897,0.1452686 0.05546,0.2087975 0.03671,0.063722 0.0896,0.116619 0.153335,0.1533356 0.06352,0.036483 0.135538,0.05561 0.208798,0.055461 h 0.835191 c 0.07324,1.477e-4 0.145268,-0.018981 0.208797,-0.055461 0.06372,-0.036717 0.116622,-0.089615 0.153332,-0.1533356 0.03648,-0.063529 0.05562,-0.135539 0.05546,-0.2087975 1.46e-4,-0.073259 -0.01897,-0.1452686 -0.05546,-0.2087974 -0.03671,-0.063722 -0.08961,-0.1166189 -0.153336,-0.1533358 -0.06352,-0.036483 -0.135539,-0.05561 -0.208797,-0.055461 z m -1.119025,2.6572743 c -0.05225,0.00192 -0.103324,0.013037 -0.151705,0.034256 -0.07703,0.034345 -0.141868,0.091217 -0.185959,0.1631228 -0.04444,0.071823 -0.06604,0.1554314 -0.06198,0.2397906 0.06264,0.022448 0.125371,0.046869 0.18596,0.073404 0.0606,0.026534 0.119432,0.054372 0.177804,0.084824 0.05838,0.030451 0.115291,0.063683 0.171279,0.097874 0.05599,0.034192 0.11133,0.069897 0.164752,0.107661 0.05342,0.037768 0.105915,0.077915 0.156599,0.1190798 0.0507,0.041165 0.09903,0.082851 0.146812,0.1272356 0.04778,0.044393 0.09394,0.091217 0.138653,0.1386556 0.0447,0.04744 0.08742,0.096485 0.128867,0.1468102 0.02276,-0.018439 0.04356,-0.039201 0.06199,-0.06199 0.0183,-0.022749 0.03414,-0.047351 0.04731,-0.07341 0.01372,-0.025967 0.02463,-0.053302 0.03262,-0.08157 0.0073,-0.02828 0.01169,-0.057258 0.01301,-0.086458 0.0014,-0.028911 -2.7e-4,-0.057887 -0.005,-0.086455 -0.0047,-0.028997 -0.01218,-0.057427 -0.02284,-0.084825 -0.01035,-0.026836 -0.0235,-0.052526 -0.03913,-0.07667 -0.01602,-0.02473 -0.03461,-0.047696 -0.05547,-0.068511 L 13.459743,7.4933233 C 13.400253,7.4335283 13.324044,7.39315 13.241161,7.3775061 c -0.03114,-0.00597 -0.06328,-0.00769 -0.09462,-0.00653 z"
     style="fill:#ffdd55;stroke-width:0.835189"
     id="path4" />
  <path
     d="m 10.330786,13.282382 c -0.01461,10e-4 -0.02895,0.0037 -0.04339,0.0066 -0.01452,0.0029 -0.02815,0.0071 -0.04208,0.01184 -0.01392,0.0048 -0.02761,0.01057 -0.04076,0.01709 -0.01316,0.0065 -0.02592,0.01284 -0.03813,0.02103 -0.01221,0.0082 -0.0244,0.01782 -0.03549,0.02762 -0.01107,0.0098 -0.02193,0.02043 -0.03155,0.03155 -0.0096,0.01113 -0.01823,0.02323 -0.0263,0.03549 -0.0081,0.01227 -0.01463,0.02488 -0.02103,0.03812 -0.0064,0.01324 -0.01244,0.0267 -0.01709,0.04077 l -0.3365912,1.009773 c -0.00394,0.01382 -0.00706,0.02795 -0.00921,0.04208 -0.00211,0.01412 -0.00367,0.02782 -0.00394,0.04208 -3.32e-4,0.01425 0.0011,0.02919 0.00266,0.04339 0.00147,0.0142 0.0033,0.02808 0.0066,0.04208 0.00321,0.01408 0.00688,0.02729 0.011837,0.04077 0.00495,0.01347 0.011782,0.02674 0.018402,0.03945 0.00669,0.0127 0.014148,0.02503 0.022354,0.03681 0.00825,0.01178 0.016587,0.02349 0.026297,0.03418 0.00964,0.01069 0.019383,0.02093 0.030239,0.03024 0.010856,0.0093 0.022253,0.01714 0.034182,0.02499 0.011929,0.0079 0.02527,0.01607 0.038125,0.02234 0.012855,0.0062 0.025811,0.01116 0.039445,0.01578 0.01368,0.0045 0.028021,0.0078 0.042077,0.01052 0.014047,0.0027 0.027818,0.0044 0.042076,0.0052 0.01425,8.74e-4 0.02911,9.17e-4 0.04339,0 0.01428,-9.17e-4 0.02795,-0.0025 0.04208,-0.0052 0.01416,-0.0027 0.02845,-0.0061 0.04208,-0.01052 0.01362,-0.0044 0.02652,-0.0097 0.03944,-0.01578 0.01293,-0.0061 0.02606,-0.01336 0.03813,-0.02103 0.01207,-0.0077 0.02312,-0.01577 0.03418,-0.02499 0.01108,-0.0093 0.02182,-0.01967 0.03155,-0.03024 0.0097,-0.01058 0.01801,-0.02116 0.0263,-0.03287 0.0083,-0.01171 0.01561,-0.02411 0.02235,-0.03681 0.0067,-0.0127 0.01332,-0.0259 0.0184,-0.03945 l 0.33659,-1.009773 c 0.0069,-0.02095 0.01176,-0.04254 0.01447,-0.06442 0.0026,-0.02182 0.003,-0.04384 0.0014,-0.06574 -0.0014,-0.02221 -0.0049,-0.04423 -0.01053,-0.06574 -0.0059,-0.02133 -0.01376,-0.04203 -0.02367,-0.0618 -0.01,-0.01952 -0.0219,-0.03801 -0.0355,-0.05522 -0.01327,-0.01764 -0.02824,-0.03393 -0.04471,-0.04864 -0.01668,-0.01445 -0.03473,-0.02721 -0.0539,-0.03813 -0.01925,-0.01073 -0.03951,-0.01953 -0.06048,-0.0263 -0.02099,-0.007 -0.04261,-0.01155 -0.06442,-0.01447 -0.02182,-0.0029 -0.04383,-0.0042 -0.06574,-0.0027 z"
     style="fill:#0000ff;stroke-width:0.673182"
     id="path5" />
  <path
     d="m 8.3112406,13.282382 c -0.014608,10e-4 -0.028946,0.0037 -0.043387,0.0066 -0.014521,0.0029 -0.028152,0.0071 -0.042074,0.01184 -0.013921,0.0048 -0.027607,0.01057 -0.040761,0.01709 -0.013154,0.0065 -0.025918,0.01284 -0.038129,0.02103 -0.012211,0.0082 -0.024396,0.01782 -0.035497,0.02762 -0.011067,0.0098 -0.021932,0.02043 -0.031552,0.03155 -0.00962,0.01113 -0.01823,0.02323 -0.026295,0.03549 -0.00807,0.01227 -0.014628,0.02488 -0.021036,0.03812 -0.00639,0.01324 -0.012447,0.0267 -0.017092,0.04077 l -0.6731817,2.019545 c -0.00397,0.01382 -0.00706,0.02795 -0.0092,0.04208 -0.00215,0.01412 -0.00363,0.02782 -0.00397,0.04208 -3.318e-4,0.01425 0.00115,0.02919 0.00262,0.04339 0.00149,0.0142 0.0033,0.02808 0.0066,0.04208 0.00323,0.01408 0.00687,0.02729 0.011834,0.04077 0.00498,0.01347 0.01178,0.02674 0.018405,0.03945 0.00667,0.0127 0.014143,0.02504 0.022349,0.03681 0.00822,0.01178 0.016587,0.02349 0.026295,0.03418 0.00964,0.01069 0.019381,0.02093 0.030239,0.03024 0.010858,0.0093 0.022255,0.01714 0.034184,0.02499 0.011929,0.0079 0.025272,0.01607 0.038129,0.02234 0.012858,0.0062 0.02581,0.01116 0.039441,0.01578 0.013679,0.0045 0.028024,0.0078 0.042074,0.01052 0.01405,0.0027 0.027822,0.0044 0.042074,0.0052 0.014251,8.75e-4 0.029115,9.17e-4 0.043387,0 0.014278,-9.16e-4 0.027951,-0.0025 0.042074,-0.0052 0.014157,-0.0027 0.028455,-0.0061 0.042074,-0.01052 0.013619,-0.0044 0.026517,-0.0097 0.039441,-0.01578 0.012925,-0.0061 0.026059,-0.01336 0.038129,-0.02103 0.01207,-0.0077 0.023123,-0.01577 0.034184,-0.02499 0.011074,-0.0093 0.021825,-0.01967 0.031552,-0.03024 0.00973,-0.01058 0.018008,-0.02116 0.026295,-0.03287 0.00829,-0.01172 0.015611,-0.02411 0.022349,-0.03681 0.00674,-0.0127 0.013323,-0.0259 0.018405,-0.03945 l 0.6731817,-2.019545 c 0.00692,-0.02095 0.011767,-0.04254 0.01446,-0.06442 0.00256,-0.02182 0.00303,-0.04384 0.00135,-0.06574 -0.00135,-0.02221 -0.00485,-0.04423 -0.010521,-0.06574 -0.00586,-0.02133 -0.013766,-0.04203 -0.023669,-0.0618 -0.010003,-0.01952 -0.021892,-0.03801 -0.035497,-0.05522 -0.013268,-0.01764 -0.028247,-0.03393 -0.044706,-0.04864 -0.016675,-0.01445 -0.034729,-0.02721 -0.053908,-0.03813 -0.019253,-0.01073 -0.039509,-0.01953 -0.060479,-0.0263 -0.020977,-0.0071 -0.042613,-0.01157 -0.064431,-0.01448 -0.021818,-0.0029 -0.043824,-0.0042 -0.065743,-0.0027 z"
     style="fill:#0000ff;stroke-width:0.673182"
     id="path4-9" />
  <path
     d="m 6.2916954,13.282382 c -0.014608,10e-4 -0.028946,0.0037 -0.043387,0.0066 -0.01452,0.0029 -0.028152,0.0071 -0.042074,0.01184 -0.013921,0.0048 -0.027607,0.01057 -0.040761,0.01709 -0.013154,0.0065 -0.025917,0.01284 -0.038129,0.02103 -0.012211,0.0082 -0.024396,0.01782 -0.035497,0.02762 -0.011067,0.0098 -0.021932,0.02043 -0.031552,0.03155 -0.00962,0.01113 -0.01823,0.02323 -0.026295,0.03549 -0.00807,0.01227 -0.014628,0.02488 -0.021037,0.03812 -0.00639,0.01324 -0.012447,0.0267 -0.017092,0.04077 l -0.3365909,1.009773 c -0.00397,0.01382 -0.00706,0.02795 -0.0092,0.04208 -0.00215,0.01412 -0.00363,0.02782 -0.00397,0.04208 -3.316e-4,0.01425 0.00115,0.02919 0.00262,0.04339 0.00149,0.0142 0.0033,0.02808 0.0066,0.04208 0.00323,0.01408 0.00687,0.02729 0.011834,0.04077 0.00498,0.01347 0.01178,0.02674 0.018405,0.03945 0.00667,0.0127 0.014143,0.02503 0.022349,0.03681 0.00822,0.01178 0.016588,0.02349 0.026295,0.03418 0.00964,0.01069 0.019381,0.02093 0.030239,0.03024 0.010859,0.0093 0.022256,0.01714 0.034184,0.02499 0.011929,0.0079 0.025272,0.01607 0.038129,0.02234 0.012858,0.0062 0.02581,0.01116 0.039442,0.01578 0.013679,0.0045 0.028024,0.0078 0.042074,0.01052 0.01405,0.0027 0.027822,0.0044 0.042074,0.0052 0.014251,8.74e-4 0.029115,9.17e-4 0.043387,0 0.014278,-9.17e-4 0.027951,-0.0025 0.042074,-0.0052 0.014157,-0.0027 0.028455,-0.0061 0.042074,-0.01052 0.013619,-0.0044 0.026517,-0.0097 0.039442,-0.01578 0.012925,-0.0061 0.026059,-0.01336 0.038129,-0.02103 0.01207,-0.0077 0.023124,-0.01577 0.034184,-0.02499 0.011073,-0.0093 0.021825,-0.01967 0.031552,-0.03024 0.00973,-0.01058 0.018008,-0.02116 0.026295,-0.03287 0.00829,-0.01171 0.015611,-0.02411 0.022349,-0.03681 0.00674,-0.0127 0.013323,-0.0259 0.018405,-0.03945 l 0.3365909,-1.009773 c 0.00692,-0.02095 0.011767,-0.04254 0.01446,-0.06442 0.00256,-0.02182 0.00303,-0.04384 0.00135,-0.06574 -0.00135,-0.02221 -0.00485,-0.04423 -0.010521,-0.06574 -0.00586,-0.02133 -0.013766,-0.04203 -0.023669,-0.0618 -0.010003,-0.01952 -0.021892,-0.03801 -0.035497,-0.05522 -0.013268,-0.01764 -0.028247,-0.03393 -0.044706,-0.04864 -0.016675,-0.01445 -0.034729,-0.02721 -0.053908,-0.03813 -0.019253,-0.01073 -0.039509,-0.01953 -0.060479,-0.0263 -0.020976,-0.0071 -0.042613,-0.01157 -0.064431,-0.01448 -0.021818,-0.0029 -0.043824,-0.0042 -0.065743,-0.0027 z"
     style="fill:#0000ff;stroke-width:0.673182"
     id="path1-0" />
</svg>
