<?xml version="1.0" encoding="UTF-8" standalone="no"?>
<svg
   width="16"
   height="16"
   fill="currentColor"
   class="bi bi-cloud-sun"
   viewBox="0 0 16 16"
   version="1.1"
   id="svg2"
   xmlns="http://www.w3.org/2000/svg"
   xmlns:svg="http://www.w3.org/2000/svg">
  <defs
     id="defs2" />
  <path
     d="m 8.001762,5.9665068 a 2.9231646,2.9231646 0 0 1 2.923164,2.9691002 0.41759494,0.41759494 0 0 0 0.52116,0.4109126 1.2552904,1.2552904 0 0 1 1.566815,1.2135324 1.2527847,1.2527847 0 0 1 -1.252785,1.252784 H 4.6610026 A 1.6703798,1.6703798 0 1 1 4.7445205,8.4737468 0.41759494,0.41759494 0 0 0 5.1704674,8.1605507 2.9231646,2.9231646 0 0 1 8.0017612,5.9665068 M 11.737565,8.4720766 A 3.7583544,3.7583544 0 0 0 4.4547106,7.6452385 2.5055697,2.5055697 0 0 0 4.6610026,12.648025 h 7.0991134 a 2.0879747,2.0879747 0 0 0 0,-4.1759484 z"
     id="path1"
     style="display:inline;fill:#5599ff;stroke-width:0.835189" />
  <path
     d="m 10.507332,0.12017753 c -0.07326,-1.4757e-4 -0.14527,0.0189804 -0.208797,0.0554615 -0.06372,0.0367176 -0.116619,0.0896137 -0.153337,0.15333574 -0.03648,0.0635291 -0.05561,0.13553911 -0.05546,0.20879739 V 1.3729623 c -1.47e-4,0.07326 0.01898,0.1452687 0.05546,0.2087974 0.03672,0.063722 0.08961,0.1166188 0.153337,0.1533357 0.06353,0.036482 0.135537,0.055611 0.208798,0.055461 0.07325,1.476e-4 0.145268,-0.01898 0.208797,-0.055461 0.06373,-0.036716 0.116622,-0.089615 0.153334,-0.1533358 0.0365,-0.063529 0.05562,-0.1355392 0.05546,-0.2087975 V 0.53777243 c 1.5e-4,-0.0732577 -0.01897,-0.14526885 -0.05546,-0.20879743 -0.03671,-0.0637209 -0.08961,-0.11661849 -0.153335,-0.15333573 -0.06352,-0.036481 -0.135539,-0.0556087 -0.208797,-0.0554617 z M 13.729011,1.461049 c -0.0275,0.00201 -0.05478,0.00721 -0.08156,0.01468 -0.07143,0.020181 -0.136176,0.059034 -0.187592,0.112554 L 12.86935,2.1787891 c -0.05148,0.051549 -0.08858,0.1156549 -0.107658,0.1859602 -0.0191,0.071058 -0.0191,0.1458962 0,0.2169537 0.0188,0.07089 0.05595,0.1355862 0.107658,0.1875914 0.05201,0.051719 0.116696,0.08885 0.187591,0.107661 0.07106,0.019087 0.145896,0.019087 0.216954,0 0.0703,-0.019073 0.134412,-0.056188 0.185959,-0.107661 L 14.05036,2.1787891 c 0.05353,-0.051416 0.09238,-0.1161701 0.112558,-0.1875915 0.01995,-0.071422 0.0205,-0.1468715 0.0016,-0.2185849 -0.0183,-0.072065 -0.05546,-0.1379538 -0.10768,-0.1908537 -0.05289,-0.052234 -0.118784,-0.089402 -0.190854,-0.1076598 -0.04484,-0.011795 -0.09118,-0.016425 -0.137023,-0.01305 z m -6.4694588,0.00978 c -0.035916,2.741e-4 -0.071088,0.00514 -0.1060294,0.01468 -0.069732,0.019312 -0.1332516,0.056412 -0.1843292,0.1076609 -0.051249,0.051078 -0.08835,0.1145966 -0.1076609,0.184329 -0.019068,0.069882 -0.01963,0.1435258 -0.00163,0.213691 0.017857,0.070558 0.053846,0.1352283 0.1044001,0.1875915 l 0.5905045,0.5905063 c 0.051549,0.051472 0.1156549,0.088588 0.1859603,0.1076609 0.071057,0.019088 0.1458964,0.019088 0.2169536,0 0.07089,-0.018812 0.1355866,-0.055942 0.1875915,-0.1076609 0.051719,-0.052006 0.088849,-0.116701 0.1076598,-0.1875914 0.019088,-0.071057 0.019088,-0.1458962 0,-0.2169536 -0.01907,-0.0703 -0.056183,-0.1344062 -0.1076576,-0.185955 L 7.5548049,1.588285 C 7.5024422,1.5377332 7.4377721,1.5017422 7.3672135,1.4838852 7.3321309,1.4748866 7.2954675,1.4705611 7.2595522,1.4708347 Z M 10.42577,2.6273741 C 10.253494,2.6328958 10.081585,2.65666 9.9135639,2.6975166 9.6445234,2.7630674 9.3882064,2.87276 9.1550417,3.0221362 8.9219979,3.1714156 8.7152936,3.3582763 8.5433305,3.5751233 8.3744608,3.7892228 8.2416716,4.0294558 8.1502038,4.2863395 c 0.065393,0.00569 0.1306578,0.012747 0.1957479,0.021207 0.00598,5.323e-4 0.011956,0.00108 0.017944,0.00163 0.072591,0.00569 0.1437748,0.01386 0.2153223,0.022839 0.028359,0.00356 0.05663,0.00734 0.084824,0.011417 0.08891,0.00775 0.1775797,0.018089 0.2658904,0.030993 0.02562,0.00738 0.051179,0.015002 0.076668,0.022838 0.2435905,0.052331 0.4825351,0.1243432 0.7144788,0.2153224 0.2560248,0.1033035 0.5022438,0.2294162 0.7356848,0.3768141 0.233688,0.146895 0.453705,0.3144991 0.657385,0.5007877 0.203305,0.1862995 0.389468,0.3904804 0.556248,0.6100803 0.02963,0.045702 0.05846,0.09193 0.08646,0.1386544 0.01376,0.021095 0.02736,0.0423 0.04078,0.063619 0.0266,0.038843 0.05295,0.077835 0.07831,0.1174491 0.03885,0.060689 0.07665,0.12346 0.112558,0.1859602 0.0039,0.00699 0.0074,0.014193 0.01146,0.021207 0.03774,0.057358 0.07418,0.1155542 0.109304,0.1745418 0.02516,0.058762 0.04909,0.1180445 0.07177,0.1778041 0.0016,0.00379 0.0034,0.0076 0.0049,0.011417 0.205229,-0.185564 0.378308,-0.4038419 0.512206,-0.6459672 0.13428,-0.2423391 0.227439,-0.5052745 0.275679,-0.7780969 0.04815,-0.2722584 0.05092,-0.5506127 0.0082,-0.8237713 C 12.938851,4.4694539 12.850658,4.2048662 12.720976,3.960092 12.591367,3.7153372 12.422141,3.4937467 12.220123,3.3043392 12.01801,3.1152017 11.785948,2.9608618 11.533375,2.8475946 11.280939,2.7338609 11.011394,2.6627538 10.735704,2.637166 10.632414,2.627636 10.529135,2.624063 10.42577,2.627386 Z m 3.839916,2.0863434 c -0.07324,-1.475e-4 -0.14527,0.018981 -0.208798,0.055463 -0.06373,0.036717 -0.116623,0.089614 -0.153335,0.1533359 -0.0365,0.063529 -0.05562,0.1355387 -0.05546,0.2087974 -1.49e-4,0.073258 0.01897,0.1452686 0.05546,0.2087975 0.03671,0.063722 0.0896,0.116619 0.153335,0.1533356 0.06352,0.036483 0.135538,0.05561 0.208798,0.055461 h 0.835191 c 0.07324,1.477e-4 0.145268,-0.018981 0.208797,-0.055461 0.06372,-0.036717 0.116622,-0.089615 0.153332,-0.1533356 0.03648,-0.063529 0.05562,-0.135539 0.05546,-0.2087975 1.46e-4,-0.073259 -0.01897,-0.1452686 -0.05546,-0.2087974 -0.03671,-0.063722 -0.08961,-0.1166189 -0.153336,-0.1533358 -0.06352,-0.036483 -0.135539,-0.05561 -0.208797,-0.055461 z m -1.119025,2.6572743 c -0.05225,0.00192 -0.103324,0.013037 -0.151705,0.034256 -0.07703,0.034345 -0.141868,0.091217 -0.185959,0.1631228 -0.04444,0.071823 -0.06604,0.1554314 -0.06198,0.2397906 0.06264,0.022448 0.125371,0.046869 0.18596,0.073404 0.0606,0.026534 0.119432,0.054372 0.177804,0.084824 0.05838,0.030451 0.115291,0.063683 0.171279,0.097874 0.05599,0.034192 0.11133,0.069897 0.164752,0.107661 0.05342,0.037768 0.105915,0.077915 0.156599,0.1190798 0.0507,0.041165 0.09903,0.082851 0.146812,0.1272356 0.04778,0.044393 0.09394,0.091217 0.138653,0.1386556 0.0447,0.04744 0.08742,0.096485 0.128867,0.1468102 0.02276,-0.018439 0.04356,-0.039201 0.06199,-0.06199 0.0183,-0.022749 0.03414,-0.047351 0.04731,-0.07341 0.01372,-0.025967 0.02463,-0.053302 0.03262,-0.08157 0.0073,-0.02828 0.01169,-0.057258 0.01301,-0.086458 0.0014,-0.028911 -2.7e-4,-0.057887 -0.005,-0.086455 -0.0047,-0.028997 -0.01218,-0.057427 -0.02284,-0.084825 -0.01035,-0.026836 -0.0235,-0.052526 -0.03913,-0.07667 -0.01602,-0.02473 -0.03461,-0.047696 -0.05547,-0.068511 L 13.459743,7.4933233 C 13.400253,7.4335283 13.324044,7.39315 13.241161,7.3775061 c -0.03114,-0.00597 -0.06328,-0.00769 -0.09462,-0.00653 z"
     style="display:inline;fill:#ffdd55;stroke-width:0.835189"
     id="path4" />
  <path
     d="m 4.8674025,13.136371 c -0.01547,0.0011 -0.030648,0.0039 -0.045942,0.007 -0.061488,0.01233 -0.1186349,0.04066 -0.1656696,0.08214 -0.046885,0.04167 -0.081942,0.09498 -0.1016292,0.154533 L 4.1977632,14.44924 c -0.016704,0.05853 -0.018141,0.120352 -0.00417,0.17959 0.013637,0.05966 0.042405,0.11479 0.083531,0.160101 0.040839,0.04527 0.092608,0.0793 0.1503556,0.09884 0.057925,0.01901 0.1197607,0.02285 0.1795914,0.01114 0.059951,-0.01117 0.1160354,-0.03753 0.1628851,-0.07657 0.046908,-0.03939 0.08287,-0.09023 0.1044137,-0.147571 l 0.3563934,-1.069181 c 0.00733,-0.02219 0.012457,-0.04503 0.015314,-0.06821 0.00274,-0.0231 0.0032,-0.04642 0.00139,-0.06961 -0.0014,-0.02351 -0.00513,-0.04683 -0.011137,-0.06961 -0.00619,-0.02258 -0.014578,-0.0445 -0.025059,-0.06543 -0.010594,-0.02068 -0.023184,-0.04025 -0.037589,-0.05847 -0.01405,-0.01868 -0.029905,-0.03593 -0.047334,-0.05151 -0.017657,-0.0153 -0.036776,-0.02882 -0.057079,-0.04037 -0.020384,-0.01135 -0.041834,-0.02068 -0.06404,-0.02785 -0.044415,-0.01483 -0.091417,-0.02137 -0.1378237,-0.01813 z m 2.1383904,0 c -0.015469,0.0011 -0.030648,0.0039 -0.045942,0.007 -0.061488,0.01233 -0.1186349,0.04066 -0.1656696,0.08214 -0.046885,0.04167 -0.081942,0.09498 -0.1016292,0.154533 l -0.7127968,2.138391 c -0.016704,0.05853 -0.018142,0.120352 -0.00417,0.179591 0.013637,0.05966 0.042405,0.11479 0.083531,0.160101 0.040839,0.04527 0.092608,0.0793 0.1503555,0.09884 0.057925,0.01901 0.1197608,0.02285 0.1795915,0.01114 0.059951,-0.01117 0.1160355,-0.03753 0.1628852,-0.07657 0.046908,-0.0394 0.08287,-0.09023 0.1044136,-0.147571 l 0.7127969,-2.13839 c 0.00733,-0.02219 0.012457,-0.04503 0.015314,-0.06821 0.00274,-0.0231 0.0032,-0.04642 0.00139,-0.06961 -0.0014,-0.02351 -0.00513,-0.04683 -0.011137,-0.06961 -0.00619,-0.02258 -0.014578,-0.0445 -0.025059,-0.06543 -0.010594,-0.02068 -0.023184,-0.04025 -0.037589,-0.05847 -0.01405,-0.01868 -0.029905,-0.03593 -0.047334,-0.05151 -0.017657,-0.0153 -0.036776,-0.02882 -0.057079,-0.04037 -0.020383,-0.01135 -0.041834,-0.02068 -0.06404,-0.02785 -0.044415,-0.01483 -0.091417,-0.02137 -0.1378238,-0.01813 z m 2.1383909,0 c -0.015468,0.0011 -0.03065,0.0039 -0.04594,0.007 -0.061486,0.01233 -0.1186351,0.04066 -0.1656697,0.08214 -0.046888,0.04167 -0.081943,0.09498 -0.1016291,0.154533 L 8.4745465,14.44924 c -0.016701,0.05853 -0.018141,0.120352 -0.00421,0.17959 0.013636,0.05966 0.042404,0.11479 0.083531,0.160101 0.040836,0.04527 0.092608,0.0793 0.1503559,0.09884 0.057929,0.01901 0.1197605,0.02285 0.1795913,0.01114 0.059953,-0.01117 0.1160355,-0.03753 0.1628848,-0.07657 0.046909,-0.03939 0.08287,-0.09022 0.104414,-0.147571 L 9.507512,13.605575 c 0.00733,-0.02219 0.01246,-0.04503 0.015318,-0.06821 0.00272,-0.0231 0.00322,-0.04642 0.0014,-0.06961 -0.0014,-0.02351 -0.00512,-0.04683 -0.011138,-0.06961 -0.0062,-0.02258 -0.014576,-0.0445 -0.025061,-0.06543 -0.010592,-0.02068 -0.023187,-0.04025 -0.037593,-0.05847 -0.01405,-0.01868 -0.029902,-0.03593 -0.047337,-0.05151 -0.017656,-0.0153 -0.036773,-0.02882 -0.057081,-0.04037 -0.020386,-0.01135 -0.041834,-0.02068 -0.064038,-0.02785 -0.044443,-0.01483 -0.091445,-0.02137 -0.1378513,-0.01813 z m 2.1383902,0 c -0.01547,0.0011 -0.03065,0.0039 -0.04594,0.007 -0.06148,0.01233 -0.118635,0.04066 -0.16567,0.08214 -0.04689,0.04167 -0.08194,0.09498 -0.101629,0.154533 l -0.712797,2.138391 c -0.02235,0.06001 -0.02812,0.124933 -0.01671,0.187944 0.01098,0.06332 0.03888,0.122482 0.08075,0.171238 0.04209,0.04832 0.09644,0.08439 0.157317,0.104414 0.06065,0.02003 0.125554,0.02339 0.187944,0.0097 0.06306,-0.01347 0.121269,-0.04378 0.168454,-0.08771 0.0467,-0.04355 0.08083,-0.09884 0.09885,-0.160101 l 0.712796,-2.13839 c 0.0073,-0.02219 0.01246,-0.04503 0.01532,-0.06821 0.0027,-0.0231 0.0032,-0.04642 0.0014,-0.06961 -0.0014,-0.02351 -0.0051,-0.04683 -0.01114,-0.06961 -0.0062,-0.02258 -0.01458,-0.0445 -0.02506,-0.06543 -0.01059,-0.02068 -0.02318,-0.04025 -0.03759,-0.05847 -0.01405,-0.01869 -0.0299,-0.03593 -0.04733,-0.05151 -0.01766,-0.0153 -0.03677,-0.02882 -0.05709,-0.04037 -0.02039,-0.01135 -0.04184,-0.02068 -0.06404,-0.02785 -0.04445,-0.01483 -0.09145,-0.02137 -0.137852,-0.01813 z"
     style="display:none;fill:#0000ff;stroke-width:0.712797"
     id="path2" />
  <path
     id="path5"
     style="display:none;fill:#0000ff;stroke-width:0.673182"
     d="m 6.3242188,13.28125 c -0.010969,-5e-4 -0.022244,0.0012 -0.033203,0.002 -0.014608,10e-4 -0.028528,0.003 -0.042969,0.0059 -0.01452,0.0029 -0.027094,0.007 -0.041016,0.01172 -0.013921,0.0048 -0.027862,0.01106 -0.041016,0.01758 -0.013154,0.0065 -0.026851,0.0133 -0.039063,0.02149 -0.012211,0.0082 -0.024055,0.01754 -0.035156,0.02734 -0.011067,0.0098 -0.02163,0.02013 -0.03125,0.03125 -0.00962,0.01113 -0.019279,0.0229 -0.027344,0.03516 -0.00807,0.01227 -0.013122,0.02582 -0.019531,0.03906 -0.00639,0.01324 -0.012933,0.02499 -0.017578,0.03906 l -0.3359376,1.009765 c -0.00397,0.01382 -0.00763,0.02884 -0.00977,0.04297 -0.00215,0.01412 -0.00357,0.02676 -0.00391,0.04102 -3.316e-4,0.01425 4.831e-4,0.03072 0.00195,0.04492 0.00149,0.0142 0.00451,0.02701 0.00781,0.04101 0.00323,0.01408 0.00675,0.02754 0.011719,0.04102 0.00498,0.01347 0.010953,0.02635 0.017578,0.03906 0.00667,0.0127 0.013278,0.02533 0.021484,0.03711 0.00822,0.01178 0.017637,0.02447 0.027344,0.03516 0.00964,0.01069 0.018439,0.01999 0.029297,0.0293 0.010859,0.0093 0.023228,0.01754 0.035156,0.02539 0.011929,0.0079 0.024252,0.01521 0.037109,0.02148 0.012858,0.0062 0.027384,0.01101 0.041016,0.01563 0.013679,0.0045 0.026966,0.009 0.041016,0.01172 0.01405,0.0027 0.028717,0.0051 0.042969,0.0059 0.014251,8.74e-4 0.028697,9.17e-4 0.042969,0 0.014278,-9.17e-4 0.026893,-0.0032 0.041016,-0.0059 0.014157,-0.0027 0.02935,-0.0073 0.042969,-0.01172 0.013619,-0.0044 0.026137,-0.0095 0.039063,-0.01563 0.012925,-0.0061 0.026993,-0.01186 0.039063,-0.01953 0.01207,-0.0077 0.022143,-0.01617 0.033203,-0.02539 0.011073,-0.0093 0.021523,-0.02068 0.03125,-0.03125 0.00973,-0.01058 0.019057,-0.01954 0.027344,-0.03125 0.00829,-0.01171 0.014746,-0.02441 0.021484,-0.03711 0.00674,-0.0127 0.014449,-0.02747 0.019531,-0.04102 l 0.3359375,-1.009766 c 0.00692,-0.02095 0.010979,-0.04257 0.013672,-0.06445 0.00256,-0.02182 0.00363,-0.04255 0.00195,-0.06445 -0.00135,-0.02221 -0.00409,-0.0449 -0.00977,-0.06641 -0.00586,-0.02133 -0.013534,-0.04078 -0.023437,-0.06055 -0.010003,-0.01952 -0.023504,-0.03943 -0.037109,-0.05664 -0.013268,-0.01764 -0.02651,-0.03412 -0.042969,-0.04883 -0.016675,-0.01445 -0.035509,-0.02619 -0.054687,-0.03711 -0.019253,-0.01073 -0.039577,-0.02057 -0.060547,-0.02734 -0.020976,-0.0071 -0.042635,-0.01076 -0.064453,-0.01367 -0.010909,-0.0015 -0.022235,-0.0034 -0.033203,-0.0039 z m 2.0195312,0 c -0.010969,-5e-4 -0.022244,0.0012 -0.033203,0.002 -0.014608,10e-4 -0.028528,0.003 -0.042969,0.0059 -0.014521,0.0029 -0.027094,0.007 -0.041016,0.01172 -0.013921,0.0048 -0.027862,0.01106 -0.041016,0.01758 -0.013154,0.0065 -0.026852,0.0133 -0.039063,0.02149 -0.012211,0.0082 -0.024055,0.01754 -0.035156,0.02734 -0.011067,0.0098 -0.02163,0.02013 -0.03125,0.03125 -0.00962,0.01113 -0.019279,0.0229 -0.027344,0.03516 -0.00807,0.01227 -0.013123,0.02582 -0.019531,0.03906 -0.00639,0.01324 -0.012933,0.02499 -0.017578,0.03906 l -0.6738271,2.01944 c -0.00397,0.01382 -0.00567,0.02884 -0.00781,0.04297 -0.00215,0.01412 -0.00552,0.02676 -0.00586,0.04101 -3.318e-4,0.01425 0.00244,0.03072 0.00391,0.04492 0.00149,0.0142 0.00256,0.02702 0.00586,0.04102 0.00323,0.01408 0.00675,0.02754 0.011719,0.04102 0.00498,0.01347 0.012906,0.02635 0.019531,0.03906 0.00667,0.0127 0.013278,0.02534 0.021484,0.03711 0.00822,0.01178 0.017636,0.02447 0.027344,0.03516 0.00964,0.01069 0.018439,0.01999 0.029297,0.0293 0.010858,0.0093 0.023227,0.01754 0.035156,0.02539 0.011929,0.0079 0.024252,0.01521 0.037109,0.02149 0.012858,0.0062 0.025432,0.011 0.039063,0.01562 0.013679,0.0045 0.028919,0.009 0.042969,0.01172 0.01405,0.0027 0.026764,0.0051 0.041016,0.0059 0.014251,8.75e-4 0.03065,9.17e-4 0.044922,0 0.014278,-9.16e-4 0.026893,-0.0032 0.041016,-0.0059 0.014157,-0.0027 0.02935,-0.0073 0.042969,-0.01172 0.013619,-0.0044 0.026139,-0.0095 0.039063,-0.01562 0.012925,-0.0061 0.025039,-0.01186 0.037109,-0.01953 0.01207,-0.0077 0.024095,-0.01617 0.035156,-0.02539 0.011074,-0.0093 0.021523,-0.02068 0.03125,-0.03125 0.00973,-0.01058 0.019057,-0.01954 0.027344,-0.03125 0.00829,-0.01172 0.014746,-0.02441 0.021484,-0.03711 0.00674,-0.0127 0.012496,-0.02747 0.017578,-0.04101 L 8.654304,13.724628 c 0.00692,-0.02095 0.010979,-0.04257 0.013672,-0.06445 0.00256,-0.02182 0.00363,-0.04255 0.00195,-0.06445 -0.00135,-0.02221 -0.00409,-0.0449 -0.00977,-0.06641 -0.00586,-0.02133 -0.013534,-0.04078 -0.023437,-0.06055 -0.010003,-0.01952 -0.023504,-0.03943 -0.037109,-0.05664 -0.013268,-0.01764 -0.02651,-0.03412 -0.042969,-0.04883 -0.016675,-0.01445 -0.035508,-0.02619 -0.054687,-0.03711 -0.019253,-0.01073 -0.039577,-0.02057 -0.060547,-0.02734 -0.020977,-0.0071 -0.042635,-0.01076 -0.064453,-0.01367 -0.010909,-0.0015 -0.022234,-0.0034 -0.033203,-0.0039 z m 2.019531,0 c -0.01097,-5e-4 -0.02225,0.0012 -0.0332,0.002 -0.01461,10e-4 -0.02853,0.003 -0.04297,0.0059 -0.01452,0.0029 -0.02708,0.007 -0.04101,0.01172 -0.01392,0.0048 -0.02787,0.01106 -0.04102,0.01758 -0.01316,0.0065 -0.02685,0.0133 -0.03906,0.02149 -0.01221,0.0082 -0.02407,0.01754 -0.03516,0.02734 -0.01107,0.0098 -0.02163,0.02013 -0.03125,0.03125 -0.0096,0.01113 -0.01927,0.0229 -0.02734,0.03516 -0.0081,0.01227 -0.01313,0.02582 -0.01953,0.03906 -0.0064,0.01324 -0.01293,0.02499 -0.01758,0.03906 l -0.3359372,1.009765 c -0.00394,0.01382 -0.00762,0.02884 -0.00977,0.04297 -0.00211,0.01412 -0.00364,0.02676 -0.00391,0.04102 -3.32e-4,0.01425 3.931e-4,0.03072 0.00195,0.04492 0.00147,0.0142 0.00451,0.02701 0.00781,0.04101 0.00321,0.01408 0.00676,0.02754 0.011719,0.04102 0.00495,0.01347 0.010958,0.02635 0.017578,0.03906 0.00669,0.0127 0.015232,0.02533 0.023437,0.03711 0.00825,0.01178 0.015681,0.02447 0.025391,0.03516 0.00964,0.01069 0.018441,0.01999 0.029297,0.0293 0.010856,0.0093 0.023227,0.01754 0.035156,0.02539 0.011929,0.0079 0.024254,0.01521 0.037109,0.02148 0.012855,0.0062 0.027382,0.01101 0.041016,0.01563 0.01368,0.0045 0.02696,0.009 0.041016,0.01172 0.014047,0.0027 0.028711,0.0051 0.042969,0.0059 0.01425,8.74e-4 0.02869,9.17e-4 0.04297,0 0.01428,-9.17e-4 0.02884,-0.0032 0.04297,-0.0059 0.01416,-0.0027 0.02738,-0.0073 0.04101,-0.01172 0.01362,-0.0044 0.02614,-0.0095 0.03906,-0.01563 0.01293,-0.0061 0.02699,-0.01186 0.03906,-0.01953 0.01207,-0.0077 0.02214,-0.01617 0.0332,-0.02539 0.01108,-0.0093 0.02152,-0.02068 0.03125,-0.03125 0.0097,-0.01058 0.01905,-0.01954 0.02734,-0.03125 0.0083,-0.01171 0.01474,-0.02441 0.02148,-0.03711 0.0067,-0.0127 0.01445,-0.02747 0.01953,-0.04102 l 0.335937,-1.009766 c 0.0069,-0.02095 0.01291,-0.04257 0.01563,-0.06445 0.0026,-0.02182 0.0016,-0.04255 0,-0.06445 -0.0014,-0.02221 -0.0041,-0.0449 -0.0098,-0.06641 -0.0059,-0.02133 -0.01353,-0.04078 -0.02344,-0.06055 -0.01,-0.01952 -0.02156,-0.03943 -0.03516,-0.05664 -0.01327,-0.01764 -0.02845,-0.03412 -0.04492,-0.04883 -0.01668,-0.01445 -0.03552,-0.02619 -0.05469,-0.03711 -0.01925,-0.01073 -0.03958,-0.02057 -0.06055,-0.02734 -0.02099,-0.007 -0.04264,-0.01075 -0.06445,-0.01367 -0.01091,-0.0015 -0.02223,-0.0034 -0.0332,-0.0039 z" />
  <path
     d="m 10.94318,0.03981143 c -0.0483,-0.0020428 -0.0966,0.0044638 -0.14264,0.01923204 C 10.559883,0.13442158 10.327394,0.23375253 10.106568,0.35554423 9.8860502,0.47711604 9.6782619,0.62047303 9.4863218,0.78346651 9.2944511,0.94666535 9.1194153,1.1286809 8.9638398,1.3267833 8.8083021,1.5248542 8.6729984,1.7380108 8.5599587,1.9630572 8.4463938,2.1879479 8.3556544,2.423656 8.2891008,2.6666446 c -0.065876,0.2431398 -0.107216,0.4922705 -0.1234077,0.743655 -0.014245,0.2363624 -0.00615,0.473543 0.024043,0.7083955 0.1605828,0.00973 0.3205418,0.027913 0.4792085,0.054491 0.128739,0.032377 0.2560077,0.070345 0.3814439,0.113792 0.1369687,0.034321 0.2722759,0.074966 0.4054839,0.1218056 0.2537584,0.1024106 0.4978161,0.2273894 0.7292306,0.3734303 0.231936,0.1462577 0.450249,0.3130772 0.652301,0.4984415 0.202083,0.1849729 0.387138,0.3877297 0.552932,0.6058222 0.165869,0.2183224 0.311769,0.4511181 0.435936,0.6955737 0.0021,0.00484 0.0043,0.00961 0.0064,0.014426 0.121103,0.2397174 0.220858,0.489638 0.298104,0.7468602 0.005,0.022935 0.0098,0.045911 0.01443,0.068912 0.217439,-0.01066 0.433546,-0.04016 0.645889,-0.08815 0.229846,-0.053634 0.454144,-0.1287604 0.669931,-0.2243782 0.216148,-0.096289 0.422743,-0.2127334 0.617042,-0.347787 0.193897,-0.1344691 0.37473,-0.2868625 0.540111,-0.4551684 0.165995,-0.1687821 0.31571,-0.35284 0.447155,-0.5497278 0.02624,-0.040192 0.04523,-0.08467 0.0561,-0.1314217 0.01172,-0.047135 0.01498,-0.095972 0.0096,-0.1442433 -0.0058,-0.047495 -0.01994,-0.093597 -0.04167,-0.1362302 -0.02133,-0.043147 -0.05009,-0.08221 -0.08494,-0.1153946 -0.03563,-0.033201 -0.07686,-0.059788 -0.121805,-0.07853 -0.04424,-0.018767 -0.09144,-0.029615 -0.139435,-0.032051 -0.04822,-0.00254 -0.0965,0.00345 -0.142641,0.017626 -0.209861,0.06618 -0.426508,0.1086481 -0.645856,0.126614 -0.219659,0.017692 -0.44061,0.010709 -0.658711,-0.020835 C 13.077767,5.201039 12.863801,5.1451276 12.658077,5.0658943 12.452305,4.9865857 12.256081,4.884442 12.073087,4.7613797 11.890481,4.6384461 11.722216,4.4954479 11.571441,4.3350603 11.420184,4.1746515 11.287399,3.9977818 11.175572,3.8077704 11.064213,3.6180455 10.974436,3.4164517 10.907921,3.2067561 10.841199,2.9969229 10.798191,2.7802745 10.779704,2.560866 c -0.01822,-0.2195989 -0.01177,-0.4405501 0.01923,-0.6587116 0.0305,-0.2180622 0.08534,-0.4320227 0.163476,-0.6378766 0.07869,-0.2062529 0.180299,-0.40301684 0.30291,-0.58658993 h -0.0016 c 0.02681,-0.0400766 0.04634,-0.0845648 0.05769,-0.13142172 0.01153,-0.0466174 0.01479,-0.0948975 0.0096,-0.1426407 C 11.32531,0.35558435 11.31124,0.30892115 11.28934,0.26579279 11.26802,0.22264319 11.23926,0.18358269 11.2044,0.15039804 11.168767,0.11720043 11.127532,0.09060781 11.082588,0.07186563 11.03838,0.0530972 10.99119,0.04224738 10.943189,0.03981149 Z"
     style="display:none;fill:#2ad4ff;stroke-width:0.820585"
     id="path4-9" />
  <path
     d="m 6.400166,13.13898 c -0.00496,3.72e-4 -0.00944,0.0014 -0.014373,0.0024 -0.00987,0.0019 -0.019482,0.0046 -0.028741,0.0084 -0.00926,0.0038 -0.017955,0.0089 -0.02635,0.01437 -0.00839,0.0055 -0.016704,0.012 -0.023952,0.01916 -0.00717,0.0072 -0.013638,0.01557 -0.019163,0.02395 -0.00552,0.0084 -0.010609,0.01709 -0.014373,0.02635 -0.00374,0.0092 -0.00648,0.01888 -0.00838,0.02874 -0.0019,0.0099 -0.00245,0.01974 -0.0024,0.02994 v 0.348527 L 5.9546269,13.465949 c -0.00878,-0.0048 -0.018133,-0.009 -0.027545,-0.01198 -0.00941,-0.003 -0.018979,-0.0048 -0.028741,-0.006 -0.00976,-0.0011 -0.020102,-7.98e-4 -0.029944,0 -0.00984,7.97e-4 -0.019102,0.0021 -0.028741,0.0048 -0.00965,0.0028 -0.018746,0.0063 -0.027545,0.01079 -0.0088,0.0045 -0.017421,0.01066 -0.025154,0.01677 -0.00774,0.0062 -0.015109,0.01285 -0.021561,0.02036 -0.00645,0.0075 -0.011829,0.01522 -0.016765,0.02396 -0.00491,0.0088 -0.00889,0.01815 -0.011976,0.02754 -0.00307,0.0094 -0.00478,0.01898 -0.00601,0.02875 -0.00122,0.0098 -0.0019,0.01888 -0.00122,0.02874 6.745e-4,0.0099 0.0022,0.02026 0.00478,0.02994 0.00258,0.0097 0.00647,0.01869 0.01078,0.02754 0.00429,0.0089 0.00848,0.01732 0.014373,0.02516 0.00589,0.0078 0.013043,0.01497 0.020359,0.02156 0.00731,0.0066 0.01538,0.01283 0.023952,0.01797 l 0.3030175,0.173698 -0.3030151,0.173664 c -0.00857,0.0052 -0.016636,0.01137 -0.023952,0.01797 -0.00732,0.0066 -0.01446,0.01372 -0.020358,0.02156 -0.00589,0.0078 -0.010057,0.0163 -0.014373,0.02516 -0.00429,0.0089 -0.00822,0.01789 -0.01078,0.02754 -0.00258,0.0097 -0.00411,0.02008 -0.00478,0.02994 -6.746e-4,0.0099 -2.33e-5,0.01898 0.00122,0.02874 0.00122,0.0098 0.00289,0.01936 0.00601,0.02874 0.00307,0.0094 0.00706,0.01881 0.011976,0.02754 0.00496,0.0088 0.01032,0.01644 0.016765,0.02396 0.00645,0.0075 0.013828,0.01426 0.021561,0.02036 0.00774,0.0062 0.016354,0.01224 0.025154,0.01677 0.0088,0.0045 0.017899,0.008 0.027545,0.01078 0.00965,0.0027 0.018899,0.0039 0.028741,0.0048 0.00984,7.97e-4 0.020175,0.0011 0.029944,0 0.00976,-0.0011 0.019335,-0.003 0.028741,-0.006 0.00941,-0.003 0.018764,-0.0072 0.027545,-0.01198 l 0.3078029,-0.176027 v 0.349724 c -7.78e-5,0.01019 4.961e-4,0.02008 0.0024,0.02994 0.0019,0.0099 0.0046,0.01948 0.00838,0.02874 0.00374,0.0092 0.00885,0.01796 0.014373,0.02635 0.00552,0.0084 0.011994,0.0167 0.019163,0.02396 0.00724,0.0072 0.015563,0.01364 0.023952,0.01916 0.00839,0.0055 0.017084,0.01061 0.02635,0.01437 0.00926,0.0038 0.018881,0.0064 0.028741,0.0084 0.00987,0.0019 0.019746,0.0025 0.029944,0.0024 0.010191,7.8e-5 0.020077,-4.96e-4 0.029944,-0.0024 0.00987,-0.0019 0.019482,-0.0046 0.028741,-0.0084 0.00926,-0.0038 0.017955,-0.0089 0.02635,-0.01437 0.00839,-0.0055 0.016704,-0.012 0.023952,-0.01916 0.00717,-0.0072 0.013638,-0.01557 0.019163,-0.02396 0.00552,-0.0084 0.010609,-0.01709 0.014373,-0.02635 0.00374,-0.0092 0.00648,-0.01889 0.00838,-0.02874 0.0019,-0.0099 0.00245,-0.01974 0.0024,-0.02994 v -0.348683 l 0.3078054,0.174862 c 0.00878,0.0048 0.018132,0.009 0.027545,0.01198 0.00941,0.003 0.018979,0.0048 0.028741,0.006 0.00976,0.0011 0.020102,7.96e-4 0.029944,0 0.00984,-7.98e-4 0.019102,-0.0021 0.028742,-0.0048 0.00965,-0.0028 0.018746,-0.0063 0.027545,-0.01078 0.0088,-0.0045 0.017421,-0.01066 0.025154,-0.01677 0.00774,-0.0062 0.015109,-0.01285 0.021561,-0.02036 0.00645,-0.0075 0.011829,-0.01522 0.016765,-0.02396 0.00491,-0.0088 0.00889,-0.01815 0.011976,-0.02754 0.00307,-0.0094 0.00478,-0.01898 0.00601,-0.02874 0.00122,-0.0098 0.0019,-0.01888 0.00122,-0.02874 -6.745e-4,-0.0099 -0.0022,-0.02026 -0.00478,-0.02994 -0.00258,-0.0096 -0.00647,-0.01869 -0.01078,-0.02754 -0.00429,-0.0089 -0.00848,-0.01732 -0.014373,-0.02515 -0.00589,-0.0078 -0.013043,-0.01497 -0.020358,-0.02156 -0.00732,-0.0066 -0.01538,-0.01283 -0.023952,-0.01796 L 6.7247723,13.9055 7.0277873,13.731835 c 0.00857,-0.0052 0.016636,-0.01137 0.023952,-0.01796 0.00731,-0.0066 0.01446,-0.01372 0.020359,-0.02156 0.00589,-0.0078 0.010057,-0.0163 0.014373,-0.02516 0.00429,-0.0089 0.00822,-0.01789 0.01078,-0.02754 0.00258,-0.0097 0.00411,-0.02008 0.00478,-0.02994 6.746e-4,-0.0099 2.34e-5,-0.01898 -0.00122,-0.02874 -0.00122,-0.0098 -0.00289,-0.01936 -0.00601,-0.02874 -0.00307,-0.0094 -0.00706,-0.01881 -0.011976,-0.02754 -0.00496,-0.0088 -0.01032,-0.01644 -0.016765,-0.02395 -0.00645,-0.0075 -0.013828,-0.01426 -0.021561,-0.02036 -0.00774,-0.0062 -0.016354,-0.01224 -0.025154,-0.01677 -0.0088,-0.0045 -0.017899,-0.008 -0.027545,-0.01078 -0.00965,-0.0027 -0.018899,-0.0039 -0.028741,-0.0048 -0.00984,-7.96e-4 -0.020175,-0.0011 -0.029944,0 -0.00976,0.0011 -0.019335,0.003 -0.028741,0.006 -0.00941,0.003 -0.018764,0.0072 -0.027546,0.01198 l -0.307803,0.176027 v -0.349725 c 1.282e-4,-0.01332 -0.00147,-0.02661 -0.00478,-0.03952 -0.00356,-0.01301 -0.00876,-0.02549 -0.015569,-0.03713 -0.00653,-0.01179 -0.014582,-0.02266 -0.023952,-0.03234 -0.00968,-0.0093 -0.020555,-0.01742 -0.032334,-0.02395 -0.011639,-0.0068 -0.024124,-0.01204 -0.03713,-0.01557 -0.012908,-0.0033 -0.026196,-0.0049 -0.039522,-0.0048 -0.00509,-3.9e-5 -0.010591,-3.71e-4 -0.015569,0 z m 3.3726861,0 c -0.00496,3.72e-4 -0.00944,0.0014 -0.014373,0.0024 -0.00987,0.0019 -0.019482,0.0046 -0.028741,0.0084 -0.00926,0.0038 -0.017955,0.0089 -0.02635,0.01437 -0.00839,0.0055 -0.016704,0.012 -0.023952,0.01916 -0.00717,0.0072 -0.013638,0.01557 -0.019163,0.02395 -0.00552,0.0084 -0.010602,0.01709 -0.014373,0.02635 -0.00374,0.0092 -0.00648,0.01888 -0.00838,0.02874 -0.0019,0.0099 -0.00245,0.01974 -0.0024,0.02994 v 0.348527 L 9.327313,13.465949 c -0.00878,-0.0048 -0.018133,-0.009 -0.027545,-0.01198 -0.00941,-0.003 -0.018979,-0.0048 -0.028741,-0.006 -0.00976,-0.0011 -0.020102,-7.98e-4 -0.029944,0 -0.00984,7.97e-4 -0.019102,0.0021 -0.028741,0.0048 -0.00965,0.0028 -0.018746,0.0063 -0.027546,0.01079 -0.0088,0.0045 -0.017421,0.01066 -0.025154,0.01677 -0.00774,0.0062 -0.015109,0.01285 -0.021561,0.02036 -0.00645,0.0075 -0.011829,0.01522 -0.016765,0.02396 -0.00491,0.0088 -0.00889,0.01815 -0.011976,0.02754 -0.00307,0.0094 -0.00478,0.01898 -0.00601,0.02875 -0.00122,0.0098 -0.0019,0.01888 -0.00122,0.02874 6.745e-4,0.0099 0.0022,0.02026 0.00478,0.02994 0.00258,0.0097 0.00647,0.01869 0.01078,0.02754 0.00429,0.0089 0.00848,0.01732 0.014373,0.02516 0.00589,0.0078 0.013043,0.01497 0.020358,0.02156 0.00731,0.0066 0.01538,0.01283 0.023952,0.01797 l 0.3030176,0.173698 -0.3030152,0.173664 c -0.00857,0.0052 -0.016636,0.01137 -0.023952,0.01797 -0.00732,0.0066 -0.01446,0.01372 -0.020359,0.02156 -0.00589,0.0078 -0.010057,0.0163 -0.014373,0.02516 -0.00429,0.0089 -0.00822,0.01789 -0.01078,0.02754 -0.00258,0.0097 -0.00411,0.02008 -0.00478,0.02994 -6.745e-4,0.0099 -2.33e-5,0.01898 0.00122,0.02874 0.00122,0.0098 0.00289,0.01936 0.00601,0.02874 0.00307,0.0094 0.00706,0.01881 0.011976,0.02754 0.00496,0.0088 0.01032,0.01644 0.016765,0.02396 0.00645,0.0075 0.013828,0.01426 0.021561,0.02036 0.00774,0.0062 0.016354,0.01224 0.025154,0.01677 0.0088,0.0045 0.017899,0.008 0.027545,0.01078 0.00965,0.0027 0.018899,0.0039 0.028741,0.0048 0.00984,7.97e-4 0.020175,0.0011 0.029944,0 0.00976,-0.0011 0.019335,-0.003 0.028741,-0.006 0.00941,-0.003 0.018764,-0.0072 0.027546,-0.01198 l 0.307803,-0.176027 v 0.349724 c -7.8e-5,0.01019 4.96e-4,0.02008 0.0024,0.02994 0.0019,0.0099 0.0046,0.01948 0.00838,0.02874 0.00374,0.0092 0.00885,0.01796 0.014373,0.02635 0.00552,0.0084 0.011994,0.0167 0.019163,0.02396 0.00724,0.0072 0.015563,0.01364 0.023952,0.01916 0.00839,0.0055 0.017085,0.01061 0.02635,0.01437 0.00926,0.0038 0.018881,0.0064 0.028741,0.0084 0.00987,0.0019 0.019746,0.0025 0.029944,0.0024 0.010191,7.8e-5 0.020077,-4.96e-4 0.029944,-0.0024 0.00987,-0.0019 0.019482,-0.0046 0.028741,-0.0084 0.00926,-0.0038 0.017955,-0.0089 0.02635,-0.01437 0.00839,-0.0055 0.016705,-0.012 0.023952,-0.01916 0.00717,-0.0072 0.013638,-0.01557 0.019163,-0.02396 0.00552,-0.0084 0.010602,-0.01709 0.014374,-0.02635 0.00375,-0.0092 0.00645,-0.01889 0.00837,-0.02874 0.00192,-0.0099 0.00241,-0.01974 0.00241,-0.02994 v -0.348683 l 0.3078056,0.174862 c 0.0088,0.0048 0.01814,0.009 0.02754,0.01198 0.0094,0.003 0.01898,0.0048 0.02875,0.006 0.0098,0.0011 0.0201,7.96e-4 0.02994,0 0.0098,-7.98e-4 0.0191,-0.0021 0.02875,-0.0048 0.0097,-0.0028 0.01874,-0.0063 0.02754,-0.01078 0.0088,-0.0045 0.01742,-0.01066 0.02516,-0.01677 0.0077,-0.0062 0.01511,-0.01285 0.02156,-0.02036 0.0064,-0.0075 0.01182,-0.01522 0.01677,-0.02396 0.0049,-0.0088 0.0089,-0.01815 0.01198,-0.02754 0.0031,-0.0094 0.0048,-0.01898 0.006,-0.02874 0.0013,-0.0098 0.0019,-0.01888 0.0013,-0.02874 -6.74e-4,-0.0099 -0.0022,-0.02026 -0.0048,-0.02994 -0.0026,-0.0096 -0.0064,-0.01869 -0.01079,-0.02754 -0.0043,-0.0089 -0.0085,-0.01732 -0.01437,-0.02515 -0.0059,-0.0078 -0.01305,-0.01497 -0.02036,-0.02156 -0.0073,-0.0066 -0.01538,-0.01283 -0.02396,-0.01796 l -0.303022,-0.173698 0.303016,-0.173665 c 0.0086,-0.0052 0.01663,-0.01137 0.02396,-0.01796 0.0073,-0.0066 0.01446,-0.01372 0.02036,-0.02156 0.0059,-0.0078 0.01005,-0.0163 0.01437,-0.02516 0.0043,-0.0089 0.0082,-0.01789 0.01078,-0.02754 0.0026,-0.0097 0.0041,-0.02008 0.0048,-0.02994 6.74e-4,-0.0099 2.3e-5,-0.01898 -0.0013,-0.02874 -0.0013,-0.0098 -0.0029,-0.01936 -0.006,-0.02874 -0.0031,-0.0094 -0.007,-0.01881 -0.01198,-0.02754 -0.005,-0.0088 -0.01032,-0.01644 -0.01677,-0.02396 -0.0064,-0.0075 -0.01383,-0.01426 -0.02156,-0.02036 -0.0077,-0.0062 -0.01636,-0.01224 -0.02515,-0.01677 -0.0088,-0.0045 -0.0179,-0.008 -0.02754,-0.01077 -0.0096,-0.0027 -0.01889,-0.0039 -0.02874,-0.0048 -0.0098,-7.97e-4 -0.02017,-0.0011 -0.02994,0 -0.0098,0.0011 -0.01934,0.003 -0.02874,0.006 -0.0094,0.003 -0.01876,0.0072 -0.02754,0.01198 l -0.3078022,0.176027 v -0.349724 c 1.27e-4,-0.01333 -0.00144,-0.02661 -0.00481,-0.03952 -0.00356,-0.01301 -0.00876,-0.02549 -0.015569,-0.03713 -0.00653,-0.01178 -0.014582,-0.02266 -0.023952,-0.03233 -0.00968,-0.0093 -0.020555,-0.01742 -0.032335,-0.02396 -0.011639,-0.0068 -0.024124,-0.01204 -0.03713,-0.01557 -0.012908,-0.0033 -0.026196,-0.0049 -0.039522,-0.0048 -0.00509,-3.9e-5 -0.010591,-3.71e-4 -0.015569,0 z M 8.086509,14.365411 c -0.00496,3.72e-4 -0.00944,0.0014 -0.014373,0.0024 -0.00987,0.0019 -0.019482,0.0046 -0.028741,0.0084 -0.00926,0.0038 -0.017955,0.0089 -0.02635,0.01437 -0.00839,0.0055 -0.016704,0.012 -0.023952,0.01916 -0.00717,0.0072 -0.013638,0.01557 -0.019163,0.02396 -0.00552,0.0084 -0.010609,0.01709 -0.014373,0.02635 -0.00374,0.0092 -0.00648,0.01887 -0.00838,0.02874 -0.0019,0.0099 -0.00245,0.01974 -0.0024,0.02994 v 0.348526 L 7.6409698,14.69238 c -0.00878,-0.0048 -0.018133,-0.009 -0.027546,-0.01198 -0.00941,-0.003 -0.018979,-0.0048 -0.028741,-0.006 -0.00976,-0.0011 -0.020102,-7.98e-4 -0.029944,0 -0.00984,7.97e-4 -0.019102,0.0021 -0.028741,0.0048 -0.00965,0.0028 -0.018746,0.0063 -0.027546,0.01079 -0.0088,0.0045 -0.017421,0.01066 -0.025154,0.01677 -0.00774,0.0062 -0.015109,0.01285 -0.02156,0.02036 -0.00645,0.0075 -0.011829,0.01522 -0.016765,0.02396 -0.00491,0.0088 -0.00889,0.01815 -0.011976,0.02754 -0.00307,0.0094 -0.00478,0.01898 -0.00601,0.02875 -0.00122,0.0098 -0.0019,0.01888 -0.00122,0.02874 6.746e-4,0.0099 0.0022,0.02026 0.00478,0.02994 0.00258,0.0097 0.00647,0.01869 0.01078,0.02754 0.00429,0.0089 0.00848,0.01732 0.014373,0.02516 0.00589,0.0078 0.013043,0.01497 0.020358,0.02156 0.00731,0.0066 0.01538,0.01283 0.023952,0.01796 l 0.3030174,0.173697 -0.303015,0.173665 c -0.00857,0.0052 -0.016636,0.01137 -0.023952,0.01797 -0.00732,0.0066 -0.01446,0.01372 -0.020359,0.02156 -0.00589,0.0078 -0.010057,0.0163 -0.014373,0.02516 -0.00429,0.0089 -0.00822,0.01789 -0.01078,0.02754 -0.00258,0.0097 -0.00411,0.02008 -0.00478,0.02994 -6.745e-4,0.0099 -2.32e-5,0.01898 0.00122,0.02875 0.00122,0.0098 0.00289,0.01936 0.00601,0.02874 0.00307,0.0094 0.00706,0.01881 0.011976,0.02754 0.00496,0.0088 0.01032,0.01644 0.016765,0.02396 0.00645,0.0075 0.013828,0.01426 0.021561,0.02036 0.00774,0.0062 0.016354,0.01224 0.025155,0.01677 0.0088,0.0045 0.017899,0.008 0.027546,0.01079 0.00965,0.0027 0.018899,0.0039 0.028741,0.0048 0.00984,7.98e-4 0.020175,0.0011 0.029944,0 0.00976,-0.0011 0.019335,-0.003 0.028741,-0.006 0.00941,-0.003 0.018764,-0.0072 0.027545,-0.01198 l 0.307803,-0.176027 v 0.349724 c -7.78e-5,0.01019 4.962e-4,0.02008 0.0024,0.02994 0.0019,0.0099 0.0046,0.01948 0.00838,0.02875 0.00374,0.0092 0.00885,0.01796 0.014373,0.02635 0.00552,0.0084 0.011994,0.0167 0.019163,0.02396 0.00724,0.0072 0.015563,0.01363 0.023952,0.01916 0.00839,0.0055 0.017085,0.01061 0.02635,0.01437 0.00926,0.0038 0.018881,0.0064 0.028741,0.0084 0.00987,0.0019 0.019746,0.0024 0.029944,0.0024 0.010191,7.8e-5 0.020077,-4.96e-4 0.029944,-0.0024 0.00987,-0.0019 0.019482,-0.0046 0.028741,-0.0084 0.00926,-0.0038 0.017955,-0.0089 0.02635,-0.01437 0.00839,-0.0055 0.016704,-0.012 0.023952,-0.01916 0.00717,-0.0072 0.013638,-0.01557 0.019163,-0.02396 0.00552,-0.0084 0.010609,-0.01709 0.014373,-0.02635 0.00374,-0.0092 0.00648,-0.01889 0.00838,-0.02875 0.0019,-0.0099 0.00245,-0.01974 0.0024,-0.02994 v -0.348526 l 0.3078055,0.174862 c 0.00878,0.0048 0.018132,0.009 0.027545,0.01198 0.00941,0.003 0.018979,0.0048 0.028741,0.006 0.00976,0.0011 0.020102,7.96e-4 0.029944,0 0.00984,-7.98e-4 0.019102,-0.0021 0.028741,-0.0048 0.00965,-0.0028 0.018746,-0.0063 0.027546,-0.01079 0.0088,-0.0045 0.017421,-0.01066 0.025154,-0.01677 0.00774,-0.0062 0.015109,-0.01285 0.021561,-0.02036 0.00645,-0.0075 0.011829,-0.01522 0.016765,-0.02396 0.00491,-0.0088 0.00889,-0.01815 0.011976,-0.02754 0.00307,-0.0094 0.00478,-0.01898 0.00601,-0.02874 0.00122,-0.0098 0.0019,-0.01888 0.00122,-0.02874 -6.745e-4,-0.0099 -0.0022,-0.02026 -0.00478,-0.02994 -0.00258,-0.0096 -0.00647,-0.01869 -0.01078,-0.02754 -0.00429,-0.0089 -0.00848,-0.01732 -0.014373,-0.02515 -0.00589,-0.0078 -0.013043,-0.01497 -0.020358,-0.02156 -0.00732,-0.0066 -0.01538,-0.01283 -0.023952,-0.01796 l -0.3030224,-0.173698 0.303015,-0.173664 c 0.00857,-0.0052 0.016636,-0.01137 0.023952,-0.01797 0.00731,-0.0066 0.01446,-0.01372 0.020358,-0.02156 0.00589,-0.0078 0.010057,-0.0163 0.014373,-0.02516 0.00429,-0.0089 0.00822,-0.01789 0.01078,-0.02754 0.00258,-0.0097 0.00411,-0.02008 0.00478,-0.02994 6.746e-4,-0.0099 2.34e-5,-0.01898 -0.00122,-0.02875 -0.00122,-0.0098 -0.00289,-0.01936 -0.00601,-0.02874 -0.00307,-0.0094 -0.00706,-0.01881 -0.011976,-0.02754 -0.00496,-0.0088 -0.01032,-0.01644 -0.016765,-0.02396 -0.00645,-0.0075 -0.013828,-0.01426 -0.021561,-0.02036 -0.00774,-0.0062 -0.016354,-0.01224 -0.025154,-0.01677 -0.0088,-0.0045 -0.017899,-0.008 -0.027546,-0.01079 -0.00965,-0.0027 -0.018899,-0.0039 -0.028741,-0.0048 -0.00984,-7.97e-4 -0.020175,-0.0011 -0.029944,0 -0.00976,0.0011 -0.019335,0.003 -0.028741,0.006 -0.00941,0.003 -0.018764,0.0072 -0.027545,0.01198 l -0.307803,0.176027 v -0.349725 c 1.276e-4,-0.01332 -0.00147,-0.02661 -0.00478,-0.03952 -0.00356,-0.01301 -0.00876,-0.0255 -0.015569,-0.03713 -0.00653,-0.01178 -0.014582,-0.02266 -0.023952,-0.03233 -0.00968,-0.0093 -0.020555,-0.01742 -0.032341,-0.02396 -0.011639,-0.0068 -0.024124,-0.01204 -0.03713,-0.01557 -0.012908,-0.0033 -0.026196,-0.0049 -0.039522,-0.0048 -0.00509,-3.9e-5 -0.01059,-3.71e-4 -0.015569,0 z"
     style="display:none;fill:#0000ff;stroke-width:0.613216"
     id="path4-98" />
  <path
     id="path6"
     style="display:inline;fill:#0000ff;stroke-width:0.604649"
     d="m 5.4707636,12.869481 c -0.00491,3.7e-4 -0.00951,0.0014 -0.014373,0.0024 -0.00973,0.0018 -0.019611,0.0046 -0.028741,0.0084 -0.00913,0.0037 -0.018077,0.0077 -0.02635,0.01317 -0.00827,0.0055 -0.015613,0.0121 -0.022756,0.01916 -0.00707,0.0071 -0.013717,0.01568 -0.019163,0.02395 -0.00545,0.0083 -0.010658,0.01722 -0.014373,0.02635 -0.00374,0.0091 -0.00651,0.01782 -0.00838,0.02754 -0.0019,0.0097 -0.00245,0.01989 -0.0024,0.02994 v 0.343744 L 5.0312186,13.19166 c -0.00866,-0.0047 -0.018268,-0.009 -0.027545,-0.01198 -0.00927,-0.003 -0.019114,-0.0048 -0.028741,-0.006 -0.00963,-0.0011 -0.01904,-7.97e-4 -0.028741,0 -0.00971,7.98e-4 -0.019237,0.0021 -0.028741,0.0048 -0.00951,0.0028 -0.018869,0.0063 -0.027546,0.01078 -0.00868,0.0044 -0.01633,0.01076 -0.023952,0.01677 -0.00762,0.006 -0.015202,0.01177 -0.021554,0.01917 -0.00635,0.0074 -0.011896,0.01534 -0.016772,0.02395 -0.00485,0.0087 -0.00894,0.01829 -0.011976,0.02754 -0.00307,0.0092 -0.00478,0.01912 -0.00601,0.02874 -0.00122,0.0096 -0.00184,0.01782 -0.00122,0.02754 6.746e-4,0.0097 0.0022,0.0204 0.00478,0.02994 0.00251,0.0095 0.00652,0.01882 0.01078,0.02754 0.00423,0.0088 0.00855,0.01623 0.014373,0.02396 0.00583,0.0077 0.013148,0.01506 0.020359,0.02156 0.00722,0.0065 0.015502,0.01291 0.023952,0.01797 l 0.2982272,0.171224 -0.2982239,0.171269 c -0.00845,0.005 -0.016734,0.01147 -0.023952,0.01796 -0.00722,0.0065 -0.014546,0.01262 -0.020358,0.02036 -0.00583,0.0077 -0.010118,0.01642 -0.014373,0.02515 -0.00423,0.0088 -0.00825,0.01803 -0.01078,0.02754 -0.00258,0.0095 -0.00411,0.01901 -0.00478,0.02874 -6.745e-4,0.0097 -8.5e-6,0.01912 0.00122,0.02874 0.00122,0.0096 0.00294,0.01948 0.00601,0.02874 0.00307,0.0092 0.00713,0.01773 0.011976,0.02635 0.00485,0.0087 0.010413,0.01655 0.016765,0.02396 0.00635,0.0074 0.013932,0.01433 0.021561,0.02036 0.00762,0.006 0.015282,0.0123 0.023952,0.01677 0.00868,0.0044 0.018035,0.0081 0.027546,0.01078 0.00951,0.0026 0.01904,0.0029 0.028741,0.0037 0.00971,7.98e-4 0.019113,0.0011 0.028741,0 0.00963,-0.0011 0.019464,-0.003 0.028741,-0.006 0.00927,-0.003 0.018887,-0.006 0.027545,-0.01078 l 0.3030088,-0.173666 v 0.344934 c -7.73e-5,0.01005 5.169e-4,0.01902 0.0024,0.02874 0.0019,0.0097 0.00466,0.01962 0.00838,0.02874 0.00374,0.0091 0.00893,0.01808 0.014373,0.02635 0.00546,0.0083 0.012092,0.01561 0.019163,0.02275 0.00715,0.007 0.014484,0.01372 0.022756,0.01916 0.00827,0.0055 0.017219,0.01066 0.02635,0.01437 0.00914,0.0037 0.019015,0.0065 0.028741,0.0084 0.00973,0.0018 0.018691,0.0024 0.028741,0.0024 0.010051,7.7e-5 0.020218,-4.92e-4 0.029944,-0.0024 0.00973,-0.0018 0.019611,-0.0046 0.028741,-0.0084 0.00914,-0.0037 0.016876,-0.0089 0.025154,-0.01437 0.00827,-0.0055 0.016808,-0.0121 0.023952,-0.01916 0.00707,-0.0071 0.013717,-0.01449 0.019163,-0.02275 0.00545,-0.0083 0.010658,-0.01721 0.014373,-0.02635 0.00368,-0.0091 0.00651,-0.01902 0.00838,-0.02874 0.00184,-0.0097 0.00245,-0.01868 0.0024,-0.02874 v -0.343736 l 0.3030142,0.172468 c 0.00866,0.0047 0.018268,0.009 0.027546,0.01198 0.00927,0.003 0.017918,0.0048 0.027545,0.006 0.00963,0.0011 0.020236,7.98e-4 0.029944,0 0.00971,-7.36e-4 0.019237,-0.0021 0.028741,-0.0048 0.00951,-0.0028 0.017673,-0.0063 0.02635,-0.01079 0.00868,-0.0044 0.017526,-0.01076 0.025154,-0.01677 0.00762,-0.006 0.015202,-0.01296 0.021561,-0.02036 0.00635,-0.0074 0.011896,-0.01535 0.016765,-0.02396 0.00485,-0.0087 0.00774,-0.01709 0.01078,-0.02635 0.00307,-0.0092 0.00478,-0.01912 0.00601,-0.02875 0.00122,-0.0096 0.00184,-0.01902 0.00122,-0.02874 -6.746e-4,-0.0097 -0.0022,-0.0192 -0.00478,-0.02874 -0.00251,-0.0095 -0.00534,-0.01882 -0.00958,-0.02754 -0.00423,-0.0088 -0.00855,-0.01742 -0.014373,-0.02516 -0.00583,-0.0077 -0.013148,-0.01386 -0.020358,-0.02036 -0.00722,-0.0064 -0.015502,-0.01291 -0.023952,-0.01796 l -0.2982384,-0.171289 0.2982239,-0.17127 c 0.00845,-0.005 0.016734,-0.01147 0.023952,-0.01796 0.00722,-0.0065 0.014546,-0.01383 0.020359,-0.02156 0.00583,-0.0077 0.010118,-0.01522 0.014373,-0.02395 0.00423,-0.0088 0.00705,-0.01803 0.00958,-0.02754 0.00258,-0.0095 0.00411,-0.02021 0.00478,-0.02994 6.745e-4,-0.0097 8.6e-6,-0.01792 -0.00122,-0.02754 -0.00122,-0.0096 -0.00294,-0.01948 -0.00601,-0.02874 -0.00307,-0.0092 -0.00595,-0.01893 -0.01078,-0.02754 -0.00485,-0.0087 -0.010413,-0.01534 -0.016765,-0.02275 -0.00635,-0.0074 -0.013932,-0.01433 -0.021561,-0.02036 -0.00762,-0.0061 -0.016477,-0.0123 -0.025155,-0.01677 -0.00868,-0.0044 -0.016839,-0.0081 -0.02635,-0.01078 -0.00952,-0.0026 -0.019041,-0.004 -0.028741,-0.0048 -0.00971,-7.36e-4 -0.020316,-0.0011 -0.029944,0 -0.00963,0.0011 -0.018268,0.003 -0.027545,0.006 -0.00927,0.003 -0.018887,0.0072 -0.027546,0.01198 l -0.3030149,0.173664 v -0.344874 c 1.263e-4,-0.01314 -0.00153,-0.02679 -0.00478,-0.03952 -0.00349,-0.01282 -0.00887,-0.02446 -0.015569,-0.03593 -0.00644,-0.01162 -0.014711,-0.0228 -0.023952,-0.03233 -0.00954,-0.0092 -0.020714,-0.01632 -0.032334,-0.02275 -0.011474,-0.0067 -0.023106,-0.01208 -0.035929,-0.01557 -0.01273,-0.0033 -0.02638,-0.0049 -0.039522,-0.0048 -0.00503,-3.8e-5 -0.00946,-3.69e-4 -0.014373,0 z m 1.7905417,0 c -0.00491,3.7e-4 -0.00951,0.0014 -0.014373,0.0024 -0.00973,0.0018 -0.018415,0.0046 -0.027545,0.0084 -0.00913,0.0037 -0.018077,0.0077 -0.02635,0.01317 -0.00827,0.0055 -0.016808,0.0121 -0.023952,0.01916 -0.00707,0.0071 -0.013717,0.01568 -0.019163,0.02395 -0.00545,0.0083 -0.00946,0.01722 -0.013172,0.02635 -0.00374,0.0091 -0.00651,0.01782 -0.00838,0.02754 -0.0019,0.0097 -0.00245,0.01989 -0.0024,0.02994 v 0.343744 L 6.8217647,13.19166 c -0.00866,-0.0047 -0.017066,-0.009 -0.02635,-0.01198 -0.00927,-0.003 -0.019114,-0.0048 -0.028741,-0.006 -0.00963,-0.0011 -0.020236,-7.97e-4 -0.029944,0 -0.00971,7.98e-4 -0.018041,0.0021 -0.027546,0.0048 -0.00951,0.0028 -0.018869,0.0063 -0.027545,0.01078 -0.00868,0.0044 -0.017526,0.01076 -0.025154,0.01677 -0.00762,0.006 -0.015202,0.01177 -0.021561,0.01917 -0.00635,0.0074 -0.0107,0.01534 -0.015569,0.02395 -0.00485,0.0087 -0.00894,0.01829 -0.011976,0.02754 -0.00307,0.0092 -0.00478,0.01912 -0.00601,0.02874 -0.00122,0.0096 -0.00184,0.01782 -0.00122,0.02754 6.745e-4,0.0097 0.0022,0.0204 0.00478,0.02994 0.00251,0.0095 0.00652,0.01882 0.01078,0.02754 0.00423,0.0088 0.00736,0.01623 0.013172,0.02396 0.00583,0.0077 0.013148,0.01506 0.020358,0.02156 0.00722,0.0065 0.015502,0.01291 0.023952,0.01797 l 0.298227,0.171303 -0.2982239,0.171269 c -0.00845,0.005 -0.016734,0.01147 -0.023952,0.01796 -0.00722,0.0065 -0.014546,0.01262 -0.020359,0.02036 -0.00583,0.0077 -0.00892,0.01642 -0.013172,0.02515 -0.00423,0.0088 -0.00825,0.01803 -0.01078,0.02754 -0.00258,0.0095 -0.00411,0.01901 -0.00478,0.02874 -6.745e-4,0.0097 -8.6e-6,0.01912 0.00122,0.02874 0.00122,0.0096 0.00294,0.01948 0.00601,0.02874 0.00307,0.0092 0.00713,0.01773 0.011976,0.02635 0.00485,0.0087 0.00922,0.01655 0.015569,0.02396 0.00635,0.0074 0.013933,0.01434 0.021561,0.02036 0.00762,0.006 0.016478,0.0123 0.025155,0.01677 0.00868,0.0044 0.018035,0.0081 0.027545,0.01079 0.00951,0.0026 0.017845,0.0029 0.027546,0.0037 0.00971,7.98e-4 0.020316,0.0011 0.029944,0 0.00963,-0.0011 0.019464,-0.003 0.028741,-0.006 0.00927,-0.003 0.017692,-0.006 0.026349,-0.01079 l 0.3042127,-0.173665 v 0.344934 c -7.73e-5,0.01005 5.169e-4,0.01902 0.0024,0.02874 0.0019,0.0097 0.00466,0.01962 0.00838,0.02874 0.00374,0.0091 0.00773,0.01808 0.013172,0.02635 0.00545,0.0083 0.012092,0.01561 0.019163,0.02275 0.00715,0.007 0.01568,0.01372 0.023952,0.01916 0.00827,0.0055 0.017219,0.01066 0.02635,0.01437 0.00914,0.0037 0.01782,0.0065 0.027545,0.0084 0.00973,0.0018 0.019893,0.0024 0.029944,0.0024 0.010051,7.7e-5 0.019015,-4.92e-4 0.028741,-0.0024 0.00973,-0.0018 0.019611,-0.0046 0.028741,-0.0084 0.00914,-0.0037 0.018077,-0.0089 0.02635,-0.01437 0.00827,-0.0055 0.016808,-0.0121 0.023952,-0.01916 0.00707,-0.0071 0.012521,-0.01449 0.017968,-0.02275 0.00546,-0.0083 0.010658,-0.01721 0.014373,-0.02635 0.00368,-0.0091 0.00651,-0.01902 0.00838,-0.02874 0.00184,-0.0097 0.00245,-0.01868 0.0024,-0.02874 v -0.343736 l 0.3030143,0.172467 c 0.00866,0.0047 0.018268,0.009 0.027545,0.01198 0.00927,0.003 0.019114,0.0048 0.028741,0.006 0.00963,0.0011 0.01904,7.98e-4 0.028742,0 0.00971,-7.36e-4 0.019237,-0.0021 0.028741,-0.0048 0.00951,-0.0028 0.018868,-0.0063 0.027545,-0.01079 0.00868,-0.0044 0.017526,-0.01076 0.025154,-0.01677 0.00762,-0.006 0.014006,-0.01296 0.020359,-0.02036 0.00635,-0.0074 0.011896,-0.01534 0.016765,-0.02395 0.00485,-0.0087 0.00894,-0.01709 0.011976,-0.02635 0.00307,-0.0092 0.00478,-0.01912 0.00601,-0.02875 0.00122,-0.0096 0.00184,-0.01902 0.00122,-0.02874 -6.745e-4,-0.0097 -0.0022,-0.0192 -0.00478,-0.02874 -0.00251,-0.0095 -0.00652,-0.01882 -0.01078,-0.02754 -0.00423,-0.0088 -0.00855,-0.01742 -0.014373,-0.02516 -0.00583,-0.0077 -0.013141,-0.01386 -0.020359,-0.02036 -0.00722,-0.0064 -0.014306,-0.01291 -0.022756,-0.01796 L 7.581122,13.625225 7.8805435,13.453955 c 0.00845,-0.005 0.015539,-0.01147 0.022756,-0.01796 0.00722,-0.0065 0.014546,-0.01383 0.020359,-0.02156 0.00583,-0.0077 0.010118,-0.01522 0.014373,-0.02395 0.00423,-0.0088 0.00825,-0.01803 0.01078,-0.02754 0.00258,-0.0095 0.00411,-0.02021 0.00478,-0.02994 6.746e-4,-0.0097 8.6e-6,-0.01792 -0.00116,-0.02754 -0.00122,-0.0096 -0.00294,-0.01948 -0.00601,-0.02874 -0.00307,-0.0092 -0.00713,-0.01893 -0.011976,-0.02754 -0.00485,-0.0087 -0.010413,-0.01534 -0.016765,-0.02275 -0.00635,-0.0074 -0.013933,-0.01433 -0.021561,-0.02036 -0.00762,-0.0061 -0.015282,-0.0123 -0.023952,-0.01677 -0.00868,-0.0044 -0.018035,-0.0081 -0.027546,-0.01078 -0.00951,-0.0026 -0.019041,-0.004 -0.028741,-0.0048 -0.00971,-7.36e-4 -0.019114,-0.0011 -0.028741,0 -0.00963,0.0011 -0.019464,0.003 -0.028741,0.006 -0.00927,0.003 -0.018887,0.0072 -0.027545,0.01198 l -0.303015,0.173664 v -0.344874 c 1.264e-4,-0.01314 -0.00153,-0.02679 -0.00478,-0.03952 -0.00349,-0.01282 -0.00887,-0.02446 -0.015569,-0.03593 -0.00644,-0.01162 -0.013515,-0.0228 -0.022756,-0.03233 -0.00954,-0.0092 -0.020714,-0.01632 -0.032334,-0.02275 -0.011474,-0.0067 -0.024302,-0.01208 -0.03713,-0.01557 -0.01273,-0.0033 -0.025185,-0.0049 -0.038326,-0.0048 -0.00503,-3.8e-5 -0.010664,-3.69e-4 -0.015569,0 z m 1.7917394,0 c -0.00491,3.7e-4 -0.00951,0.0014 -0.014373,0.0024 -0.00973,0.0018 -0.019611,0.0046 -0.028741,0.0084 -0.00913,0.0037 -0.018072,0.0077 -0.02635,0.01317 -0.00827,0.0055 -0.015612,0.0121 -0.022756,0.01916 -0.00707,0.0071 -0.013717,0.01568 -0.019163,0.02395 -0.00545,0.0083 -0.010658,0.01722 -0.014373,0.02635 -0.00374,0.0091 -0.00651,0.01782 -0.00838,0.02754 -0.00184,0.0097 -0.00245,0.01989 -0.0024,0.02994 v 0.343744 L 8.6134991,13.19166 c -0.00866,-0.0047 -0.018268,-0.009 -0.027545,-0.01198 -0.00927,-0.003 -0.019113,-0.0048 -0.028741,-0.006 -0.00963,-0.0011 -0.01904,-7.97e-4 -0.028741,0 -0.00971,7.98e-4 -0.019237,0.0021 -0.028741,0.0048 -0.00951,0.0028 -0.018868,0.0063 -0.027545,0.01078 -0.00868,0.0044 -0.01633,0.01076 -0.023952,0.01677 -0.00762,0.006 -0.015202,0.01177 -0.021561,0.01917 -0.00635,0.0074 -0.011896,0.01534 -0.016765,0.02395 -0.00485,0.0087 -0.00894,0.01829 -0.011976,0.02754 -0.00307,0.0092 -0.00478,0.01912 -0.00601,0.02874 -0.00122,0.0096 -0.00184,0.01782 -0.00122,0.02754 6.746e-4,0.0097 0.0022,0.0204 0.00478,0.02994 0.00251,0.0095 0.00652,0.01882 0.01078,0.02754 0.00423,0.0088 0.00855,0.01623 0.014373,0.02396 0.00583,0.0077 0.013148,0.01506 0.020359,0.02156 0.00722,0.0065 0.0143,0.01291 0.022756,0.01797 l 0.2994221,0.17127 -0.2994221,0.171269 c -0.00845,0.005 -0.015538,0.01148 -0.022756,0.01797 -0.00722,0.0065 -0.014546,0.01262 -0.020359,0.02036 -0.00583,0.0077 -0.010118,0.01642 -0.014373,0.02516 -0.00423,0.0088 -0.00825,0.01803 -0.01078,0.02754 -0.00258,0.0095 -0.00411,0.01901 -0.00478,0.02875 -6.745e-4,0.0097 -8.6e-6,0.01912 0.00122,0.02874 0.00122,0.0096 0.00294,0.01948 0.00601,0.02874 0.00307,0.0092 0.00713,0.01773 0.011976,0.02635 0.00485,0.0087 0.010413,0.01655 0.016765,0.02396 0.00635,0.0074 0.013933,0.01433 0.021561,0.02036 0.00762,0.006 0.015282,0.0123 0.023952,0.01677 0.00868,0.0044 0.018035,0.0081 0.027545,0.01078 0.00951,0.0026 0.01904,0.0029 0.028741,0.0037 0.00971,7.97e-4 0.019114,0.0011 0.028741,0 0.00963,-0.0011 0.019464,-0.003 0.028741,-0.006 0.00927,-0.003 0.018887,-0.006 0.027545,-0.01079 l 0.303015,-0.173623 v 0.344934 c -7.66e-5,0.01005 5.176e-4,0.01902 0.0024,0.02875 0.00184,0.0097 0.00466,0.01962 0.00838,0.02874 0.00368,0.0091 0.00893,0.01808 0.014373,0.02635 0.00545,0.0083 0.012092,0.01561 0.019163,0.02275 0.00715,0.007 0.014484,0.01372 0.022756,0.01916 0.00827,0.0055 0.017219,0.01066 0.02635,0.01437 0.00913,0.0037 0.019016,0.0065 0.028741,0.0084 0.00973,0.0018 0.018691,0.0024 0.028741,0.0024 0.010051,7.7e-5 0.020218,-4.92e-4 0.029944,-0.0024 0.00973,-0.0018 0.019611,-0.0046 0.028741,-0.0084 0.00913,-0.0037 0.016876,-0.0089 0.025154,-0.01437 0.00827,-0.0055 0.016808,-0.0121 0.023952,-0.01916 0.00707,-0.0071 0.013717,-0.01449 0.019163,-0.02275 0.00546,-0.0083 0.010658,-0.01721 0.014373,-0.02635 0.00374,-0.0091 0.00651,-0.01902 0.00838,-0.02874 0.00184,-0.0097 0.00245,-0.01868 0.0024,-0.02875 v -0.343736 l 0.3030146,0.172466 c 0.00866,0.0047 0.018261,0.009 0.027545,0.01198 0.00927,0.003 0.017918,0.0048 0.027545,0.006 0.00963,0.0011 0.020236,7.97e-4 0.029944,0 0.00971,-7.36e-4 0.019231,-0.0021 0.028741,-0.0048 0.00951,-0.0028 0.017679,-0.0063 0.02635,-0.01079 0.00868,-0.0044 0.017532,-0.01076 0.025154,-0.01677 0.00762,-0.006 0.015202,-0.01296 0.021561,-0.02036 0.00635,-0.0074 0.011896,-0.01534 0.016765,-0.02396 0.00485,-0.0087 0.00774,-0.01709 0.01078,-0.02635 0.00307,-0.0092 0.00485,-0.01912 0.00601,-0.02875 0.00122,-0.0096 0.0019,-0.01902 0.00122,-0.02874 -6.745e-4,-0.0097 -0.0022,-0.0192 -0.00478,-0.02875 -0.00251,-0.0095 -0.00653,-0.01882 -0.01078,-0.02754 -0.00423,-0.0088 -0.00735,-0.01742 -0.013178,-0.02516 -0.00583,-0.0077 -0.013141,-0.01386 -0.020358,-0.02036 -0.00722,-0.0065 -0.015496,-0.01291 -0.023952,-0.01796 L 9.3728884,13.625261 9.6711123,13.453992 c 0.00845,-0.005 0.016734,-0.01147 0.023952,-0.01796 0.00722,-0.0064 0.014539,-0.01383 0.020359,-0.02156 0.00583,-0.0077 0.00892,-0.01522 0.013179,-0.02396 0.00423,-0.0088 0.00825,-0.01803 0.01078,-0.02754 0.00258,-0.0095 0.00411,-0.02021 0.00478,-0.02994 6.746e-4,-0.0097 -9.8e-6,-0.01791 -0.00122,-0.02754 -0.00122,-0.0096 -0.003,-0.01948 -0.00601,-0.02874 -0.00307,-0.0092 -0.00595,-0.01893 -0.01078,-0.02754 -0.00485,-0.0087 -0.010412,-0.01534 -0.016765,-0.02275 -0.00635,-0.0074 -0.013933,-0.01434 -0.021561,-0.02036 -0.00762,-0.0061 -0.016483,-0.0123 -0.025154,-0.01677 -0.00868,-0.0044 -0.016839,-0.0081 -0.02635,-0.01079 -0.00951,-0.0026 -0.01904,-0.004 -0.028741,-0.0048 -0.00971,-7.36e-4 -0.020309,-0.0011 -0.029944,0 -0.00963,0.0011 -0.018268,0.003 -0.027546,0.006 -0.00927,0.003 -0.018887,0.0072 -0.027545,0.01198 l -0.3030146,0.173664 v -0.344933 c 1.263e-4,-0.01314 -0.00153,-0.02679 -0.00478,-0.03952 -0.00349,-0.01282 -0.00887,-0.02446 -0.015569,-0.03592 -0.00644,-0.01162 -0.014711,-0.0228 -0.023952,-0.03234 -0.00954,-0.0092 -0.020714,-0.01632 -0.032335,-0.02275 -0.011474,-0.0067 -0.023106,-0.01208 -0.035929,-0.01557 -0.01273,-0.0033 -0.02638,-0.0049 -0.039522,-0.0048 -0.00503,-3.9e-5 -0.00946,-3.7e-4 -0.014373,0 z m 1.7905413,0 c -0.0049,3.7e-4 -0.0095,0.0014 -0.01437,0.0024 -0.0097,0.0018 -0.01962,0.0046 -0.02874,0.0084 -0.0091,0.0037 -0.01687,0.0077 -0.02516,0.01317 -0.0083,0.0055 -0.0168,0.0121 -0.02396,0.01916 -0.007,0.0071 -0.01372,0.01568 -0.01917,0.02395 -0.0055,0.0083 -0.01066,0.01722 -0.01437,0.02635 -0.0038,0.0091 -0.0065,0.01782 -0.0084,0.02754 -0.0018,0.0097 -0.0013,0.01989 -0.0013,0.02994 v 0.343744 l -0.304184,-0.172466 c -0.0087,-0.0047 -0.01827,-0.009 -0.02754,-0.01198 -0.0092,-0.003 -0.01792,-0.0048 -0.02754,-0.006 -0.0096,-0.0011 -0.02023,-7.98e-4 -0.02994,0 -0.0097,7.98e-4 -0.01923,0.0021 -0.02874,0.0048 -0.0095,0.0028 -0.01768,0.0063 -0.02635,0.01079 -0.0087,0.0044 -0.01753,0.01076 -0.02515,0.01677 -0.0076,0.006 -0.0152,0.01177 -0.02156,0.01916 -0.0063,0.0074 -0.0107,0.01534 -0.01557,0.02396 -0.0048,0.0087 -0.0089,0.01829 -0.01198,0.02754 -0.0031,0.0092 -0.0048,0.01912 -0.006,0.02874 -0.0013,0.0096 -0.0019,0.01782 -0.0013,0.02754 6.75e-4,0.0097 0.0022,0.0204 0.0048,0.02994 0.0025,0.0095 0.0065,0.01882 0.01079,0.02754 0.0042,0.0088 0.0073,0.01623 0.01317,0.02396 0.0059,0.0077 0.01314,0.01506 0.02036,0.02156 0.0072,0.0065 0.0155,0.01291 0.02396,0.01797 l 0.298224,0.17127 -0.298224,0.171269 c -0.0085,0.005 -0.01673,0.01148 -0.02396,0.01797 -0.0072,0.0065 -0.01454,0.01262 -0.02036,0.02036 -0.0059,0.0077 -0.0089,0.01642 -0.01317,0.02516 -0.0042,0.0088 -0.0083,0.01803 -0.01079,0.02754 -0.0026,0.0095 -0.0041,0.01901 -0.0048,0.02875 -6.74e-4,0.0097 1.1e-5,0.01912 0.0013,0.02874 0.0012,0.0096 0.003,0.01948 0.006,0.02874 0.0031,0.0092 0.0071,0.01773 0.01198,0.02635 0.0048,0.0087 0.0092,0.01655 0.01557,0.02396 0.0063,0.0074 0.01393,0.01434 0.02156,0.02036 0.0076,0.006 0.01648,0.01231 0.02515,0.01677 0.0087,0.0044 0.01684,0.0081 0.02635,0.01078 0.0095,0.0026 0.01904,0.0029 0.02874,0.0037 0.0097,7.97e-4 0.02031,0.0011 0.02994,0 0.0096,-0.0011 0.01827,-0.003 0.02754,-0.006 0.0092,-0.003 0.01889,-0.006 0.02754,-0.01078 l 0.304213,-0.173623 v 0.344934 c -7.7e-5,0.01005 4.93e-4,0.01902 0.0024,0.02875 0.0018,0.0097 0.0035,0.01962 0.0072,0.02874 0.0038,0.0091 0.0089,0.01808 0.01437,0.02635 0.0055,0.0083 0.01209,0.01561 0.01916,0.02275 0.0071,0.007 0.01567,0.01372 0.02396,0.01916 0.0083,0.0055 0.01602,0.01066 0.02516,0.01437 0.0091,0.0037 0.01902,0.0065 0.02874,0.0084 0.0097,0.0018 0.01989,0.0024 0.02994,0.0024 0.01005,7.7e-5 0.01901,-4.92e-4 0.02874,-0.0024 0.0097,-0.0018 0.01962,-0.0046 0.02875,-0.0084 0.0091,-0.0037 0.01808,-0.0089 0.02635,-0.01437 0.0083,-0.0055 0.01561,-0.0121 0.02275,-0.01916 0.007,-0.0071 0.01372,-0.01449 0.01916,-0.02275 0.0055,-0.0083 0.01066,-0.01721 0.01437,-0.02635 0.0038,-0.0091 0.0065,-0.01902 0.0084,-0.02874 0.0018,-0.0097 0.0024,-0.01868 0.0024,-0.02875 V 13.88649 l 0.303014,0.172466 c 0.0087,0.0047 0.01827,0.009 0.02754,0.01198 0.0092,0.003 0.01912,0.0048 0.02874,0.006 0.0096,0.0011 0.01904,7.97e-4 0.02875,0 0.0097,-7.36e-4 0.01923,-0.0021 0.02874,-0.0048 0.0095,-0.0028 0.01888,-0.0063 0.02754,-0.01079 0.0087,-0.0044 0.01633,-0.01076 0.02396,-0.01677 0.0076,-0.006 0.0152,-0.01296 0.02156,-0.02036 0.0063,-0.0074 0.0119,-0.01534 0.01677,-0.02396 0.0048,-0.0087 0.0089,-0.01709 0.01198,-0.02635 0.0031,-0.0092 0.0048,-0.01912 0.006,-0.02875 0.0013,-0.0096 0.0019,-0.01902 0.0013,-0.02874 -6.74e-4,-0.0097 -0.0022,-0.0192 -0.0048,-0.02875 -0.0025,-0.0095 -0.0065,-0.01882 -0.01079,-0.02754 -0.0042,-0.0088 -0.0086,-0.01742 -0.01437,-0.02516 -0.0059,-0.0077 -0.01314,-0.01386 -0.02036,-0.02036 -0.0072,-0.0065 -0.0143,-0.01291 -0.02275,-0.01796 l -0.299422,-0.171269 0.299422,-0.17127 c 0.0085,-0.005 0.01554,-0.01147 0.02275,-0.01796 0.0072,-0.0064 0.01454,-0.01383 0.02036,-0.02156 0.0059,-0.0077 0.01012,-0.01522 0.01437,-0.02395 0.0042,-0.0088 0.0083,-0.01803 0.01079,-0.02754 0.0026,-0.0095 0.0041,-0.02021 0.0048,-0.02994 6.74e-4,-0.0097 -10e-6,-0.01791 -0.0013,-0.02754 -0.0013,-0.0096 -0.003,-0.01948 -0.006,-0.02874 -0.0031,-0.0092 -0.0071,-0.01893 -0.01198,-0.02754 -0.0048,-0.0087 -0.01041,-0.01534 -0.01677,-0.02275 -0.0064,-0.0074 -0.01393,-0.01433 -0.02156,-0.02036 -0.0076,-0.0061 -0.01528,-0.0123 -0.02396,-0.01677 -0.0087,-0.0044 -0.01804,-0.0081 -0.02754,-0.01078 -0.0095,-0.0026 -0.01904,-0.004 -0.02874,-0.0048 -0.0097,-7.36e-4 -0.01911,-0.0011 -0.02875,0 -0.0096,0.0011 -0.01947,0.003 -0.02874,0.006 -0.0092,0.003 -0.01888,0.0072 -0.02754,0.01198 l -0.303014,0.173664 v -0.344934 c 1.26e-4,-0.01314 -0.0015,-0.02679 -0.0048,-0.03952 -0.0035,-0.01282 -0.0089,-0.02446 -0.01557,-0.03592 -0.0064,-0.01162 -0.01471,-0.0228 -0.02396,-0.03233 -0.0095,-0.0092 -0.01952,-0.01632 -0.03114,-0.02275 -0.01147,-0.0067 -0.02431,-0.01208 -0.03713,-0.01557 -0.01273,-0.0033 -0.02519,-0.0049 -0.03833,-0.0048 -0.005,-3.8e-5 -0.01066,-3.69e-4 -0.01557,0 z m -5.783629,1.570168 c -0.00491,3.69e-4 -0.00951,0.0014 -0.014373,0.0024 -0.00973,0.0018 -0.019611,0.0046 -0.028741,0.0084 -0.00913,0.0037 -0.018077,0.0089 -0.02635,0.01437 -0.00827,0.0055 -0.015613,0.0109 -0.022756,0.01796 -0.00707,0.0071 -0.013717,0.01569 -0.019163,0.02395 -0.00545,0.0083 -0.010658,0.01722 -0.014373,0.02635 -0.00368,0.0091 -0.00651,0.01782 -0.00838,0.02754 -0.00184,0.0097 -0.00245,0.01989 -0.0024,0.02994 v 0.343735 L 4.620406,14.761832 c -0.00866,-0.0047 -0.018268,-0.009 -0.027546,-0.01198 -0.00927,-0.003 -0.019114,-0.0048 -0.028741,-0.006 -0.00963,-0.0011 -0.019041,-7.97e-4 -0.028741,0 -0.00971,7.97e-4 -0.019237,0.0021 -0.028741,0.0048 -0.00951,0.0028 -0.018868,0.0063 -0.027546,0.01078 -0.00868,0.0044 -0.01633,0.01076 -0.023952,0.01677 -0.00762,0.006 -0.015202,0.01296 -0.021561,0.02036 -0.00635,0.0074 -0.011896,0.01415 -0.016765,0.02275 -0.00485,0.0087 -0.00894,0.01829 -0.011976,0.02754 -0.00307,0.0092 -0.00478,0.01912 -0.00601,0.02874 -0.00122,0.0096 -0.00184,0.01782 -0.00122,0.02754 6.745e-4,0.0097 0.0022,0.0204 0.00478,0.02994 0.00251,0.0095 0.00652,0.01882 0.01078,0.02754 0.00423,0.0088 0.00855,0.01623 0.014373,0.02396 0.00583,0.0077 0.013148,0.01506 0.020359,0.02156 0.00722,0.0065 0.014306,0.01291 0.022756,0.01797 L 4.7700765,15.19537 4.470655,15.36664 c -0.00845,0.005 -0.015538,0.01148 -0.022756,0.01797 -0.00722,0.0064 -0.014546,0.01262 -0.020359,0.02036 -0.00583,0.0077 -0.010118,0.01642 -0.014373,0.02516 -0.00423,0.0088 -0.00825,0.01803 -0.01078,0.02754 -0.00258,0.0095 -0.00411,0.01902 -0.00478,0.02875 -6.747e-4,0.0097 -8.7e-6,0.01912 0.00122,0.02874 0.00122,0.0096 0.00294,0.01949 0.00601,0.02875 0.00307,0.0092 0.00713,0.01773 0.011976,0.02635 0.00485,0.0087 0.010412,0.01655 0.016765,0.02396 0.00635,0.0074 0.013932,0.01433 0.021561,0.02036 0.00762,0.006 0.015282,0.0123 0.023952,0.01677 0.00868,0.0044 0.018035,0.0081 0.027546,0.01079 0.00951,0.0026 0.01904,0.004 0.028741,0.0048 0.00971,7.98e-4 0.019114,0.0011 0.028741,0 0.00963,-0.0011 0.019464,-0.003 0.028741,-0.006 0.00927,-0.003 0.018887,-0.0072 0.027546,-0.01198 l 0.3030144,-0.173664 v 0.344934 c -7.67e-5,0.01005 5.176e-4,0.01901 0.0024,0.02874 0.0019,0.0097 0.00466,0.01961 0.00838,0.02874 0.00374,0.0091 0.00893,0.01807 0.014373,0.02635 0.00546,0.0083 0.012092,0.01562 0.019163,0.02275 0.00715,0.0071 0.014484,0.01372 0.022756,0.01917 0.00827,0.0055 0.017213,0.01066 0.02635,0.01437 0.00914,0.0037 0.019022,0.0065 0.028741,0.0084 0.00973,0.0019 0.018691,0.0024 0.028741,0.0024 0.010051,7.7e-5 0.020218,-4.93e-4 0.029944,-0.0024 0.00973,-0.0018 0.019611,-0.0046 0.028741,-0.0084 0.00913,-0.0037 0.016876,-0.0089 0.025154,-0.01437 0.00827,-0.0055 0.016808,-0.0121 0.023952,-0.01917 0.00707,-0.0071 0.013717,-0.01449 0.019163,-0.02275 0.00546,-0.0083 0.010658,-0.0172 0.014373,-0.02635 0.00374,-0.0091 0.00651,-0.01903 0.00838,-0.02874 0.0019,-0.0097 0.00245,-0.01869 0.0024,-0.02874 v -0.343826 l 0.3030149,0.172468 c 0.00866,0.0047 0.018268,0.009 0.027546,0.01198 0.00927,0.003 0.017918,0.0048 0.027546,0.006 0.00963,0.0011 0.020236,7.98e-4 0.029944,0 0.00971,-7.36e-4 0.019237,-0.0021 0.028741,-0.0048 0.00951,-0.0028 0.017672,-0.0063 0.02635,-0.01079 0.00868,-0.0044 0.017526,-0.01076 0.025154,-0.01677 0.00762,-0.006 0.015202,-0.01296 0.021561,-0.02036 0.00635,-0.0074 0.011896,-0.01414 0.016765,-0.02275 0.00485,-0.0087 0.00774,-0.01829 0.01078,-0.02754 0.00307,-0.0092 0.00478,-0.01912 0.00601,-0.02875 0.00122,-0.0096 0.00184,-0.01782 0.00116,-0.02754 -6.746e-4,-0.0097 -0.0022,-0.0204 -0.00478,-0.02994 -0.00251,-0.0095 -0.00534,-0.01882 -0.00958,-0.02754 -0.00423,-0.0088 -0.00855,-0.01742 -0.014373,-0.02515 -0.00583,-0.0077 -0.013148,-0.01386 -0.020358,-0.02036 -0.00722,-0.0065 -0.015502,-0.01291 -0.023952,-0.01796 L 5.3797207,15.195379 5.6779446,15.02411 c 0.00845,-0.005 0.016734,-0.01147 0.023952,-0.01796 0.00722,-0.0065 0.014546,-0.01382 0.020359,-0.02156 0.00583,-0.0077 0.00892,-0.01522 0.013172,-0.02396 0.00423,-0.0088 0.00825,-0.01803 0.01078,-0.02754 0.00258,-0.0095 0.00411,-0.02021 0.00478,-0.02994 6.746e-4,-0.0097 8.7e-6,-0.01792 -0.00122,-0.02754 -0.00122,-0.0096 -0.00294,-0.01948 -0.00601,-0.02874 -0.00307,-0.0092 -0.00595,-0.01893 -0.01078,-0.02754 -0.00485,-0.0087 -0.010413,-0.01534 -0.016765,-0.02275 -0.00635,-0.0074 -0.013933,-0.01433 -0.021561,-0.02036 -0.00762,-0.0061 -0.016478,-0.0123 -0.025154,-0.01677 -0.00868,-0.0044 -0.016839,-0.0081 -0.02635,-0.01078 -0.00951,-0.0026 -0.01904,-0.004 -0.028741,-0.0048 -0.00971,-7.36e-4 -0.020316,-0.0011 -0.029944,0 -0.00963,0.0011 -0.018268,0.003 -0.027545,0.006 -0.00927,0.003 -0.018887,0.0072 -0.027546,0.01198 l -0.3030098,0.173691 v -0.344933 c 1.257e-4,-0.01314 -0.00153,-0.02559 -0.00478,-0.03833 -0.00349,-0.01282 -0.00887,-0.02566 -0.015569,-0.03713 -0.00644,-0.01162 -0.014711,-0.0228 -0.023952,-0.03233 -0.00954,-0.0092 -0.020714,-0.01632 -0.032334,-0.02275 -0.011474,-0.0067 -0.023106,-0.01208 -0.035929,-0.01557 -0.01273,-0.0033 -0.02638,-0.0049 -0.039522,-0.0048 -0.00503,-3.9e-5 -0.00946,-3.69e-4 -0.014373,0 z m 1.7905417,0 c -0.00491,3.69e-4 -0.00951,0.0014 -0.014373,0.0024 -0.00973,0.0018 -0.019611,0.0046 -0.028741,0.0084 -0.00913,0.0037 -0.016876,0.0089 -0.025154,0.01437 -0.00827,0.0055 -0.016808,0.0109 -0.023952,0.01796 -0.00707,0.0071 -0.013717,0.01569 -0.019163,0.02395 -0.00545,0.0083 -0.010658,0.01722 -0.014373,0.02635 -0.00374,0.0091 -0.00534,0.01782 -0.00719,0.02754 -0.0019,0.0097 -0.00245,0.01989 -0.0024,0.02994 v 0.343735 L 6.41095,14.761824 c -0.00866,-0.0047 -0.018268,-0.009 -0.027546,-0.01198 -0.00927,-0.003 -0.017918,-0.0048 -0.027545,-0.006 -0.00963,-0.0011 -0.020236,-7.97e-4 -0.029944,0 -0.00971,7.97e-4 -0.019237,0.0021 -0.028741,0.0048 -0.00952,0.0028 -0.017673,0.0063 -0.02635,0.01078 -0.00868,0.0044 -0.017526,0.01076 -0.025154,0.01677 -0.00762,0.006 -0.015202,0.01296 -0.021561,0.02036 -0.00635,0.0074 -0.0107,0.01415 -0.015569,0.02275 -0.00485,0.0087 -0.00894,0.01829 -0.011976,0.02754 -0.00307,0.0092 -0.00478,0.01912 -0.00601,0.02874 -0.00122,0.0096 -0.00184,0.01782 -0.00122,0.02754 6.747e-4,0.0097 0.0022,0.0204 0.00478,0.02994 0.00251,0.0095 0.00652,0.01882 0.01078,0.02754 0.00423,0.0088 0.00736,0.01623 0.013172,0.02396 0.00583,0.0077 0.013148,0.01506 0.020358,0.02156 0.00722,0.0065 0.015502,0.01291 0.023952,0.01797 l 0.2982288,0.171304 -0.2982239,0.17127 c -0.00845,0.005 -0.016734,0.01148 -0.023952,0.01797 -0.00722,0.0065 -0.014546,0.01262 -0.020358,0.02036 -0.00583,0.0077 -0.00892,0.01642 -0.013172,0.02516 -0.00423,0.0088 -0.00825,0.01803 -0.01078,0.02754 -0.00258,0.0095 -0.00411,0.01902 -0.00478,0.02875 -6.746e-4,0.0097 -8.6e-6,0.01912 0.00122,0.02874 0.00122,0.0096 0.00294,0.01949 0.00601,0.02875 0.00307,0.0092 0.00713,0.01773 0.011976,0.02635 0.00485,0.0087 0.00922,0.01655 0.015569,0.02396 0.00635,0.0074 0.013932,0.01434 0.021561,0.02036 0.00762,0.006 0.016477,0.0123 0.025154,0.01677 0.00868,0.0044 0.016839,0.0081 0.02635,0.01079 0.00951,0.0026 0.01904,0.004 0.028741,0.0048 0.00971,7.97e-4 0.020316,0.0011 0.029944,0 0.00963,-0.0011 0.018268,-0.003 0.027545,-0.006 0.00927,-0.003 0.018887,-0.0072 0.027546,-0.01198 L 6.7151676,15.45541 v 0.344934 c -7.73e-5,0.01005 5.175e-4,0.01901 0.0024,0.02874 0.00184,0.0097 0.00349,0.01961 0.00719,0.02874 0.00374,0.0091 0.00893,0.01807 0.014373,0.02635 0.00546,0.0083 0.012092,0.01561 0.019163,0.02275 0.00715,0.0071 0.01568,0.01372 0.023952,0.01916 0.00827,0.0055 0.016018,0.01066 0.025154,0.01437 0.00914,0.0037 0.019015,0.0065 0.028741,0.0084 0.00973,0.0018 0.019893,0.0024 0.029944,0.0024 0.010051,7.7e-5 0.019016,-4.92e-4 0.028742,-0.0024 0.00973,-0.0018 0.019611,-0.0046 0.028741,-0.0084 0.00914,-0.0037 0.018077,-0.0089 0.026349,-0.01437 0.00827,-0.0055 0.016808,-0.0121 0.023952,-0.01916 0.00707,-0.0071 0.012521,-0.01449 0.017967,-0.02275 0.00546,-0.0083 0.010658,-0.0172 0.014373,-0.02635 0.00368,-0.0091 0.00651,-0.01903 0.00838,-0.02874 0.00184,-0.0097 0.00245,-0.01869 0.0024,-0.02874 v -0.343736 l 0.3030143,0.172467 c 0.00866,0.0047 0.018268,0.009 0.027546,0.01198 0.00927,0.003 0.019113,0.0048 0.028741,0.006 0.00963,0.0011 0.01904,7.97e-4 0.028741,0 0.00971,-7.35e-4 0.019237,-0.0021 0.028741,-0.0048 0.00952,-0.0028 0.018869,-0.0063 0.027545,-0.01079 0.00868,-0.0044 0.01633,-0.01076 0.023952,-0.01677 0.00762,-0.006 0.015202,-0.01296 0.021561,-0.02036 0.00635,-0.0074 0.011896,-0.01415 0.016765,-0.02275 0.00485,-0.0087 0.00894,-0.01829 0.011976,-0.02754 0.00307,-0.0092 0.00478,-0.01912 0.00601,-0.02875 0.00122,-0.0096 0.00184,-0.01782 0.00116,-0.02754 -6.745e-4,-0.0097 -0.0022,-0.0204 -0.00478,-0.02994 -0.00251,-0.0095 -0.00652,-0.01882 -0.01078,-0.02754 -0.00423,-0.0088 -0.00855,-0.01742 -0.014373,-0.02516 -0.00583,-0.0077 -0.013148,-0.01386 -0.020358,-0.02036 -0.00722,-0.0065 -0.0143,-0.01291 -0.022756,-0.01797 L 7.1702484,15.195389 7.4696699,15.02412 c 0.00845,-0.005 0.015538,-0.01147 0.022756,-0.01797 0.00722,-0.0065 0.014546,-0.01383 0.020358,-0.02156 0.00583,-0.0077 0.010118,-0.01522 0.014373,-0.02396 0.00423,-0.0088 0.00825,-0.01803 0.01078,-0.02754 0.00258,-0.0095 0.00411,-0.02021 0.00478,-0.02994 6.745e-4,-0.0097 8.5e-6,-0.01791 -0.00116,-0.02754 -0.00122,-0.0096 -0.00294,-0.01948 -0.00601,-0.02875 -0.00307,-0.0092 -0.00713,-0.01893 -0.011976,-0.02754 -0.00485,-0.0087 -0.010413,-0.01534 -0.016765,-0.02275 -0.00635,-0.0074 -0.013932,-0.01434 -0.021561,-0.02036 -0.00762,-0.0061 -0.015282,-0.01231 -0.023952,-0.01677 -0.00868,-0.0044 -0.018035,-0.0081 -0.027545,-0.01079 -0.00951,-0.0026 -0.01904,-0.004 -0.028741,-0.0048 -0.00971,-7.36e-4 -0.019114,-0.0011 -0.028741,0 -0.00963,0.0011 -0.019464,0.003 -0.028741,0.006 -0.00927,0.003 -0.018887,0.0072 -0.027546,0.01198 l -0.3030113,0.173631 v -0.344934 c 1.256e-4,-0.01314 -0.00153,-0.02559 -0.00478,-0.03833 -0.00349,-0.01282 -0.00887,-0.02566 -0.015569,-0.03713 -0.00644,-0.01162 -0.014711,-0.0228 -0.023952,-0.03234 -0.00954,-0.0092 -0.019519,-0.01632 -0.03114,-0.02275 -0.011474,-0.0067 -0.024302,-0.01208 -0.03713,-0.01557 -0.01273,-0.0033 -0.025185,-0.0049 -0.038326,-0.0048 -0.00503,-4e-5 -0.010664,-3.7e-4 -0.015569,0 z m 1.7917394,0 c -0.00491,3.69e-4 -0.00951,0.0014 -0.014373,0.0024 -0.00973,0.0018 -0.019611,0.0046 -0.028741,0.0084 -0.00913,0.0037 -0.018077,0.0089 -0.02635,0.01437 -0.00827,0.0055 -0.016808,0.0109 -0.023952,0.01796 -0.00707,0.0071 -0.012521,0.01569 -0.017968,0.02395 -0.00545,0.0083 -0.010658,0.01722 -0.014373,0.02635 -0.00368,0.0091 -0.00651,0.01782 -0.00838,0.02754 -0.0019,0.0097 -0.00245,0.01989 -0.0024,0.02994 v 0.343735 l -0.3030098,-0.17247 c -0.00866,-0.0047 -0.018268,-0.009 -0.027546,-0.01198 -0.00927,-0.003 -0.019113,-0.0048 -0.028741,-0.006 -0.00963,-0.0011 -0.01904,-7.97e-4 -0.028741,0 -0.00971,7.97e-4 -0.019237,0.0021 -0.028741,0.0048 -0.00951,0.0028 -0.018868,0.0063 -0.027545,0.01078 -0.00868,0.0044 -0.01633,0.01076 -0.023952,0.01677 -0.00762,0.006 -0.015202,0.01296 -0.021561,0.02036 -0.00635,0.0074 -0.011896,0.01415 -0.016765,0.02275 -0.00485,0.0087 -0.00894,0.01829 -0.011976,0.02754 -0.00307,0.0092 -0.00478,0.01912 -0.00601,0.02874 -0.00122,0.0096 -0.00184,0.01782 -0.00116,0.02754 6.745e-4,0.0097 0.0022,0.0204 0.00478,0.02994 0.00251,0.0095 0.00652,0.01882 0.01078,0.02754 0.00423,0.0088 0.00855,0.01623 0.014373,0.02396 0.00583,0.0077 0.013148,0.01506 0.020358,0.02156 0.00722,0.0065 0.014306,0.01291 0.022756,0.01797 l 0.2994215,0.171268 -0.2994215,0.17127 c -0.00845,0.005 -0.015538,0.01148 -0.022756,0.01797 -0.00722,0.0064 -0.014546,0.01262 -0.020358,0.02036 -0.00583,0.0077 -0.010118,0.01642 -0.014373,0.02516 -0.00423,0.0088 -0.00825,0.01803 -0.01078,0.02754 -0.00258,0.0095 -0.00411,0.01902 -0.00478,0.02875 -6.745e-4,0.0097 -8.6e-6,0.01912 0.00116,0.02874 0.00122,0.0096 0.00294,0.01949 0.00601,0.02875 0.00307,0.0092 0.00713,0.01773 0.011976,0.02635 0.00485,0.0087 0.010412,0.01655 0.016765,0.02396 0.00635,0.0074 0.013933,0.01433 0.021561,0.02036 0.00762,0.006 0.015282,0.0123 0.023952,0.01677 0.00868,0.0044 0.018035,0.0081 0.027545,0.01079 0.00952,0.0026 0.01904,0.004 0.028741,0.0048 0.00971,7.98e-4 0.019113,0.0011 0.028741,0 0.00963,-0.0011 0.019464,-0.003 0.028741,-0.006 0.00927,-0.003 0.018887,-0.0072 0.027546,-0.01198 l 0.3030143,-0.173664 v 0.344934 c -7.66e-5,0.01005 5.176e-4,0.01901 0.0024,0.02874 0.00184,0.0097 0.00466,0.01961 0.00838,0.02874 0.00374,0.0091 0.00893,0.01807 0.014373,0.02635 0.00545,0.0083 0.010896,0.01562 0.017968,0.02275 0.00715,0.0071 0.01568,0.01372 0.023952,0.01917 0.00827,0.0055 0.017219,0.01066 0.02635,0.01437 0.00913,0.0037 0.019015,0.0065 0.028741,0.0084 0.00973,0.0018 0.018691,0.0024 0.028741,0.0024 0.010051,7.7e-5 0.020218,-4.93e-4 0.029944,-0.0024 0.00973,-0.0018 0.019611,-0.0046 0.028741,-0.0084 0.00913,-0.0037 0.016876,-0.0089 0.025154,-0.01437 0.00827,-0.0055 0.016808,-0.0121 0.023952,-0.01917 0.00707,-0.0071 0.013717,-0.01449 0.019163,-0.02275 0.00545,-0.0083 0.010658,-0.0172 0.014373,-0.02635 0.00374,-0.0091 0.00534,-0.01903 0.00719,-0.02874 0.0019,-0.0097 0.00245,-0.01869 0.0024,-0.02874 v -0.343737 l 0.3042126,0.172467 c 0.00866,0.0047 0.018268,0.009 0.027545,0.01198 0.00927,0.003 0.017918,0.0048 0.027545,0.006 0.00963,0.0011 0.020236,7.98e-4 0.029944,0 0.00971,-7.35e-4 0.019237,-0.0021 0.028741,-0.0048 0.00951,-0.0028 0.017673,-0.0063 0.02635,-0.01079 0.00868,-0.0044 0.017532,-0.01076 0.025154,-0.01677 0.00762,-0.006 0.015208,-0.01296 0.021561,-0.02036 0.00635,-0.0074 0.0107,-0.01414 0.015569,-0.02275 0.00485,-0.0087 0.00894,-0.01829 0.011976,-0.02754 0.00307,-0.0092 0.00485,-0.01912 0.00601,-0.02875 0.00122,-0.0096 0.0019,-0.01782 0.00122,-0.02754 -6.745e-4,-0.0097 -0.0022,-0.0204 -0.00478,-0.02994 -0.00251,-0.0095 -0.00653,-0.01882 -0.01078,-0.02754 -0.00423,-0.0088 -0.00735,-0.01743 -0.013172,-0.02516 -0.00583,-0.0077 -0.013141,-0.01386 -0.020359,-0.02036 -0.00722,-0.0065 -0.015496,-0.01291 -0.023952,-0.01797 L 8.9620388,15.195467 9.2602627,15.024198 c 0.00845,-0.005 0.016734,-0.01147 0.023952,-0.01797 0.00722,-0.0065 0.014539,-0.01383 0.020359,-0.02156 0.00583,-0.0077 0.00892,-0.01522 0.013172,-0.02396 0.00423,-0.0088 0.00825,-0.01803 0.01078,-0.02754 0.00258,-0.0095 0.00411,-0.02021 0.00478,-0.02994 6.745e-4,-0.0097 -9.8e-6,-0.01791 -0.00122,-0.02754 -0.00122,-0.0096 -0.003,-0.01948 -0.00601,-0.02875 -0.00307,-0.0092 -0.00713,-0.01893 -0.011976,-0.02754 -0.00485,-0.0087 -0.00922,-0.01535 -0.015569,-0.02275 -0.00635,-0.0074 -0.013932,-0.01434 -0.02156,-0.02036 -0.00762,-0.0061 -0.016483,-0.01231 -0.025154,-0.01677 -0.00868,-0.0044 -0.016839,-0.0081 -0.02635,-0.01079 -0.00951,-0.0026 -0.01904,-0.004 -0.028741,-0.0048 -0.00971,-7.36e-4 -0.020309,-0.0011 -0.029944,0 -0.00963,0.0011 -0.018268,0.003 -0.027545,0.006 -0.00927,0.003 -0.018887,0.0072 -0.027546,0.01198 l -0.3041761,0.173631 v -0.344934 c 1.258e-4,-0.01314 -3.311e-4,-0.02559 -0.00362,-0.03833 -0.00349,-0.01282 -0.00887,-0.02566 -0.015569,-0.03713 -0.00644,-0.01162 -0.014711,-0.0228 -0.023952,-0.03234 -0.00954,-0.0092 -0.020714,-0.01632 -0.032335,-0.02275 -0.011474,-0.0067 -0.023106,-0.01208 -0.035929,-0.01557 -0.01273,-0.0033 -0.026381,-0.0049 -0.039522,-0.0048 -0.00503,-4e-5 -0.00946,-3.7e-4 -0.014373,0 z m 1.7905419,0 c -0.0049,3.69e-4 -0.0095,0.0014 -0.01437,0.0024 -0.0097,0.0018 -0.01961,0.0046 -0.02874,0.0084 -0.0091,0.0037 -0.01688,0.0089 -0.02516,0.01437 -0.0083,0.0055 -0.0168,0.0109 -0.02396,0.01796 -0.007,0.0071 -0.01372,0.01569 -0.01916,0.02395 -0.0055,0.0083 -0.01066,0.01722 -0.01437,0.02635 -0.0038,0.0091 -0.0065,0.01782 -0.0084,0.02754 -0.0018,0.0097 -0.0024,0.01989 -0.0024,0.02994 v 0.343735 L 9.9932275,14.761819 c -0.00866,-0.0047 -0.01827,-0.009 -0.027544,-0.01198 -0.00924,-0.003 -0.017924,-0.0048 -0.027544,-0.006 -0.00963,-0.0011 -0.020236,-7.97e-4 -0.029943,0 -0.00971,7.97e-4 -0.019231,0.0021 -0.028741,0.0048 -0.00951,0.0028 -0.017679,0.0063 -0.02635,0.01079 -0.00868,0.0044 -0.017532,0.01076 -0.025154,0.01677 -0.00762,0.006 -0.015202,0.01296 -0.021561,0.02036 -0.00635,0.0074 -0.011896,0.01415 -0.016765,0.02275 -0.00485,0.0087 -0.00774,0.01829 -0.01078,0.02754 -0.00307,0.0092 -0.00485,0.01912 -0.00601,0.02874 -0.00122,0.0096 -0.0019,0.01782 -0.00122,0.02754 6.745e-4,0.0097 0.0022,0.0204 0.00478,0.02994 0.00251,0.0095 0.00534,0.01882 0.00958,0.02754 0.00423,0.0088 0.00855,0.01623 0.014373,0.02396 0.00583,0.0077 0.013141,0.01506 0.020358,0.02156 0.00722,0.0065 0.015496,0.01291 0.023952,0.01797 l 0.2982235,0.171269 -0.2982235,0.171269 c -0.00845,0.005 -0.016734,0.01148 -0.023952,0.01797 -0.00722,0.0064 -0.01454,0.01262 -0.020358,0.02036 -0.00583,0.0077 -0.010118,0.01642 -0.014373,0.02516 -0.00423,0.0088 -0.00705,0.01803 -0.00958,0.02754 -0.00258,0.0095 -0.00411,0.01902 -0.00478,0.02875 -6.745e-4,0.0097 9.8e-6,0.01912 0.00122,0.02874 0.00122,0.0096 0.003,0.01949 0.00601,0.02875 0.00307,0.0092 0.00595,0.01773 0.01078,0.02635 0.00485,0.0087 0.010413,0.01655 0.016765,0.02396 0.00635,0.0074 0.013932,0.01433 0.021561,0.02036 0.00762,0.006 0.016483,0.0123 0.025154,0.01677 0.00868,0.0044 0.016845,0.0081 0.02635,0.01079 0.00951,0.0026 0.019035,0.004 0.028741,0.0048 0.00971,7.98e-4 0.020309,0.0011 0.029943,0 0.00963,-0.0011 0.01827,-0.003 0.027544,-0.006 0.00924,-0.003 0.018885,-0.0072 0.027544,-0.01198 L 10.296243,15.45537 v 0.344934 c -7.7e-5,0.01005 4.93e-4,0.01901 0.0024,0.02874 0.0018,0.0097 0.0046,0.01961 0.0084,0.02874 0.0038,0.0091 0.0089,0.01807 0.01437,0.02635 0.0055,0.0083 0.01209,0.01561 0.01916,0.02275 0.0071,0.0071 0.01567,0.01372 0.02396,0.01916 0.0083,0.0055 0.01602,0.01066 0.02516,0.01437 0.0091,0.0037 0.01902,0.0065 0.02874,0.0084 0.0097,0.0018 0.01989,0.0024 0.02994,0.0024 0.01005,7.7e-5 0.01901,-4.93e-4 0.02874,-0.0024 0.0097,-0.0018 0.01961,-0.0046 0.02875,-0.0084 0.0091,-0.0037 0.01807,-0.0089 0.02635,-0.01437 0.0083,-0.0055 0.0156,-0.0121 0.02275,-0.01916 0.007,-0.0071 0.01372,-0.01449 0.01916,-0.02275 0.0055,-0.0083 0.01066,-0.0172 0.01437,-0.02635 0.0038,-0.0091 0.0065,-0.01903 0.0084,-0.02874 0.0018,-0.0097 0.0024,-0.01869 0.0024,-0.02874 v -0.343737 l 0.303014,0.172467 c 0.0087,0.0047 0.01827,0.009 0.02754,0.01198 0.0092,0.003 0.01912,0.0048 0.02875,0.006 0.0096,0.0011 0.01903,7.98e-4 0.02874,0 0.0097,-7.35e-4 0.01923,-0.0021 0.02874,-0.0048 0.0095,-0.0028 0.01888,-0.0063 0.02754,-0.01079 0.0087,-0.0044 0.01633,-0.01076 0.02396,-0.01677 0.0076,-0.006 0.0152,-0.01296 0.02156,-0.02036 0.0063,-0.0074 0.0119,-0.01414 0.01677,-0.02275 0.0048,-0.0087 0.0089,-0.01829 0.01198,-0.02754 0.0031,-0.0092 0.0048,-0.01912 0.006,-0.02875 0.0013,-0.0096 0.0019,-0.01782 0.0013,-0.02754 -6.75e-4,-0.0097 -0.0022,-0.0204 -0.0048,-0.02994 -0.0025,-0.0095 -0.0065,-0.01882 -0.01079,-0.02754 -0.0042,-0.0088 -0.0086,-0.01743 -0.01437,-0.02516 -0.0059,-0.0077 -0.01314,-0.01386 -0.02036,-0.02036 -0.0072,-0.0065 -0.0143,-0.01291 -0.02275,-0.01797 l -0.299421,-0.17127 0.299421,-0.171268 c 0.0085,-0.005 0.01554,-0.01147 0.02275,-0.01797 0.0072,-0.0065 0.01454,-0.01382 0.02036,-0.02156 0.0059,-0.0077 0.01012,-0.01522 0.01437,-0.02396 0.0042,-0.0088 0.0083,-0.01803 0.01079,-0.02754 0.0026,-0.0095 0.0041,-0.02021 0.0048,-0.02994 6.74e-4,-0.0097 -1.1e-5,-0.01791 -0.0013,-0.02754 -0.0013,-0.0096 -0.003,-0.01948 -0.006,-0.02874 -0.0031,-0.0092 -0.0071,-0.01893 -0.01198,-0.02754 -0.0048,-0.0087 -0.01041,-0.01534 -0.01677,-0.02275 -0.0063,-0.0074 -0.01393,-0.01434 -0.02156,-0.02036 -0.0076,-0.0061 -0.01528,-0.0123 -0.02396,-0.01677 -0.0087,-0.0044 -0.01804,-0.0081 -0.02754,-0.01078 -0.0095,-0.0026 -0.01904,-0.004 -0.02874,-0.0048 -0.0097,-7.36e-4 -0.01911,-0.0011 -0.02874,0 -0.0096,0.0011 -0.01946,0.003 -0.02875,0.006 -0.0092,0.003 -0.01889,0.0072 -0.02754,0.01198 l -0.303014,0.173665 V 14.59056 c 1.25e-4,-0.01314 -0.0015,-0.02559 -0.0048,-0.03833 -0.0035,-0.01282 -0.0089,-0.02566 -0.01557,-0.03713 -0.0064,-0.01162 -0.01471,-0.0228 -0.02395,-0.03234 -0.0095,-0.0092 -0.01952,-0.01632 -0.03114,-0.02275 -0.01148,-0.0067 -0.02431,-0.01208 -0.03713,-0.01557 -0.01273,-0.0033 -0.02519,-0.0049 -0.03833,-0.0048 -0.005,-3.8e-5 -0.01066,-3.69e-4 -0.01557,0 z" />
  <path
     d="m 4.8060477,13.19166 c -0.040779,-3.13e-4 -0.079999,0.01563 -0.1089893,0.04431 -0.02868,0.02899 -0.04463,0.06821 -0.044317,0.108987 v 0.348526 L 4.3449359,13.518628 c -0.035131,-0.01924 -0.076403,-0.02398 -0.114978,-0.01317 -0.038583,0.01111 -0.071264,0.03692 -0.091025,0.07186 -0.019647,0.03497 -0.024811,0.07625 -0.014373,0.114978 0.010253,0.03862 0.03518,0.07171 0.069467,0.09222 l 0.3030143,0.173663 -0.3030149,0.173665 c -0.034291,0.02051 -0.059212,0.0536 -0.069466,0.09222 -0.010437,0.03873 -0.00527,0.08001 0.014373,0.114978 0.019764,0.03494 0.052442,0.06076 0.091024,0.07186 0.038577,0.01079 0.079846,0.0061 0.1149779,-0.01317 l 0.307806,-0.176062 v 0.349725 c -3.121e-4,0.04078 0.015637,0.08 0.044317,0.108988 0.028986,0.02868 0.068212,0.04463 0.1089893,0.04432 0.040779,3.12e-4 0.08,-0.01563 0.1089899,-0.04432 0.02868,-0.02899 0.044624,-0.06821 0.044317,-0.108988 v -0.348527 l 0.3078054,0.174862 c 0.035131,0.01924 0.076403,0.02397 0.114978,0.01317 0.038583,-0.01111 0.071264,-0.03691 0.091025,-0.07186 0.019648,-0.03497 0.024811,-0.07625 0.014373,-0.114978 -0.010253,-0.03862 -0.03518,-0.07171 -0.069467,-0.09222 L 5.1150551,13.958179 5.4180702,13.784514 c 0.034291,-0.02051 0.059212,-0.0536 0.069466,-0.09222 0.010437,-0.03873 0.00527,-0.08001 -0.014373,-0.114978 -0.019764,-0.03494 -0.052442,-0.06075 -0.091024,-0.07186 -0.038577,-0.01079 -0.079846,-0.0061 -0.1149779,0.01317 l -0.3078061,0.176063 v -0.349724 c 1.276e-4,-0.01333 -0.00147,-0.02661 -0.00478,-0.03952 -0.00356,-0.01301 -0.00876,-0.02549 -0.015569,-0.03713 -0.00653,-0.01178 -0.014582,-0.02266 -0.023952,-0.03233 -0.00968,-0.0093 -0.020555,-0.01742 -0.032341,-0.02396 -0.011639,-0.0068 -0.024124,-0.01204 -0.03713,-0.01557 -0.012908,-0.0033 -0.026196,-0.0049 -0.039522,-0.0048 z m 3.3726859,0 c -0.040779,-3.13e-4 -0.079999,0.01563 -0.1089893,0.04431 -0.02868,0.02899 -0.04463,0.06821 -0.044317,0.108987 v 0.348526 L 7.7176218,13.518628 c -0.035131,-0.01924 -0.076403,-0.02398 -0.114978,-0.01317 -0.038583,0.01111 -0.071264,0.03692 -0.091025,0.07186 -0.019647,0.03497 -0.024811,0.07625 -0.014373,0.114978 0.010253,0.03862 0.03518,0.07171 0.069467,0.09222 l 0.3030143,0.173663 -0.3030149,0.173665 c -0.034291,0.02051 -0.059212,0.0536 -0.069466,0.09222 -0.010437,0.03873 -0.00527,0.08001 0.014373,0.114978 0.019764,0.03494 0.052442,0.06076 0.091024,0.07186 0.038577,0.01079 0.079845,0.0061 0.1149778,-0.01317 L 8.0254272,14.22167 v 0.349725 c -3.122e-4,0.04078 0.015637,0.08 0.044317,0.108988 0.028986,0.02868 0.068212,0.04463 0.1089893,0.04432 0.040779,3.12e-4 0.08,-0.01563 0.1089898,-0.04432 0.02868,-0.02899 0.044624,-0.06821 0.044317,-0.108988 v -0.348527 l 0.3078054,0.174862 c 0.035131,0.01924 0.076403,0.02397 0.114978,0.01317 0.038583,-0.01111 0.071264,-0.03691 0.091025,-0.07186 0.019647,-0.03497 0.024811,-0.07625 0.014373,-0.114978 -0.010253,-0.03862 -0.03518,-0.07171 -0.069467,-0.09222 L 8.4877403,13.95818 8.7907553,13.784515 c 0.034291,-0.02051 0.059212,-0.0536 0.069466,-0.09222 0.010437,-0.03873 0.00527,-0.08001 -0.014373,-0.114978 -0.019764,-0.03494 -0.052442,-0.06075 -0.091024,-0.07186 -0.038577,-0.01079 -0.079845,-0.0061 -0.1149779,0.01317 l -0.3078059,0.176062 v -0.349724 c 1.276e-4,-0.01333 -0.00147,-0.02661 -0.00478,-0.03952 -0.00356,-0.01301 -0.00876,-0.02549 -0.015569,-0.03713 -0.00653,-0.01178 -0.014582,-0.02266 -0.023952,-0.03233 -0.00968,-0.0093 -0.020555,-0.01742 -0.032335,-0.02396 -0.011639,-0.0068 -0.024124,-0.01204 -0.03713,-0.01557 -0.012908,-0.0033 -0.026196,-0.0049 -0.039522,-0.0048 z m 3.3726864,0 c -0.04078,-3.13e-4 -0.08,0.01563 -0.10899,0.04431 -0.02868,0.02899 -0.04463,0.06821 -0.04431,0.108989 v 0.348527 l -0.307806,-0.174862 c -0.03514,-0.01924 -0.07641,-0.02398 -0.114977,-0.01317 -0.03859,0.01111 -0.07126,0.03691 -0.09102,0.07186 -0.01965,0.03497 -0.0248,0.07625 -0.01437,0.114978 0.01025,0.03862 0.03518,0.07171 0.06946,0.09222 l 0.303019,0.17366 -0.303015,0.173665 c -0.03429,0.02051 -0.05922,0.0536 -0.06946,0.09222 -0.01044,0.03873 -0.0053,0.08001 0.01437,0.114978 0.01976,0.03494 0.05244,0.06076 0.09102,0.07186 0.03858,0.01079 0.07984,0.0061 0.114978,-0.01317 l 0.307804,-0.176063 v 0.349725 c -3.13e-4,0.04078 0.01563,0.08 0.04431,0.108988 0.02899,0.02868 0.06821,0.04463 0.108989,0.04432 0.04078,3.12e-4 0.08,-0.01563 0.108989,-0.04432 0.02868,-0.02899 0.04463,-0.06821 0.04431,-0.108988 V 14.22286 l 0.307806,0.174862 c 0.03514,0.01924 0.0764,0.02398 0.114978,0.01317 0.03858,-0.01111 0.07126,-0.03691 0.09102,-0.07186 0.01965,-0.03497 0.0248,-0.07624 0.01437,-0.114977 -0.01026,-0.03862 -0.03518,-0.07171 -0.06946,-0.09222 l -0.303022,-0.173662 0.303015,-0.173664 c 0.03429,-0.02051 0.05922,-0.0536 0.06946,-0.09223 0.01044,-0.03873 0.0053,-0.08001 -0.01437,-0.114977 -0.01976,-0.03494 -0.05244,-0.06076 -0.09102,-0.07186 -0.03858,-0.01079 -0.07984,-0.0061 -0.114978,0.01317 l -0.307804,0.176064 v -0.349725 c 1.28e-4,-0.01333 -0.0014,-0.02661 -0.0048,-0.03952 -0.0036,-0.01301 -0.0088,-0.02549 -0.01557,-0.03713 -0.0065,-0.01178 -0.01459,-0.02266 -0.02396,-0.03233 -0.0097,-0.0093 -0.02056,-0.01742 -0.03233,-0.02396 -0.01164,-0.0068 -0.02412,-0.01203 -0.03713,-0.01557 -0.01291,-0.0033 -0.0262,-0.0049 -0.03952,-0.0048 z m -5.0590294,1.226431 c -0.040779,-3.13e-4 -0.079999,0.01563 -0.1089892,0.04431 -0.02868,0.02899 -0.04463,0.06821 -0.044317,0.108987 v 0.348526 L 6.0312789,14.745059 c -0.035131,-0.01924 -0.076403,-0.02398 -0.114978,-0.01317 -0.038583,0.01111 -0.071264,0.03692 -0.091025,0.07186 -0.019647,0.03497 -0.024811,0.07625 -0.014373,0.114978 0.010253,0.03862 0.03518,0.07171 0.069467,0.09222 l 0.303014,0.173663 -0.3030149,0.173665 c -0.034291,0.02051 -0.059212,0.0536 -0.069466,0.09222 -0.010437,0.03873 -0.00527,0.08001 0.014373,0.114979 0.019764,0.03494 0.052442,0.06075 0.091024,0.07186 0.038577,0.01079 0.079845,0.0061 0.1149779,-0.01317 L 6.339084,15.448103 v 0.349724 c -3.121e-4,0.04078 0.015637,0.08 0.044317,0.108989 0.028986,0.02868 0.068212,0.04463 0.1089892,0.04431 0.040779,3.12e-4 0.08,-0.01563 0.1089899,-0.04431 0.02868,-0.02899 0.044624,-0.06821 0.044317,-0.108989 V 15.4493 l 0.3078054,0.174863 c 0.035131,0.01924 0.076403,0.02397 0.114978,0.01317 0.038583,-0.01111 0.071264,-0.03691 0.091025,-0.07186 0.019648,-0.03497 0.024811,-0.07625 0.014373,-0.114978 -0.010253,-0.03862 -0.03518,-0.07171 -0.069467,-0.09222 L 6.8013976,15.184612 7.1044125,15.010947 c 0.034291,-0.02051 0.059212,-0.0536 0.069466,-0.09222 0.010437,-0.03873 0.00527,-0.08001 -0.014373,-0.114979 -0.019764,-0.03494 -0.052442,-0.06076 -0.091024,-0.07186 -0.038577,-0.01079 -0.079845,-0.0061 -0.1149778,0.01317 L 6.645697,14.92112 v -0.349724 c 1.276e-4,-0.01333 -0.00147,-0.02661 -0.00478,-0.03952 -0.00356,-0.01301 -0.00876,-0.02549 -0.015569,-0.03713 -0.00653,-0.01178 -0.014582,-0.02266 -0.023952,-0.03233 -0.00968,-0.0093 -0.020555,-0.01742 -0.032341,-0.02396 -0.011639,-0.0068 -0.024124,-0.01204 -0.03713,-0.01557 -0.012908,-0.0033 -0.026196,-0.0049 -0.039522,-0.0048 z m 3.3726861,0 c -0.040779,-3.13e-4 -0.079999,0.01563 -0.1089893,0.04431 -0.02868,0.02899 -0.04463,0.06821 -0.044317,0.108989 v 0.34853 L 9.4039649,14.745062 c -0.035131,-0.01924 -0.076403,-0.02398 -0.1149781,-0.01317 -0.038583,0.01111 -0.071264,0.03692 -0.091025,0.07186 -0.019647,0.03497 -0.024811,0.07625 -0.014373,0.114979 0.010253,0.03862 0.03518,0.07171 0.069467,0.09222 l 0.303017,0.17366 -0.3030152,0.173665 c -0.034291,0.02051 -0.059212,0.0536 -0.069466,0.09222 -0.010437,0.03873 -0.00527,0.08001 0.014373,0.114979 0.019764,0.03494 0.052442,0.06076 0.091024,0.07186 0.038577,0.01079 0.079846,0.0061 0.1149782,-0.01317 l 0.307806,-0.176061 v 0.349724 c -3.121e-4,0.04078 0.015637,0.08 0.044317,0.108989 0.028986,0.02868 0.068212,0.04463 0.1089892,0.04431 0.040779,3.12e-4 0.079999,-0.01563 0.1089897,-0.04431 0.028679,-0.02899 0.04463,-0.06821 0.044313,-0.108989 v -0.348527 l 0.307805,0.174862 c 0.03514,0.01924 0.0764,0.02398 0.114978,0.01317 0.03858,-0.01111 0.07126,-0.03691 0.09102,-0.07186 0.01964,-0.03497 0.0248,-0.07625 0.01437,-0.114978 -0.01026,-0.03862 -0.03518,-0.07171 -0.06946,-0.09222 l -0.303022,-0.173662 0.303016,-0.173665 c 0.03429,-0.02051 0.05922,-0.0536 0.06946,-0.09222 0.01044,-0.03873 0.0053,-0.08001 -0.01437,-0.114979 -0.01976,-0.03494 -0.05244,-0.06075 -0.09102,-0.07186 -0.03858,-0.01079 -0.07984,-0.0061 -0.114978,0.01317 l -0.307799,0.17606 v -0.349724 c 1.28e-4,-0.01333 -0.0014,-0.02661 -0.0048,-0.03952 -0.0036,-0.01301 -0.0088,-0.02549 -0.015567,-0.03713 -0.00654,-0.01178 -0.014585,-0.02266 -0.023956,-0.03233 -0.00968,-0.0093 -0.02055,-0.01742 -0.032335,-0.02396 -0.011639,-0.0068 -0.024124,-0.01203 -0.03713,-0.01557 -0.012908,-0.0033 -0.026196,-0.0049 -0.039522,-0.0048 z"
     style="display:none;fill:#0000ff;stroke-width:0.613216"
     id="path5-5" />
</svg>
