<?xml version="1.0" encoding="UTF-8" standalone="no"?>
<svg
   width="16"
   height="16"
   fill="currentColor"
   class="bi bi-cloud-snow"
   viewBox="0 0 16 16"
   version="1.1"
   id="svg1"
   xmlns="http://www.w3.org/2000/svg"
   xmlns:svg="http://www.w3.org/2000/svg">
  <defs
     id="defs1" />
  <path
     d="m 5.2246054,11.414094 c -0.00812,6.05e-4 -0.015394,0.0024 -0.023437,0.0039 -0.016086,0.0031 -0.031769,0.0075 -0.046875,0.01367 -0.015106,0.0061 -0.029285,0.01443 -0.042969,0.02344 -0.013683,0.009 -0.027244,0.01956 -0.039063,0.03125 -0.011692,0.01182 -0.022243,0.02538 -0.03125,0.03906 -0.00901,0.01368 -0.017296,0.02786 -0.023437,0.04297 -0.00614,0.01511 -0.010575,0.03079 -0.013672,0.04687 -0.0031,0.01609 -0.00403,0.0322 -0.00391,0.04883 v 0.568359 L 4.4980429,11.947297 c -0.014323,-0.0078 -0.029573,-0.01467 -0.044922,-0.01953 -0.015349,-0.0049 -0.03095,-0.0079 -0.046875,-0.0098 -0.015925,-0.0018 -0.032777,-0.0013 -0.048828,0 -0.016051,0.0013 -0.031149,0.0034 -0.046875,0.0078 -0.015729,0.0045 -0.030574,0.01019 -0.044922,0.01758 -0.014347,0.0074 -0.028407,0.01739 -0.041016,0.02734 -0.012608,0.01 -0.024645,0.02096 -0.035156,0.0332 -0.010511,0.01224 -0.019287,0.02482 -0.027344,0.03906 -0.00801,0.01426 -0.014503,0.02961 -0.019531,0.04492 -0.00503,0.01532 -0.00777,0.03095 -0.00977,0.04687 -0.00199,0.01593 -0.00306,0.03079 -0.00195,0.04687 0.0011,0.01608 0.00356,0.03304 0.00781,0.04883 0.00418,0.01574 0.010543,0.03048 0.017578,0.04492 0.00704,0.01444 0.013817,0.02824 0.023437,0.04102 0.00962,0.01277 0.021268,0.02441 0.033203,0.03516 0.011935,0.01075 0.025084,0.02093 0.039063,0.0293 l 0.4941449,0.283257 -0.4941407,0.283203 c -0.013979,0.0084 -0.027127,0.01855 -0.039063,0.0293 -0.011935,0.01075 -0.023583,0.02238 -0.033203,0.03516 -0.00962,0.01277 -0.016402,0.02658 -0.023437,0.04102 -0.00704,0.01444 -0.013398,0.02918 -0.017578,0.04492 -0.00425,0.01579 -0.00671,0.03274 -0.00781,0.04883 -0.0011,0.01608 -3.78e-5,0.03095 0.00195,0.04687 0.00199,0.01593 0.00474,0.03156 0.00977,0.04687 0.00503,0.01532 0.011522,0.03067 0.019531,0.04492 0.00806,0.01425 0.016832,0.02682 0.027344,0.03906 0.010511,0.01224 0.022548,0.02325 0.035156,0.0332 0.012608,0.01 0.026668,0.01996 0.041016,0.02734 0.014347,0.0074 0.029193,0.01305 0.044922,0.01758 0.015726,0.0044 0.030824,0.0065 0.046875,0.0078 0.016051,0.0013 0.032903,0.0018 0.048828,0 0.015925,-0.0018 0.031526,-0.0049 0.046875,-0.0098 0.015349,-0.0049 0.030599,-0.01169 0.044922,-0.01953 L 4.999996,13.093782 v 0.570312 c -1.272e-4,0.01662 8.089e-4,0.03274 0.00391,0.04883 0.0031,0.01609 0.00753,0.03177 0.013672,0.04687 0.00614,0.01511 0.014431,0.02929 0.023437,0.04297 0.00901,0.01368 0.019558,0.02724 0.03125,0.03906 0.011819,0.01169 0.025379,0.02224 0.039063,0.03125 0.013683,0.009 0.027863,0.0173 0.042969,0.02344 0.015106,0.0061 0.030789,0.01057 0.046875,0.01367 0.016086,0.0031 0.032204,0.004 0.048828,0.0039 0.016624,1.27e-4 0.032742,-8.09e-4 0.048828,-0.0039 0.016086,-0.0031 0.031769,-0.0075 0.046875,-0.01367 0.015106,-0.0061 0.029285,-0.01443 0.042969,-0.02344 0.013683,-0.009 0.027244,-0.01956 0.039063,-0.03125 0.011692,-0.01182 0.022243,-0.02538 0.03125,-0.03906 0.00901,-0.01368 0.017296,-0.02786 0.023437,-0.04297 0.00614,-0.01511 0.010575,-0.03079 0.013672,-0.04687 0.0031,-0.01609 0.00403,-0.0322 0.00391,-0.04883 v -0.568359 l 0.5019531,0.285156 c 0.014323,0.0078 0.029573,0.01467 0.044922,0.01953 0.015349,0.0049 0.03095,0.0079 0.046875,0.0098 0.015925,0.0018 0.032777,0.0013 0.048828,0 0.016051,-0.0013 0.031149,-0.0034 0.046875,-0.0078 0.015729,-0.0045 0.030574,-0.01019 0.044922,-0.01758 0.014347,-0.0074 0.028407,-0.01739 0.041016,-0.02734 0.012608,-0.01 0.024645,-0.02096 0.035156,-0.0332 0.010511,-0.01224 0.019288,-0.02482 0.027344,-0.03906 0.00801,-0.01426 0.014503,-0.02961 0.019531,-0.04492 0.00503,-0.01532 0.00777,-0.03095 0.00977,-0.04687 0.00199,-0.01593 0.00306,-0.03079 0.00195,-0.04687 -0.0011,-0.01608 -0.00356,-0.03304 -0.00781,-0.04883 -0.00418,-0.01574 -0.010543,-0.03048 -0.017578,-0.04492 -0.00704,-0.01444 -0.013817,-0.02824 -0.023437,-0.04102 -0.00962,-0.01277 -0.021268,-0.02441 -0.033203,-0.03516 -0.011935,-0.01075 -0.025084,-0.02093 -0.039063,-0.0293 L 5.7539023,12.664094 6.2480429,12.380891 c 0.013979,-0.0084 0.027128,-0.01855 0.039063,-0.0293 0.011935,-0.01075 0.023583,-0.02238 0.033203,-0.03516 0.00962,-0.01277 0.016402,-0.02658 0.023437,-0.04102 0.00704,-0.01444 0.013398,-0.02918 0.017578,-0.04492 0.00425,-0.01579 0.00671,-0.03274 0.00781,-0.04883 0.0011,-0.01608 3.78e-5,-0.03095 -0.00195,-0.04687 -0.00199,-0.01593 -0.00474,-0.03156 -0.00977,-0.04687 -0.00503,-0.01532 -0.011522,-0.03067 -0.019531,-0.04492 -0.00806,-0.01425 -0.016832,-0.02682 -0.027344,-0.03906 -0.010511,-0.01224 -0.022548,-0.02325 -0.035156,-0.0332 -0.012608,-0.01 -0.026668,-0.01996 -0.041016,-0.02734 -0.014347,-0.0074 -0.029193,-0.01305 -0.044922,-0.01758 -0.015726,-0.0044 -0.030824,-0.0065 -0.046875,-0.0078 -0.016051,-0.0013 -0.032903,-0.0018 -0.048828,0 -0.015925,0.0018 -0.031526,0.0049 -0.046875,0.0098 -0.015349,0.0049 -0.030599,0.01169 -0.044922,0.01953 L 5.499996,12.234407 v -0.570313 c 2.085e-4,-0.02173 -0.00242,-0.0434 -0.00781,-0.06445 -0.00576,-0.02121 -0.014302,-0.04157 -0.025391,-0.06055 -0.010647,-0.01922 -0.023781,-0.03695 -0.039063,-0.05273 -0.015787,-0.01529 -0.033516,-0.02842 -0.052734,-0.03906 -0.018978,-0.01109 -0.039336,-0.01963 -0.060547,-0.02539 -0.021053,-0.0054 -0.042721,-0.008 -0.064453,-0.0078 -0.00831,-6.4e-5 -0.017272,-6.05e-4 -0.025391,0 z m 5.4999996,0 c -0.0081,6.05e-4 -0.01539,0.0024 -0.02344,0.0039 -0.01609,0.0031 -0.03177,0.0075 -0.04687,0.01367 -0.01511,0.0061 -0.02928,0.01443 -0.04297,0.02344 -0.01368,0.009 -0.02724,0.01956 -0.03906,0.03125 -0.01169,0.01182 -0.02224,0.02538 -0.03125,0.03906 -0.009,0.01368 -0.01729,0.02786 -0.02344,0.04297 -0.0061,0.01511 -0.01057,0.03079 -0.01367,0.04687 -0.0031,0.01609 -0.004,0.0322 -0.0039,0.04883 v 0.568359 L 9.9980429,11.947297 c -0.014323,-0.0078 -0.029573,-0.01467 -0.044922,-0.01953 -0.015349,-0.0049 -0.03095,-0.0079 -0.046875,-0.0098 -0.015925,-0.0018 -0.032777,-0.0013 -0.048828,0 -0.016051,0.0013 -0.031149,0.0034 -0.046875,0.0078 -0.015729,0.0045 -0.030574,0.01019 -0.044922,0.01758 -0.014348,0.0074 -0.028407,0.01739 -0.041016,0.02734 -0.012608,0.01 -0.024645,0.02096 -0.035156,0.0332 -0.010511,0.01224 -0.019287,0.02482 -0.027344,0.03906 -0.00801,0.01426 -0.014503,0.02961 -0.019531,0.04492 -0.00503,0.01532 -0.00777,0.03095 -0.00977,0.04687 -0.00199,0.01593 -0.00306,0.03079 -0.00195,0.04687 0.0011,0.01608 0.00356,0.03304 0.00781,0.04883 0.00418,0.01574 0.010543,0.03048 0.017578,0.04492 0.00704,0.01444 0.013817,0.02824 0.023437,0.04102 0.00962,0.01277 0.021268,0.02441 0.033203,0.03516 0.011935,0.01075 0.025084,0.02093 0.039063,0.0293 l 0.4941451,0.283257 -0.4941409,0.283203 c -0.013979,0.0084 -0.027127,0.01855 -0.039063,0.0293 -0.011935,0.01075 -0.023583,0.02238 -0.033203,0.03516 -0.00962,0.01277 -0.016402,0.02658 -0.023437,0.04102 -0.00704,0.01444 -0.013398,0.02918 -0.017578,0.04492 -0.00425,0.01579 -0.00671,0.03274 -0.00781,0.04883 -0.0011,0.01608 -3.78e-5,0.03095 0.00195,0.04687 0.00199,0.01593 0.00474,0.03156 0.00977,0.04687 0.00503,0.01532 0.011522,0.03067 0.019531,0.04492 0.00806,0.01425 0.016832,0.02682 0.027344,0.03906 0.010511,0.01224 0.022548,0.02325 0.035156,0.0332 0.012608,0.01 0.026668,0.01996 0.041016,0.02734 0.014348,0.0074 0.029193,0.01305 0.044922,0.01758 0.015726,0.0044 0.030824,0.0065 0.046875,0.0078 0.016051,0.0013 0.032903,0.0018 0.048828,0 0.015925,-0.0018 0.031526,-0.0049 0.046875,-0.0098 0.015349,-0.0049 0.030599,-0.01169 0.044922,-0.01953 l 0.5019489,-0.287055 v 0.570312 c -1.27e-4,0.01662 8.09e-4,0.03274 0.0039,0.04883 0.0031,0.01609 0.0075,0.03177 0.01367,0.04687 0.0061,0.01511 0.01443,0.02929 0.02344,0.04297 0.009,0.01368 0.01956,0.02724 0.03125,0.03906 0.01182,0.01169 0.02538,0.02224 0.03906,0.03125 0.01368,0.009 0.02786,0.0173 0.04297,0.02344 0.01511,0.0061 0.03079,0.01057 0.04687,0.01367 0.01609,0.0031 0.0322,0.004 0.04883,0.0039 0.01662,1.27e-4 0.03274,-8.09e-4 0.04883,-0.0039 0.01609,-0.0031 0.03177,-0.0075 0.04687,-0.01367 0.01511,-0.0061 0.02928,-0.01443 0.04297,-0.02344 0.01368,-0.009 0.02724,-0.01956 0.03906,-0.03125 0.01169,-0.01182 0.02224,-0.02538 0.03125,-0.03906 0.009,-0.01368 0.01729,-0.02786 0.02344,-0.04297 0.0061,-0.01511 0.01058,-0.03079 0.01367,-0.04687 0.0031,-0.01609 0.004,-0.0322 0.0039,-0.04883 v -0.568359 l 0.501953,0.285156 c 0.01432,0.0078 0.02957,0.01467 0.04492,0.01953 0.01535,0.0049 0.03095,0.0079 0.04687,0.0098 0.01592,0.0018 0.03278,0.0013 0.04883,0 0.01605,-0.0013 0.03115,-0.0034 0.04687,-0.0078 0.01573,-0.0045 0.03057,-0.01019 0.04492,-0.01758 0.01435,-0.0074 0.02841,-0.01739 0.04102,-0.02734 0.01261,-0.01 0.02464,-0.02096 0.03516,-0.0332 0.01051,-0.01224 0.01929,-0.02482 0.02734,-0.03906 0.008,-0.01426 0.0145,-0.02961 0.01953,-0.04492 0.005,-0.01532 0.0078,-0.03095 0.0098,-0.04687 0.002,-0.01593 0.0031,-0.03079 0.002,-0.04687 -0.0011,-0.01608 -0.0036,-0.03304 -0.0078,-0.04883 -0.0042,-0.01574 -0.01054,-0.03048 -0.01758,-0.04492 -0.007,-0.01444 -0.01382,-0.02824 -0.02344,-0.04102 -0.0096,-0.01277 -0.02127,-0.02441 -0.0332,-0.03516 -0.01193,-0.01075 -0.02508,-0.02093 -0.03906,-0.0293 l -0.494153,-0.283257 0.494141,-0.283203 c 0.01398,-0.0084 0.02713,-0.01855 0.03906,-0.0293 0.01194,-0.01075 0.02358,-0.02238 0.0332,-0.03516 0.0096,-0.01277 0.0164,-0.02658 0.02344,-0.04102 0.007,-0.01444 0.0134,-0.02918 0.01758,-0.04492 0.0043,-0.01579 0.0067,-0.03274 0.0078,-0.04883 0.0011,-0.01608 3.8e-5,-0.03095 -0.002,-0.04687 -0.002,-0.01593 -0.0047,-0.03156 -0.0098,-0.04687 -0.005,-0.01532 -0.01152,-0.03067 -0.01953,-0.04492 -0.0081,-0.01425 -0.01683,-0.02682 -0.02734,-0.03906 -0.01051,-0.01224 -0.02255,-0.02325 -0.03516,-0.0332 -0.01261,-0.01 -0.02667,-0.01996 -0.04102,-0.02734 -0.01435,-0.0074 -0.02919,-0.01305 -0.04492,-0.01758 -0.01573,-0.0044 -0.03082,-0.0065 -0.04687,-0.0078 -0.01605,-0.0013 -0.0329,-0.0018 -0.04883,0 -0.01593,0.0018 -0.03153,0.0049 -0.04687,0.0098 -0.01535,0.0049 -0.0306,0.01169 -0.04492,0.01953 l -0.501949,0.287056 v -0.570313 c 2.08e-4,-0.02173 -0.0024,-0.0434 -0.0078,-0.06445 -0.0058,-0.02121 -0.0143,-0.04157 -0.02539,-0.06055 -0.01065,-0.01922 -0.02378,-0.03695 -0.03906,-0.05273 -0.01579,-0.01528 -0.03352,-0.02842 -0.05273,-0.03906 -0.01898,-0.01109 -0.03934,-0.01962 -0.06055,-0.02539 -0.02105,-0.0054 -0.04272,-0.008 -0.06445,-0.0078 -0.0083,-6.4e-5 -0.01727,-6.05e-4 -0.02539,0 z m -2.7499996,2 c -0.00812,6.05e-4 -0.015394,0.0024 -0.023437,0.0039 -0.016086,0.0031 -0.031769,0.0075 -0.046875,0.01367 -0.015106,0.0061 -0.029285,0.01443 -0.042969,0.02344 -0.013683,0.009 -0.027244,0.01956 -0.039063,0.03125 -0.011692,0.01182 -0.022243,0.02538 -0.03125,0.03906 -0.00901,0.01368 -0.017295,0.02786 -0.023437,0.04297 -0.00614,0.01511 -0.010575,0.03079 -0.013672,0.04687 -0.0031,0.01609 -0.00403,0.0322 -0.00391,0.04883 v 0.568359 L 7.2480429,13.947297 c -0.014323,-0.0078 -0.029573,-0.01467 -0.044922,-0.01953 -0.015349,-0.0049 -0.03095,-0.0079 -0.046875,-0.0098 -0.015925,-0.0018 -0.032777,-0.0013 -0.048828,0 -0.016051,0.0013 -0.031149,0.0034 -0.046875,0.0078 -0.015729,0.0045 -0.030574,0.01019 -0.044922,0.01758 -0.014348,0.0074 -0.028407,0.01739 -0.041016,0.02734 -0.012608,0.01 -0.024645,0.02096 -0.035156,0.0332 -0.010511,0.01224 -0.019287,0.02482 -0.027344,0.03906 -0.00801,0.01426 -0.014503,0.02961 -0.019531,0.04492 -0.00503,0.01532 -0.00777,0.03095 -0.00977,0.04687 -0.00199,0.01593 -0.00306,0.03079 -0.00195,0.04687 0.0011,0.01608 0.00356,0.03304 0.00781,0.04883 0.00418,0.01574 0.010543,0.03048 0.017578,0.04492 0.00704,0.01444 0.013817,0.02824 0.023437,0.04102 0.00962,0.01277 0.021268,0.02441 0.033203,0.03516 0.011935,0.01075 0.025084,0.02093 0.039063,0.0293 l 0.4941448,0.283257 -0.4941406,0.283203 c -0.013979,0.0084 -0.027127,0.01855 -0.039063,0.0293 -0.011935,0.01075 -0.023583,0.02238 -0.033203,0.03516 -0.00962,0.01277 -0.016402,0.02658 -0.023437,0.04102 -0.00704,0.01444 -0.013398,0.02918 -0.017578,0.04492 -0.00425,0.01579 -0.00671,0.03274 -0.00781,0.04883 -0.0011,0.01608 -3.78e-5,0.03095 0.00195,0.04687 0.00199,0.01593 0.00474,0.03156 0.00977,0.04687 0.00503,0.01532 0.011522,0.03067 0.019531,0.04492 0.00806,0.01425 0.016832,0.02682 0.027344,0.03906 0.010511,0.01224 0.022548,0.02325 0.035156,0.0332 0.012608,0.01 0.026668,0.01996 0.041016,0.02734 0.014348,0.0074 0.029193,0.01305 0.044922,0.01758 0.015726,0.0044 0.030824,0.0065 0.046875,0.0078 0.016051,0.0013 0.032903,0.0018 0.048828,0 0.015925,-0.0018 0.031526,-0.0049 0.046875,-0.0098 0.015349,-0.0049 0.030599,-0.01169 0.044922,-0.01953 L 7.749996,15.093782 v 0.570312 c -1.272e-4,0.01662 8.089e-4,0.03274 0.00391,0.04883 0.0031,0.01609 0.00753,0.03177 0.013672,0.04687 0.00614,0.01511 0.014431,0.02929 0.023437,0.04297 0.00901,0.01368 0.019558,0.02724 0.03125,0.03906 0.011819,0.01169 0.025379,0.02224 0.039063,0.03125 0.013683,0.009 0.027863,0.0173 0.042969,0.02344 0.015106,0.0061 0.030789,0.01057 0.046875,0.01367 0.016086,0.0031 0.032204,0.004 0.048828,0.0039 0.016624,1.27e-4 0.032742,-8.09e-4 0.048828,-0.0039 0.016086,-0.0031 0.031769,-0.0075 0.046875,-0.01367 0.015106,-0.0061 0.029285,-0.01443 0.042969,-0.02344 0.013683,-0.009 0.027244,-0.01956 0.039063,-0.03125 0.011692,-0.01182 0.022243,-0.02538 0.03125,-0.03906 0.00901,-0.01368 0.017295,-0.02786 0.023437,-0.04297 0.00614,-0.01511 0.010575,-0.03079 0.013672,-0.04687 0.0031,-0.01609 0.00403,-0.0322 0.00391,-0.04883 v -0.568359 l 0.5019531,0.285156 c 0.014323,0.0078 0.029573,0.01467 0.044922,0.01953 0.015349,0.0049 0.03095,0.0079 0.046875,0.0098 0.015925,0.0018 0.032777,0.0013 0.048828,0 0.016051,-0.0013 0.031149,-0.0034 0.046875,-0.0078 0.015729,-0.0045 0.030574,-0.01019 0.044922,-0.01758 0.014348,-0.0074 0.028407,-0.01739 0.041016,-0.02734 0.012608,-0.01 0.024645,-0.02096 0.035156,-0.0332 0.010511,-0.01224 0.019287,-0.02482 0.027344,-0.03906 0.00801,-0.01426 0.014503,-0.02961 0.019531,-0.04492 0.00503,-0.01532 0.00777,-0.03095 0.00977,-0.04687 0.00199,-0.01593 0.00306,-0.03079 0.00195,-0.04687 -0.0011,-0.01608 -0.00356,-0.03304 -0.00781,-0.04883 -0.00418,-0.01574 -0.010543,-0.03048 -0.017578,-0.04492 -0.00704,-0.01444 -0.013817,-0.02824 -0.023437,-0.04102 -0.00962,-0.01277 -0.021268,-0.02441 -0.033203,-0.03516 -0.011935,-0.01075 -0.025084,-0.02093 -0.039063,-0.0293 L 8.5039022,14.664094 8.9980429,14.380891 c 0.013979,-0.0084 0.027127,-0.01855 0.039063,-0.0293 0.011935,-0.01075 0.023583,-0.02238 0.033203,-0.03516 0.00962,-0.01277 0.016402,-0.02658 0.023437,-0.04102 0.00704,-0.01444 0.013398,-0.02918 0.017578,-0.04492 0.00425,-0.01579 0.00671,-0.03274 0.00781,-0.04883 0.0011,-0.01608 3.78e-5,-0.03095 -0.00195,-0.04687 -0.00199,-0.01593 -0.00474,-0.03156 -0.00977,-0.04687 -0.00503,-0.01532 -0.011522,-0.03067 -0.019531,-0.04492 -0.00806,-0.01425 -0.016832,-0.02682 -0.027344,-0.03906 -0.010511,-0.01224 -0.022548,-0.02325 -0.035156,-0.0332 -0.012608,-0.01 -0.026668,-0.01996 -0.041016,-0.02734 -0.014348,-0.0074 -0.029193,-0.01305 -0.044922,-0.01758 -0.015726,-0.0044 -0.030824,-0.0065 -0.046875,-0.0078 -0.016051,-0.0013 -0.032903,-0.0018 -0.048828,0 -0.015925,0.0018 -0.031526,0.0049 -0.046875,0.0098 -0.015349,0.0049 -0.030599,0.01169 -0.044922,0.01953 L 8.249996,14.234407 v -0.570313 c 2.085e-4,-0.02173 -0.00242,-0.0434 -0.00781,-0.06445 -0.00577,-0.02121 -0.014302,-0.04157 -0.025391,-0.06055 -0.010647,-0.01922 -0.023781,-0.03695 -0.039063,-0.05273 -0.015788,-0.01529 -0.033518,-0.02842 -0.052736,-0.03907 -0.018978,-0.01109 -0.039336,-0.01963 -0.060547,-0.02539 -0.021053,-0.0054 -0.042721,-0.008 -0.064453,-0.0078 -0.00831,-6.4e-5 -0.017272,-6.05e-4 -0.025391,0 z"
     style="display:none;fill:#0000ff"
     id="path4" />
  <path
     d="M 8.1191406,0.26367188 A 5.001,5.001 0 0 0 7.2265625,0.4140625 5.001,5.001 0 0 0 6.375,0.72265625 5.001,5.001 0 0 0 5.59375,1.1796875 5.001,5.001 0 0 0 4.90625,1.7714844 5.001,5.001 0 0 0 4.3378906,2.4765625 5.001,5.001 0 0 0 3.90625,3.2734375 3.5,3.5 0 0 0 3.1484375,3.2675781 3.5,3.5 0 0 0 2.40625,3.4277344 3.5,3.5 0 0 0 1.7167969,3.7421875 3.5,3.5 0 0 0 1.1113281,4.1972656 3.5,3.5 0 0 0 0.6171875,4.7714844 3.5,3.5 0 0 0 0.25976563,5.4394531 3.5,3.5 0 0 0 0.0546875,6.1699219 3.5,3.5 0 0 0 0.00976563,6.9257812 3.5,3.5 0 0 0 0.12890625,7.6738281 3.5,3.5 0 0 0 0.40820313,8.3789063 3.5,3.5 0 0 0 0.83203125,9.0078125 3.5,3.5 0 0 0 1.3808594,9.53125 3.5,3.5 0 0 0 2.0292969,9.9238281 3.5,3.5 0 0 0 2.7460938,10.166016 3.5,3.5 0 0 0 3.5,10.25 H 13 A 3,3 0 0 0 13.640625,10.181641 3,3 0 0 0 14.25,9.9785156 3,3 0 0 0 14.802734,9.6503906 3,3 0 0 0 15.273438,9.2109375 3,3 0 0 0 15.640625,8.6816406 3,3 0 0 0 15.884766,8.0859375 3,3 0 0 0 15.996094,7.453125 3,3 0 0 0 15.970703,6.8105469 3,3 0 0 0 15.808594,6.1875 3,3 0 0 0 15.517578,5.6132812 3,3 0 0 0 15.111328,5.1152344 3,3 0 0 0 14.607422,4.7148437 3,3 0 0 0 14.029297,4.4316406 3,3 0 0 0 13.404297,4.2773437 5.001,5.001 0 0 0 13.148438,3.4082031 5.001,5.001 0 0 0 12.740234,2.5996094 5.001,5.001 0 0 0 12.193359,1.8789062 5.001,5.001 0 0 0 11.523438,1.2675781 5.001,5.001 0 0 0 10.755859,0.78710937 5.001,5.001 0 0 0 9.9140625,0.453125 5.001,5.001 0 0 0 9.0253906,0.27734375 5.001,5.001 0 0 0 8.1191406,0.26367188 Z M 8.5,1.25 a 4,4 0 0 1 0.828125,0.085937 4,4 0 0 1 0.792969,0.2558594 4,4 0 0 1 0.720703,0.4160156 4,4 0 0 1 0.621094,0.5546875 4,4 0 0 1 0.492187,0.6699219 4,4 0 0 1 0.341797,0.7597656 4,4 0 0 1 0.179688,0.8125 0.5,0.5 0 0 0 0.08398,0.2265625 A 0.5,0.5 0 0 0 12.74023,5.1933589 0.5,0.5 0 0 0 12.976563,5.25 H 13 a 2.0000001,2.0000001 0 0 1 0.5625,0.082031 2.0000001,2.0000001 0 0 1 0.519531,0.2363282 2.0000001,2.0000001 0 0 1 0.429688,0.3730468 2.0000001,2.0000001 0 0 1 0.30664,0.4785157 2.0000001,2.0000001 0 0 1 0.160157,0.546875 2.0000001,2.0000001 0 0 1 0,0.5683593 A 2.0000001,2.0000001 0 0 1 14.818359,8.0820313 2.0000001,2.0000001 0 0 1 14.509766,8.5605469 2.0000001,2.0000001 0 0 1 14.080078,8.9335938 2.0000001,2.0000001 0 0 1 13.5625,9.1699219 2.0000001,2.0000001 0 0 1 12.998047,9.25 H 3.5 A 2.5,2.5 0 0 1 2.8554688,9.1660156 2.5,2.5 0 0 1 2.2558594,8.9179688 2.5,2.5 0 0 1 1.7402344,8.5234375 2.5,2.5 0 0 1 1.3417969,8.0117188 2.5,2.5 0 0 1 1.0898437,7.4121094 2.5,2.5 0 0 1 1.0019531,6.7695312 2.5,2.5 0 0 1 1.0800781,6.125 2.5,2.5 0 0 1 1.3222656,5.5234375 2.5,2.5 0 0 1 1.7128906,5.0039062 2.5,2.5 0 0 1 2.2226563,4.6015625 2.5,2.5 0 0 1 2.8183594,4.3457031 2.5,2.5 0 0 1 3.4609375,4.25 2.5,2.5 0 0 1 4.1054687,4.3242187 0.5,0.5 0 0 0 4.3515625,4.3222656 0.5,0.5 0 0 0 4.5683594,4.203125 0.5,0.5 0 0 0 4.7011719,3.9941406 4,4 0 0 1 5.0429687,3.2363281 4,4 0 0 1 5.5351562,2.5625 4,4 0 0 1 6.15625,2.0078125 4,4 0 0 1 6.8789062,1.59375 4,4 0 0 1 7.671875,1.3359375 4,4 0 0 1 8.5,1.25 Z"
     style="display:inline;fill:#5599ff"
     id="path2" />
  <path
     id="path6"
     style="display:none;fill:#0000ff;stroke-width:0.98603"
     d="m 3.7089844,10.974609 c -0.008,6.03e-4 -0.015507,0.0024 -0.023437,0.0039 -0.015862,0.003 -0.031981,0.0076 -0.046875,0.01367 -0.014895,0.006 -0.029475,0.0126 -0.042969,0.02148 -0.013492,0.0089 -0.025455,0.01973 -0.037109,0.03125 -0.011528,0.01166 -0.022369,0.02558 -0.03125,0.03906 -0.00888,0.01349 -0.017382,0.02808 -0.023438,0.04297 -0.00605,0.0149 -0.01062,0.02906 -0.013672,0.04492 -0.00305,0.01587 -0.00403,0.03243 -0.00391,0.04883 V 11.78125 L 2.9921875,11.5 c -0.014122,-0.0077 -0.029787,-0.01474 -0.044922,-0.01953 -0.015134,-0.0048 -0.031173,-0.0079 -0.046875,-0.0098 -0.015702,-0.0018 -0.031048,-0.0013 -0.046875,0 -0.015827,0.0013 -0.031369,0.0034 -0.046875,0.0078 -0.01551,0.0045 -0.030774,0.01027 -0.044922,0.01758 -0.014148,0.0072 -0.026631,0.01754 -0.039063,0.02734 -0.012433,0.0098 -0.024791,0.01918 -0.035156,0.03125 -0.010363,0.01207 -0.019399,0.02502 -0.027344,0.03906 -0.0079,0.01406 -0.014574,0.02982 -0.019531,0.04492 -0.00496,0.01511 -0.0078,0.03118 -0.00977,0.04687 -0.00196,0.01571 -0.00304,0.02906 -0.00195,0.04492 0.00108,0.01586 0.00362,0.03326 0.00781,0.04883 0.00412,0.01552 0.010642,0.03068 0.017578,0.04492 0.00694,0.01424 0.013952,0.02646 0.023437,0.03906 0.00948,0.01259 0.021435,0.02456 0.033203,0.03516 0.011768,0.01059 0.025279,0.02105 0.039063,0.0293 L 3.2363281,12.207031 2.75,12.486328 c -0.013784,0.0082 -0.027293,0.01871 -0.039063,0.0293 -0.011768,0.01059 -0.023718,0.02059 -0.033203,0.0332 -0.00948,0.01259 -0.016501,0.02678 -0.023437,0.04102 -0.00694,0.01424 -0.013456,0.0294 -0.017578,0.04492 -0.00419,0.01557 -0.00673,0.031 -0.00781,0.04687 -0.00108,0.01586 -1.42e-5,0.03117 0.00195,0.04687 0.00196,0.01571 0.0048,0.03177 0.00977,0.04687 0.00496,0.01511 0.011634,0.02892 0.019531,0.04297 0.00794,0.01405 0.016979,0.02699 0.027344,0.03906 0.010363,0.01207 0.022724,0.02338 0.035156,0.0332 0.012432,0.0098 0.024916,0.02007 0.039063,0.02734 0.014147,0.0072 0.029412,0.01311 0.044922,0.01758 0.015506,0.0043 0.031048,0.0047 0.046875,0.0059 0.015827,0.0013 0.031172,0.0018 0.046875,0 0.015702,-0.0018 0.031741,-0.0049 0.046875,-0.0098 0.015134,-0.0048 0.030798,-0.0098 0.044922,-0.01758 l 0.4941406,-0.283203 v 0.5625 c -1.254e-4,0.01639 8.439e-4,0.03101 0.00391,0.04687 0.00305,0.01587 0.00761,0.03199 0.013672,0.04687 0.00605,0.0149 0.014557,0.02948 0.023438,0.04297 0.00888,0.01349 0.019722,0.02547 0.03125,0.03711 0.011654,0.01153 0.023616,0.02237 0.037109,0.03125 0.013492,0.0089 0.028075,0.01739 0.042969,0.02344 0.014895,0.006 0.031013,0.01066 0.046875,0.01367 0.015862,0.003 0.030483,0.0039 0.046875,0.0039 0.016392,1.26e-4 0.032967,-8.02e-4 0.048828,-0.0039 0.015862,-0.003 0.03198,-0.0076 0.046875,-0.01367 0.014895,-0.006 0.027523,-0.01456 0.041016,-0.02344 0.013492,-0.0089 0.027408,-0.01973 0.039063,-0.03125 0.011528,-0.01165 0.022369,-0.02363 0.03125,-0.03711 0.00888,-0.01349 0.017382,-0.02807 0.023437,-0.04297 0.00605,-0.0149 0.010621,-0.03102 0.013672,-0.04687 0.00305,-0.01587 0.00403,-0.03047 0.00391,-0.04687 v -0.560547 l 0.4941406,0.28125 c 0.014123,0.0077 0.029787,0.01473 0.044922,0.01953 0.015134,0.0048 0.02922,0.0079 0.044922,0.0098 0.015702,0.0018 0.033002,0.0013 0.048828,0 0.015827,-0.0012 0.031369,-0.0034 0.046875,-0.0078 0.01551,-0.0045 0.028821,-0.01027 0.042969,-0.01758 0.014148,-0.0072 0.028584,-0.01754 0.041016,-0.02734 0.012432,-0.0098 0.024792,-0.02113 0.035156,-0.0332 0.010363,-0.01207 0.0194,-0.02502 0.027344,-0.03906 0.0079,-0.01406 0.012621,-0.02787 0.017578,-0.04297 0.00496,-0.01511 0.0078,-0.03118 0.00977,-0.04687 0.00196,-0.01571 0.00304,-0.03102 0.00195,-0.04687 -0.00108,-0.01586 -0.00362,-0.03131 -0.00781,-0.04687 -0.00412,-0.01552 -0.00869,-0.03068 -0.015625,-0.04492 -0.00694,-0.01424 -0.013952,-0.02842 -0.023437,-0.04102 -0.00948,-0.01259 -0.021435,-0.0226 -0.033203,-0.0332 -0.011768,-0.01059 -0.025279,-0.02105 -0.039063,-0.0293 L 4.2304688,12.207031 4.7167969,11.927734 c 0.013784,-0.0082 0.027295,-0.0187 0.039063,-0.0293 0.011768,-0.01059 0.023719,-0.02255 0.033203,-0.03516 0.00948,-0.01259 0.016501,-0.02482 0.023437,-0.03906 0.00694,-0.01424 0.011503,-0.0294 0.015625,-0.04492 0.00419,-0.01557 0.00673,-0.03296 0.00781,-0.04883 0.00108,-0.01586 1.42e-5,-0.02922 -0.00195,-0.04492 -0.00196,-0.01571 -0.0048,-0.03177 -0.00977,-0.04687 -0.00496,-0.01511 -0.00968,-0.03087 -0.017578,-0.04492 -0.00794,-0.01405 -0.016979,-0.02503 -0.027344,-0.03711 -0.010363,-0.01207 -0.022724,-0.02338 -0.035156,-0.0332 -0.012432,-0.0099 -0.026869,-0.02007 -0.041016,-0.02734 -0.014147,-0.0072 -0.027459,-0.01311 -0.042969,-0.01758 -0.015506,-0.0043 -0.031048,-0.0066 -0.046875,-0.0078 -0.015827,-0.0012 -0.033125,-0.0018 -0.048828,0 -0.015702,0.0018 -0.029787,0.0049 -0.044922,0.0098 -0.015134,0.0048 -0.030798,0.01179 -0.044922,0.01953 l -0.4941406,0.283203 v -0.5625 c 2.055e-4,-0.02143 -0.00249,-0.04369 -0.00781,-0.06445 -0.00568,-0.02092 -0.014456,-0.03988 -0.025391,-0.05859 -0.010496,-0.01895 -0.023993,-0.03718 -0.039063,-0.05273 -0.015568,-0.01508 -0.033784,-0.02661 -0.052734,-0.03711 -0.018713,-0.01092 -0.03768,-0.01971 -0.058594,-0.02539 -0.020759,-0.0053 -0.043024,-0.008 -0.064453,-0.0078 -0.0082,-6.3e-5 -0.015433,-6.02e-4 -0.023437,0 z m 2.9199218,0 c -0.008,6.03e-4 -0.015507,0.0024 -0.023437,0.0039 -0.015862,0.003 -0.030028,0.0076 -0.044922,0.01367 -0.014895,0.006 -0.029475,0.0126 -0.042969,0.02148 -0.013492,0.0089 -0.027408,0.01973 -0.039063,0.03125 -0.011528,0.01166 -0.022369,0.02558 -0.03125,0.03906 -0.00888,0.01349 -0.015428,0.02808 -0.021484,0.04297 -0.00605,0.0149 -0.01062,0.02906 -0.013672,0.04492 -0.00305,0.01587 -0.00403,0.03243 -0.00391,0.04883 V 11.78125 L 5.9121094,11.5 c -0.014122,-0.0077 -0.027834,-0.01474 -0.042969,-0.01953 -0.015134,-0.0048 -0.031173,-0.0079 -0.046875,-0.0098 -0.015702,-0.0018 -0.033001,-0.0013 -0.048828,0 -0.015827,0.0013 -0.029416,0.0034 -0.044922,0.0078 -0.01551,0.0045 -0.030774,0.01027 -0.044922,0.01758 -0.014148,0.0072 -0.028584,0.01754 -0.041016,0.02734 -0.012433,0.0098 -0.024791,0.01918 -0.035156,0.03125 -0.010363,0.01207 -0.017446,0.02502 -0.025391,0.03906 -0.0079,0.01406 -0.014574,0.02982 -0.019531,0.04492 -0.00496,0.01511 -0.0078,0.03118 -0.00977,0.04687 -0.00196,0.01571 -0.00304,0.02906 -0.00195,0.04492 0.00108,0.01586 0.00362,0.03326 0.00781,0.04883 0.00412,0.01552 0.010642,0.03068 0.017578,0.04492 0.00694,0.01424 0.011998,0.02646 0.021484,0.03906 0.00948,0.01259 0.021435,0.02456 0.033203,0.03516 0.011768,0.01059 0.025278,0.02105 0.039063,0.0293 L 6.15625,12.207031 5.6699219,12.486328 c -0.013784,0.0082 -0.027293,0.01871 -0.039063,0.0293 -0.011768,0.01059 -0.023718,0.02059 -0.033203,0.0332 -0.00948,0.01259 -0.014548,0.02678 -0.021484,0.04102 -0.00694,0.01424 -0.013456,0.0294 -0.017578,0.04492 -0.00419,0.01557 -0.00673,0.031 -0.00781,0.04687 -0.00108,0.01586 -1.42e-5,0.03117 0.00195,0.04687 0.00196,0.01571 0.0048,0.03177 0.00977,0.04687 0.00496,0.01511 0.011634,0.02892 0.019531,0.04297 0.00794,0.01405 0.015026,0.02699 0.025391,0.03906 0.010363,0.01207 0.022724,0.02338 0.035156,0.0332 0.012432,0.0098 0.026869,0.02007 0.041016,0.02734 0.014147,0.0072 0.029412,0.01311 0.044922,0.01758 0.015506,0.0043 0.029095,0.0047 0.044922,0.0059 0.015827,0.0013 0.033125,0.0018 0.048828,0 0.015702,-0.0018 0.031741,-0.0049 0.046875,-0.0098 0.015134,-0.0048 0.028845,-0.0098 0.042969,-0.01758 l 0.4960937,-0.283203 v 0.5625 c -1.254e-4,0.01639 8.439e-4,0.03101 0.00391,0.04687 0.00305,0.01587 0.00761,0.03199 0.013672,0.04687 0.00605,0.0149 0.012603,0.02948 0.021484,0.04297 0.00888,0.01349 0.019722,0.02547 0.03125,0.03711 0.011654,0.01153 0.02557,0.02237 0.039063,0.03125 0.013492,0.0089 0.028075,0.01739 0.042969,0.02344 0.014895,0.006 0.02906,0.01066 0.044922,0.01367 0.015862,0.003 0.032436,0.0039 0.048828,0.0039 0.016392,1.26e-4 0.031014,-8.02e-4 0.046875,-0.0039 0.015862,-0.003 0.03198,-0.0076 0.046875,-0.01367 0.014895,-0.006 0.029476,-0.01456 0.042969,-0.02344 0.013492,-0.0089 0.027408,-0.01973 0.039063,-0.03125 0.011528,-0.01165 0.020416,-0.02363 0.029297,-0.03711 0.00888,-0.01349 0.017383,-0.02807 0.023437,-0.04297 0.00605,-0.0149 0.010621,-0.03102 0.013672,-0.04687 0.00305,-0.01587 0.00403,-0.03047 0.00391,-0.04687 v -0.560547 l 0.4941406,0.28125 c 0.014123,0.0077 0.029787,0.01473 0.044922,0.01953 0.015134,0.0048 0.031173,0.0079 0.046875,0.0098 0.015702,0.0018 0.031049,0.0013 0.046875,0 0.015827,-0.0012 0.031369,-0.0034 0.046875,-0.0078 0.01551,-0.0045 0.030774,-0.01027 0.044922,-0.01758 0.014148,-0.0072 0.028584,-0.01754 0.041016,-0.02734 0.012432,-0.0098 0.022839,-0.02113 0.033203,-0.0332 0.010363,-0.01207 0.0194,-0.02502 0.027344,-0.03906 0.0079,-0.01406 0.014574,-0.02787 0.019531,-0.04297 0.00496,-0.01511 0.0078,-0.03118 0.00977,-0.04687 0.00196,-0.01571 0.00304,-0.03102 0.00195,-0.04687 -0.00108,-0.01586 -0.00362,-0.03131 -0.00781,-0.04687 -0.00412,-0.01552 -0.010641,-0.03068 -0.017578,-0.04492 -0.00694,-0.01424 -0.013952,-0.02842 -0.023437,-0.04102 -0.00948,-0.01259 -0.021435,-0.0226 -0.033203,-0.0332 -0.011768,-0.01059 -0.023326,-0.02105 -0.037109,-0.0293 L 7.1503906,12.207031 7.6386719,11.927734 c 0.013784,-0.0082 0.025341,-0.0187 0.037109,-0.0293 0.011768,-0.01059 0.023719,-0.02255 0.033203,-0.03516 0.00948,-0.01259 0.0165,-0.02482 0.023437,-0.03906 0.00694,-0.01424 0.013456,-0.0294 0.017578,-0.04492 0.00419,-0.01557 0.00673,-0.03296 0.00781,-0.04883 0.00108,-0.01586 1.42e-5,-0.02922 -0.00195,-0.04492 -0.00196,-0.01571 -0.0048,-0.03177 -0.00977,-0.04687 -0.00496,-0.01511 -0.011634,-0.03087 -0.019531,-0.04492 -0.00794,-0.01405 -0.016979,-0.02503 -0.027344,-0.03711 -0.010363,-0.01207 -0.022724,-0.02338 -0.035156,-0.0332 -0.012432,-0.0099 -0.024915,-0.02007 -0.039063,-0.02734 -0.014147,-0.0072 -0.029412,-0.01311 -0.044922,-0.01758 -0.015506,-0.0043 -0.031048,-0.0066 -0.046875,-0.0078 -0.015827,-0.0012 -0.031172,-0.0018 -0.046875,0 -0.015702,0.0018 -0.03174,0.0049 -0.046875,0.0098 -0.015134,0.0048 -0.030798,0.01179 -0.044922,0.01953 l -0.4941406,0.283203 v -0.5625 c 2.056e-4,-0.02143 -0.00249,-0.04369 -0.00781,-0.06445 -0.00568,-0.02092 -0.014456,-0.03988 -0.025391,-0.05859 -0.010496,-0.01895 -0.02204,-0.03718 -0.037109,-0.05273 -0.015568,-0.01508 -0.033784,-0.02661 -0.052734,-0.03711 -0.018713,-0.01092 -0.039633,-0.01971 -0.060547,-0.02539 -0.020759,-0.0053 -0.041071,-0.008 -0.0625,-0.0078 -0.0082,-6.3e-5 -0.017386,-6.02e-4 -0.025391,0 z m 2.921875,0 c -0.008,6.03e-4 -0.015507,0.0024 -0.023437,0.0039 -0.015862,0.003 -0.031981,0.0076 -0.046875,0.01367 -0.014895,0.006 -0.029475,0.0126 -0.042969,0.02148 -0.013492,0.0089 -0.025455,0.01973 -0.037109,0.03125 -0.011528,0.01166 -0.022369,0.02558 -0.03125,0.03906 -0.00888,0.01349 -0.017381,0.02808 -0.023437,0.04297 -0.00605,0.0149 -0.01062,0.02906 -0.013672,0.04492 -0.00305,0.01587 -0.00403,0.03243 -0.00391,0.04883 V 11.78125 L 8.8339844,11.5 c -0.014122,-0.0077 -0.029787,-0.01474 -0.044922,-0.01953 -0.015134,-0.0048 -0.031173,-0.0079 -0.046875,-0.0098 -0.015702,-0.0018 -0.031048,-0.0013 -0.046875,0 -0.015827,0.0013 -0.031369,0.0034 -0.046875,0.0078 -0.01551,0.0045 -0.030774,0.01027 -0.044922,0.01758 -0.014148,0.0072 -0.02663,0.01754 -0.039063,0.02734 -0.012433,0.0098 -0.024791,0.01918 -0.035156,0.03125 -0.010363,0.01207 -0.019399,0.02502 -0.027344,0.03906 -0.0079,0.01406 -0.014574,0.02982 -0.019531,0.04492 -0.00496,0.01511 -0.0078,0.03118 -0.00977,0.04687 -0.00196,0.01571 -0.00304,0.02906 -0.00195,0.04492 0.00108,0.01586 0.00362,0.03326 0.00781,0.04883 0.00412,0.01552 0.010642,0.03068 0.017578,0.04492 0.00694,0.01424 0.013951,0.02646 0.023437,0.03906 0.00948,0.01259 0.021435,0.02456 0.033203,0.03516 0.011768,0.01059 0.023325,0.02105 0.037109,0.0293 l 0.4882812,0.279297 -0.4882812,0.279297 c -0.013784,0.0082 -0.02534,0.01871 -0.037109,0.0293 -0.011768,0.01059 -0.023718,0.02059 -0.033203,0.0332 -0.00948,0.01259 -0.016501,0.02678 -0.023437,0.04102 -0.00694,0.01424 -0.013456,0.0294 -0.017578,0.04492 -0.00419,0.01557 -0.00673,0.031 -0.00781,0.04687 -0.00108,0.01586 -1.42e-5,0.03117 0.00195,0.04687 0.00196,0.01571 0.0048,0.03177 0.00977,0.04687 0.00496,0.01511 0.011634,0.02892 0.019531,0.04297 0.00794,0.01405 0.016979,0.02699 0.027344,0.03906 0.010363,0.01207 0.022724,0.02338 0.035156,0.0332 0.012432,0.0098 0.024916,0.02007 0.039063,0.02734 0.014147,0.0072 0.029412,0.01311 0.044922,0.01758 0.015506,0.0043 0.031048,0.0047 0.046875,0.0059 0.015827,0.0013 0.031172,0.0018 0.046875,0 0.015702,-0.0018 0.031741,-0.0049 0.046875,-0.0098 0.015134,-0.0048 0.030798,-0.0098 0.044922,-0.01758 L 9.328125,12.630859 v 0.5625 c -1.254e-4,0.01639 8.439e-4,0.03101 0.00391,0.04687 0.00305,0.01587 0.00761,0.03199 0.013672,0.04687 0.00605,0.0149 0.014556,0.02948 0.023437,0.04297 0.00888,0.01349 0.019722,0.02547 0.03125,0.03711 0.011654,0.01153 0.023616,0.02237 0.037109,0.03125 0.013492,0.0089 0.028075,0.01739 0.042969,0.02344 0.014895,0.006 0.031013,0.01066 0.046875,0.01367 0.015862,0.003 0.030483,0.0039 0.046875,0.0039 0.016392,1.26e-4 0.032967,-8.02e-4 0.048828,-0.0039 0.015862,-0.003 0.03198,-0.0076 0.046875,-0.01367 0.014895,-0.006 0.027523,-0.01456 0.041016,-0.02344 0.013492,-0.0089 0.027408,-0.01973 0.039063,-0.03125 0.011528,-0.01165 0.022369,-0.02363 0.03125,-0.03711 0.00888,-0.01349 0.017383,-0.02807 0.023437,-0.04297 0.00605,-0.0149 0.010621,-0.03102 0.013672,-0.04687 0.00305,-0.01587 0.00403,-0.03047 0.00391,-0.04687 v -0.560547 l 0.49414,0.28125 c 0.01412,0.0077 0.02978,0.01473 0.04492,0.01953 0.01513,0.0048 0.02922,0.0079 0.04492,0.0098 0.0157,0.0018 0.033,0.0013 0.04883,0 0.01583,-0.0012 0.03136,-0.0034 0.04687,-0.0078 0.01551,-0.0045 0.02883,-0.01027 0.04297,-0.01758 0.01415,-0.0072 0.02859,-0.01754 0.04102,-0.02734 0.01243,-0.0098 0.02479,-0.02113 0.03516,-0.0332 0.01036,-0.01207 0.0194,-0.02502 0.02734,-0.03906 0.0079,-0.01406 0.01262,-0.02787 0.01758,-0.04297 0.005,-0.01511 0.0079,-0.03118 0.0098,-0.04687 0.002,-0.01571 0.0031,-0.03102 0.002,-0.04687 -0.0011,-0.01586 -0.0036,-0.03131 -0.0078,-0.04687 -0.0041,-0.01552 -0.01065,-0.03068 -0.01758,-0.04492 -0.0069,-0.01424 -0.01199,-0.02842 -0.02149,-0.04102 -0.0095,-0.01259 -0.02143,-0.0226 -0.0332,-0.0332 -0.01177,-0.01059 -0.02527,-0.02105 -0.03906,-0.0293 l -0.486328,-0.279297 0.486328,-0.279297 c 0.01378,-0.0082 0.02729,-0.0187 0.03906,-0.0293 0.01177,-0.01059 0.02371,-0.02255 0.0332,-0.03516 0.0095,-0.01259 0.01455,-0.02482 0.02149,-0.03906 0.0069,-0.01424 0.01346,-0.0294 0.01758,-0.04492 0.0042,-0.01557 0.0067,-0.03296 0.0078,-0.04883 0.0011,-0.01586 -1.6e-5,-0.02922 -0.002,-0.04492 -0.002,-0.01571 -0.0049,-0.03177 -0.0098,-0.04687 -0.005,-0.01511 -0.0097,-0.03087 -0.01758,-0.04492 -0.0079,-0.01405 -0.01698,-0.02503 -0.02734,-0.03711 -0.01036,-0.01207 -0.02272,-0.02338 -0.03516,-0.0332 -0.01243,-0.0099 -0.02688,-0.02007 -0.04102,-0.02734 -0.01415,-0.0072 -0.02746,-0.01311 -0.04297,-0.01758 -0.01551,-0.0043 -0.03105,-0.0066 -0.04687,-0.0078 -0.01583,-0.0012 -0.03312,-0.0018 -0.04883,0 -0.0157,0.0018 -0.02979,0.0049 -0.04492,0.0098 -0.01513,0.0048 -0.0308,0.01179 -0.04492,0.01953 l -0.49414,0.283203 v -0.5625 c 2.056e-4,-0.02143 -0.00249,-0.04369 -0.00781,-0.06445 -0.00568,-0.02092 -0.014456,-0.03988 -0.025391,-0.05859 -0.010496,-0.01895 -0.023993,-0.03718 -0.039063,-0.05273 -0.015568,-0.01508 -0.033784,-0.02661 -0.052734,-0.03711 -0.018713,-0.01092 -0.03768,-0.01971 -0.058594,-0.02539 -0.020759,-0.0053 -0.043024,-0.008 -0.064453,-0.0078 -0.0082,-6.3e-5 -0.015433,-6.02e-4 -0.023438,0 z m 2.9199218,0 c -0.008,6.03e-4 -0.01551,0.0024 -0.02344,0.0039 -0.01586,0.003 -0.03199,0.0076 -0.04687,0.01367 -0.01489,0.006 -0.02752,0.0126 -0.04102,0.02148 -0.01349,0.0089 -0.0274,0.01973 -0.03906,0.03125 -0.01153,0.01166 -0.02237,0.02558 -0.03125,0.03906 -0.0089,0.01349 -0.01738,0.02808 -0.02344,0.04297 -0.0061,0.0149 -0.01062,0.02906 -0.01367,0.04492 -0.003,0.01587 -0.0021,0.03243 -0.002,0.04883 V 11.78125 L 11.753906,11.5 c -0.01412,-0.0077 -0.02979,-0.01474 -0.04492,-0.01953 -0.01513,-0.0048 -0.02922,-0.0079 -0.04492,-0.0098 -0.0157,-0.0018 -0.033,-0.0013 -0.04883,0 -0.01583,0.0013 -0.03136,0.0034 -0.04687,0.0078 -0.01551,0.0045 -0.02883,0.01027 -0.04297,0.01758 -0.01415,0.0072 -0.02859,0.01754 -0.04102,0.02734 -0.01243,0.0098 -0.02479,0.01918 -0.03516,0.03125 -0.01036,0.01207 -0.01745,0.02502 -0.02539,0.03906 -0.0079,0.01406 -0.01457,0.02982 -0.01953,0.04492 -0.005,0.01511 -0.0079,0.03118 -0.0098,0.04687 -0.002,0.01571 -0.0031,0.02906 -0.002,0.04492 0.0011,0.01586 0.0036,0.03326 0.0078,0.04883 0.0041,0.01552 0.01065,0.03068 0.01758,0.04492 0.0069,0.01424 0.01199,0.02646 0.02148,0.03906 0.0095,0.01259 0.02143,0.02456 0.0332,0.03516 0.01177,0.01059 0.02527,0.02105 0.03906,0.0293 l 0.486328,0.279297 -0.486328,0.279297 c -0.01378,0.0082 -0.02729,0.01871 -0.03906,0.0293 -0.01177,0.01059 -0.02371,0.02059 -0.0332,0.0332 -0.0095,0.01259 -0.01454,0.02678 -0.02148,0.04102 -0.0069,0.01424 -0.01346,0.0294 -0.01758,0.04492 -0.0042,0.01557 -0.0067,0.031 -0.0078,0.04687 -0.0011,0.01586 1.6e-5,0.03117 0.002,0.04687 0.002,0.01571 0.0049,0.03177 0.0098,0.04687 0.005,0.01511 0.01163,0.02892 0.01953,0.04297 0.0079,0.01405 0.01503,0.02699 0.02539,0.03906 0.01036,0.01207 0.02272,0.02338 0.03516,0.0332 0.01243,0.0098 0.02688,0.02007 0.04102,0.02734 0.01415,0.0072 0.02746,0.01311 0.04297,0.01758 0.01551,0.0043 0.03105,0.0047 0.04687,0.0059 0.01583,0.0013 0.03312,0.0018 0.04883,0 0.0157,-0.0018 0.02979,-0.0049 0.04492,-0.0098 0.01513,-0.0048 0.0308,-0.0098 0.04492,-0.01758 L 12.25,12.630859 v 0.5625 c -1.25e-4,0.01639 8.04e-4,0.03101 0.0039,0.04687 0.003,0.01587 0.0056,0.03199 0.01172,0.04687 0.0061,0.0149 0.01456,0.02948 0.02344,0.04297 0.0089,0.01349 0.01972,0.02547 0.03125,0.03711 0.01165,0.01153 0.02556,0.02237 0.03906,0.03125 0.01349,0.0089 0.02612,0.01739 0.04102,0.02344 0.0149,0.006 0.03102,0.01066 0.04687,0.01367 0.01586,0.003 0.03243,0.0039 0.04883,0.0039 0.01639,1.26e-4 0.03101,-8.02e-4 0.04687,-0.0039 0.01586,-0.003 0.03199,-0.0076 0.04687,-0.01367 0.0149,-0.006 0.02948,-0.01456 0.04297,-0.02344 0.01349,-0.0089 0.02545,-0.01973 0.03711,-0.03125 0.01153,-0.01165 0.02237,-0.02363 0.03125,-0.03711 0.0089,-0.01349 0.01738,-0.02807 0.02344,-0.04297 0.0061,-0.0149 0.01062,-0.03102 0.01367,-0.04687 0.003,-0.01587 0.004,-0.03047 0.0039,-0.04687 v -0.560547 l 0.49414,0.28125 c 0.01412,0.0077 0.02979,0.01473 0.04492,0.01953 0.01513,0.0048 0.03117,0.0079 0.04687,0.0098 0.0157,0.0018 0.03105,0.0013 0.04687,0 0.01583,-0.0012 0.03136,-0.0034 0.04687,-0.0078 0.01551,-0.0045 0.03078,-0.01027 0.04492,-0.01758 0.01415,-0.0072 0.02663,-0.01754 0.03906,-0.02734 0.01243,-0.0098 0.02479,-0.02113 0.03516,-0.0332 0.01036,-0.01207 0.0194,-0.02502 0.02734,-0.03906 0.0079,-0.01406 0.01457,-0.02787 0.01953,-0.04297 0.005,-0.01511 0.0079,-0.03118 0.0098,-0.04687 0.002,-0.01571 0.0031,-0.03102 0.002,-0.04687 -0.0011,-0.01586 -0.0036,-0.03131 -0.0078,-0.04687 -0.0041,-0.01552 -0.01065,-0.03068 -0.01758,-0.04492 -0.0069,-0.01424 -0.01395,-0.02842 -0.02344,-0.04102 -0.0095,-0.01259 -0.02143,-0.0226 -0.0332,-0.0332 -0.01177,-0.01059 -0.02332,-0.02105 -0.03711,-0.0293 l -0.488281,-0.279297 0.488281,-0.279297 c 0.01378,-0.0082 0.02534,-0.0187 0.03711,-0.0293 0.01177,-0.01059 0.02371,-0.02255 0.0332,-0.03516 0.0095,-0.01259 0.0165,-0.02482 0.02344,-0.03906 0.0069,-0.01424 0.01346,-0.0294 0.01758,-0.04492 0.0042,-0.01557 0.0067,-0.03296 0.0078,-0.04883 0.0011,-0.01586 -1.6e-5,-0.02922 -0.002,-0.04492 -0.002,-0.01571 -0.0049,-0.03177 -0.0098,-0.04687 -0.005,-0.01511 -0.01163,-0.03087 -0.01953,-0.04492 -0.0079,-0.01405 -0.01698,-0.02503 -0.02734,-0.03711 -0.01036,-0.01207 -0.02272,-0.02338 -0.03516,-0.0332 -0.01243,-0.0099 -0.02492,-0.02007 -0.03906,-0.02734 -0.01415,-0.0072 -0.02941,-0.01311 -0.04492,-0.01758 -0.01551,-0.0043 -0.03105,-0.0066 -0.04687,-0.0078 -0.01583,-0.0012 -0.03116,-0.0018 -0.04687,0 -0.0157,0.0018 -0.03175,0.0049 -0.04687,0.0098 -0.01513,0.0048 -0.0308,0.01179 -0.04492,0.01953 l -0.49414,0.283203 v -0.5625 c 2.05e-4,-0.02143 -0.0025,-0.04369 -0.0078,-0.06445 -0.0057,-0.02092 -0.01445,-0.03988 -0.02539,-0.05859 -0.0105,-0.01895 -0.02399,-0.03718 -0.03906,-0.05273 -0.01557,-0.01508 -0.03183,-0.02661 -0.05078,-0.03711 -0.01871,-0.01092 -0.03964,-0.01971 -0.06055,-0.02539 -0.02076,-0.0053 -0.04107,-0.008 -0.0625,-0.0078 -0.0082,-6.3e-5 -0.01738,-6.02e-4 -0.02539,0 z m -9.4316405,2.560547 c -0.008,6.03e-4 -0.015507,0.0024 -0.023437,0.0039 -0.015862,0.003 -0.031981,0.0076 -0.046875,0.01367 -0.014895,0.006 -0.029475,0.01456 -0.042969,0.02344 -0.013492,0.0089 -0.025455,0.01778 -0.037109,0.0293 -0.011528,0.01165 -0.022369,0.02558 -0.03125,0.03906 -0.00888,0.01349 -0.017381,0.02808 -0.023437,0.04297 -0.00605,0.0149 -0.01062,0.02906 -0.013672,0.04492 -0.00305,0.01587 -0.00403,0.03243 -0.00391,0.04883 v 0.560547 l -0.4941406,-0.28125 c -0.014122,-0.0077 -0.029787,-0.01473 -0.044922,-0.01953 -0.015134,-0.0048 -0.031173,-0.0079 -0.046875,-0.0098 -0.015702,-0.0018 -0.031049,-0.0013 -0.046875,0 -0.015827,0.0013 -0.031369,0.0034 -0.046875,0.0078 -0.01551,0.0045 -0.030774,0.01027 -0.044922,0.01758 -0.014148,0.0072 -0.026631,0.01754 -0.039063,0.02734 -0.012433,0.0098 -0.024791,0.02113 -0.035156,0.0332 -0.010363,0.01207 -0.019399,0.02307 -0.027344,0.03711 -0.0079,0.01406 -0.014574,0.02982 -0.019531,0.04492 -0.00496,0.01511 -0.0078,0.03118 -0.00977,0.04687 -0.00196,0.01571 -0.00304,0.02906 -0.00195,0.04492 0.00108,0.01586 0.00362,0.03326 0.00781,0.04883 0.00412,0.01552 0.010641,0.03068 0.017578,0.04492 0.00694,0.01424 0.013951,0.02646 0.023437,0.03906 0.00948,0.01259 0.021435,0.02456 0.033203,0.03516 0.011768,0.01059 0.023326,0.02105 0.037109,0.0293 l 0.4882812,0.279297 -0.4882812,0.279297 c -0.013784,0.0082 -0.02534,0.01871 -0.037109,0.0293 -0.011768,0.01059 -0.023718,0.02059 -0.033203,0.0332 -0.00948,0.01259 -0.016501,0.02678 -0.023437,0.04102 -0.00694,0.01424 -0.013456,0.0294 -0.017578,0.04492 -0.00419,0.01557 -0.00673,0.03101 -0.00781,0.04688 -0.00108,0.01586 -1.42e-5,0.03117 0.00195,0.04687 0.00196,0.01571 0.0048,0.03178 0.00977,0.04688 0.00496,0.01511 0.011634,0.02892 0.019531,0.04297 0.00794,0.01405 0.016979,0.02699 0.027344,0.03906 0.010363,0.01207 0.022724,0.02338 0.035156,0.0332 0.012432,0.0098 0.024916,0.02007 0.039063,0.02734 0.014147,0.0072 0.029412,0.01311 0.044922,0.01758 0.015506,0.0043 0.031048,0.0066 0.046875,0.0078 0.015827,0.0013 0.031172,0.0018 0.046875,0 0.015702,-0.0018 0.031741,-0.0049 0.046875,-0.0098 0.015134,-0.0048 0.030798,-0.01179 0.044922,-0.01953 l 0.4941406,-0.283203 v 0.5625 c -1.254e-4,0.01639 8.439e-4,0.031 0.00391,0.04687 0.00305,0.01587 0.00761,0.03198 0.013672,0.04687 0.00605,0.0149 0.014557,0.02947 0.023437,0.04297 0.00888,0.01349 0.019722,0.02547 0.03125,0.03711 0.011654,0.01153 0.023616,0.02237 0.037109,0.03125 0.013492,0.0089 0.028075,0.01739 0.042969,0.02344 0.014895,0.006 0.031014,0.01066 0.046875,0.01367 C 3.031487,15.999094 3.046108,16 3.0625,16 c 0.016392,1.26e-4 0.032967,-8.03e-4 0.048828,-0.0039 0.015862,-0.003 0.031979,-0.0076 0.046875,-0.01367 0.014895,-0.006 0.027523,-0.01456 0.041016,-0.02344 0.013492,-0.0089 0.027408,-0.01973 0.039062,-0.03125 0.011528,-0.01166 0.022369,-0.02363 0.03125,-0.03711 0.00888,-0.01349 0.017383,-0.02806 0.023438,-0.04297 0.00605,-0.0149 0.010621,-0.03103 0.013672,-0.04687 0.00305,-0.01587 0.00403,-0.03048 0.00391,-0.04687 v -0.560547 l 0.4941406,0.28125 c 0.014123,0.0077 0.029787,0.01474 0.044922,0.01953 0.015134,0.0048 0.02922,0.0079 0.044922,0.0098 0.015702,0.0018 0.033002,0.0013 0.048828,0 0.015827,-0.0012 0.031369,-0.0034 0.046875,-0.0078 0.01551,-0.0045 0.028821,-0.01027 0.042969,-0.01758 0.014148,-0.0072 0.028584,-0.01754 0.041016,-0.02734 0.012432,-0.0098 0.024792,-0.02113 0.035156,-0.0332 0.010363,-0.01207 0.019401,-0.02307 0.027344,-0.03711 0.0079,-0.01406 0.012621,-0.02982 0.017578,-0.04492 0.00496,-0.01511 0.0078,-0.03118 0.00977,-0.04688 0.00196,-0.01571 0.00304,-0.02906 0.00195,-0.04492 -0.00108,-0.01586 -0.00362,-0.03326 -0.00781,-0.04883 -0.00412,-0.01552 -0.00869,-0.03068 -0.015625,-0.04492 -0.00694,-0.01424 -0.013952,-0.02842 -0.023437,-0.04102 -0.00948,-0.01259 -0.021435,-0.0226 -0.033203,-0.0332 -0.011768,-0.01059 -0.025278,-0.02105 -0.039063,-0.0293 L 3.5605469,14.767578 4.046875,14.488281 c 0.013784,-0.0082 0.027295,-0.0187 0.039063,-0.0293 0.011768,-0.01059 0.023718,-0.02255 0.033203,-0.03516 0.00948,-0.01259 0.014547,-0.02482 0.021484,-0.03906 0.00694,-0.01424 0.013456,-0.0294 0.017578,-0.04492 0.00419,-0.01557 0.00673,-0.03296 0.00781,-0.04883 0.00108,-0.01586 1.43e-5,-0.02922 -0.00195,-0.04492 -0.00196,-0.01571 -0.0048,-0.03177 -0.00977,-0.04687 -0.00496,-0.01511 -0.00968,-0.03087 -0.017578,-0.04492 -0.00794,-0.01405 -0.016979,-0.02503 -0.027344,-0.03711 -0.010363,-0.01207 -0.022724,-0.02338 -0.035156,-0.0332 -0.012432,-0.0099 -0.026869,-0.02007 -0.041016,-0.02734 -0.014147,-0.0072 -0.027459,-0.01311 -0.042969,-0.01758 -0.015506,-0.0043 -0.031048,-0.0066 -0.046875,-0.0078 -0.015827,-0.0012 -0.033125,-0.0018 -0.048828,0 -0.015702,0.0018 -0.029787,0.0049 -0.044922,0.0098 -0.015134,0.0048 -0.030798,0.0118 -0.044922,0.01953 L 3.3105469,14.34375 v -0.5625 c 2.055e-4,-0.02143 -0.00249,-0.04174 -0.00781,-0.0625 -0.00568,-0.02091 -0.014456,-0.04184 -0.025391,-0.06055 -0.010496,-0.01895 -0.023994,-0.03718 -0.039063,-0.05273 -0.015568,-0.01508 -0.033785,-0.02661 -0.052734,-0.03711 -0.018713,-0.01092 -0.03768,-0.01971 -0.058594,-0.02539 -0.020759,-0.0053 -0.043024,-0.008 -0.064453,-0.0078 -0.0082,-6.3e-5 -0.015433,-6.02e-4 -0.023437,0 z m 2.9199219,0 c -0.008,6.03e-4 -0.015507,0.0024 -0.023437,0.0039 -0.015862,0.003 -0.031981,0.0076 -0.046875,0.01367 -0.014895,0.006 -0.027522,0.01456 -0.041016,0.02344 -0.013492,0.0089 -0.027408,0.01778 -0.039062,0.0293 -0.011528,0.01165 -0.022369,0.02558 -0.03125,0.03906 -0.00888,0.01349 -0.017382,0.02808 -0.023438,0.04297 -0.00605,0.0149 -0.00867,0.02906 -0.011719,0.04492 -0.00305,0.01587 -0.00403,0.03243 -0.00391,0.04883 v 0.560547 l -0.4960937,-0.28125 c -0.014122,-0.0077 -0.029787,-0.01473 -0.044922,-0.01953 -0.015134,-0.0048 -0.02922,-0.0079 -0.044922,-0.0098 -0.015702,-0.0018 -0.033002,-0.0013 -0.048828,0 -0.015827,0.0013 -0.031369,0.0034 -0.046875,0.0078 -0.01551,0.0045 -0.028821,0.01027 -0.042969,0.01758 -0.014148,0.0072 -0.028584,0.01754 -0.041016,0.02734 -0.012433,0.0098 -0.024791,0.02113 -0.035156,0.0332 -0.010363,0.01207 -0.017446,0.02307 -0.025391,0.03711 -0.0079,0.01406 -0.014574,0.02982 -0.019531,0.04492 -0.00496,0.01511 -0.0078,0.03118 -0.00977,0.04687 -0.00196,0.01571 -0.00304,0.02906 -0.00195,0.04492 0.00108,0.01586 0.00362,0.03326 0.00781,0.04883 0.00412,0.01552 0.010641,0.03068 0.017578,0.04492 0.00694,0.01424 0.011998,0.02646 0.021484,0.03906 0.00948,0.01259 0.021435,0.02456 0.033203,0.03516 0.011768,0.01059 0.025279,0.02105 0.039063,0.0293 L 5.4863281,14.767578 5,15.046875 c -0.013784,0.0082 -0.027293,0.01871 -0.039063,0.0293 -0.011768,0.01059 -0.023718,0.02059 -0.033203,0.0332 -0.00948,0.01259 -0.014548,0.02678 -0.021484,0.04102 -0.00694,0.01424 -0.013456,0.0294 -0.017578,0.04492 -0.00419,0.01557 -0.00673,0.03101 -0.00781,0.04688 -0.00108,0.01586 -1.42e-5,0.03117 0.00195,0.04687 0.00196,0.01571 0.0048,0.03178 0.00977,0.04688 0.00496,0.01511 0.011634,0.02892 0.019531,0.04297 0.00794,0.01405 0.015026,0.02699 0.025391,0.03906 0.010363,0.01207 0.022724,0.02338 0.035156,0.0332 0.012432,0.0098 0.026869,0.02007 0.041016,0.02734 0.014147,0.0072 0.027459,0.01311 0.042969,0.01758 0.015506,0.0043 0.031048,0.0066 0.046875,0.0078 0.015827,0.0013 0.033125,0.0018 0.048828,0 0.015702,-0.0018 0.029788,-0.0049 0.044922,-0.0098 0.015134,-0.0048 0.030798,-0.01179 0.044922,-0.01953 l 0.4960937,-0.283203 v 0.5625 c -1.254e-4,0.01639 8.439e-4,0.031 0.00391,0.04687 0.00305,0.01587 0.00566,0.03198 0.011719,0.04687 0.00605,0.0149 0.014557,0.02947 0.023438,0.04297 0.00888,0.01349 0.019722,0.02547 0.03125,0.03711 0.011654,0.01153 0.02557,0.02237 0.039062,0.03125 0.013492,0.0089 0.026122,0.01739 0.041016,0.02344 0.014895,0.006 0.031014,0.01066 0.046875,0.01367 0.015862,0.003 0.032436,0.0039 0.048828,0.0039 0.016392,1.26e-4 0.031014,-8.03e-4 0.046875,-0.0039 0.015862,-0.003 0.031979,-0.0076 0.046875,-0.01367 0.014895,-0.006 0.029476,-0.01456 0.042969,-0.02344 0.013492,-0.0089 0.027408,-0.01973 0.039062,-0.03125 0.011528,-0.01166 0.020416,-0.02363 0.029297,-0.03711 0.00888,-0.01349 0.017383,-0.02806 0.023437,-0.04297 0.00605,-0.0149 0.010621,-0.03103 0.013672,-0.04687 0.00305,-0.01587 0.00403,-0.03048 0.00391,-0.04687 v -0.560547 l 0.4941406,0.28125 c 0.014123,0.0077 0.029787,0.01474 0.044922,0.01953 0.015134,0.0048 0.031173,0.0079 0.046875,0.0098 0.015702,0.0018 0.031049,0.0013 0.046875,0 0.015827,-0.0012 0.031369,-0.0034 0.046875,-0.0078 0.01551,-0.0045 0.030774,-0.01027 0.044922,-0.01758 0.014148,-0.0072 0.026631,-0.01754 0.039063,-0.02734 0.012432,-0.0098 0.024792,-0.02113 0.035156,-0.0332 0.010363,-0.01207 0.019401,-0.02307 0.027344,-0.03711 0.0079,-0.01406 0.014574,-0.02982 0.019531,-0.04492 0.00496,-0.01511 0.0078,-0.03118 0.00977,-0.04688 0.00196,-0.01571 0.00304,-0.02906 0.00195,-0.04492 -0.00108,-0.01586 -0.00362,-0.03326 -0.00781,-0.04883 -0.00412,-0.01552 -0.010642,-0.03068 -0.017578,-0.04492 -0.00694,-0.01424 -0.013952,-0.02842 -0.023437,-0.04102 -0.00948,-0.01259 -0.021435,-0.0226 -0.033203,-0.0332 -0.011768,-0.01059 -0.023325,-0.02105 -0.037109,-0.0293 L 6.4804688,14.767578 6.96875,14.488281 c 0.013784,-0.0082 0.025341,-0.0187 0.037109,-0.0293 0.011768,-0.01059 0.023718,-0.02255 0.033203,-0.03516 0.00948,-0.01259 0.016501,-0.02482 0.023437,-0.03906 0.00694,-0.01424 0.013456,-0.0294 0.017578,-0.04492 0.00419,-0.01557 0.00673,-0.03296 0.00781,-0.04883 0.00108,-0.01586 1.43e-5,-0.02922 -0.00195,-0.04492 -0.00196,-0.01571 -0.0048,-0.03177 -0.00977,-0.04687 -0.00496,-0.01511 -0.011634,-0.03087 -0.019531,-0.04492 -0.00794,-0.01405 -0.016979,-0.02503 -0.027344,-0.03711 -0.010363,-0.01207 -0.022724,-0.02338 -0.035156,-0.0332 -0.012432,-0.0099 -0.024915,-0.02007 -0.039063,-0.02734 -0.014147,-0.0072 -0.029412,-0.01311 -0.044922,-0.01758 -0.015506,-0.0043 -0.031048,-0.0066 -0.046875,-0.0078 -0.015827,-0.0012 -0.031172,-0.0018 -0.046875,0 -0.015702,0.0018 -0.03174,0.0049 -0.046875,0.0098 -0.015134,0.0048 -0.030798,0.0118 -0.044922,0.01953 L 6.2304688,14.34375 v -0.5625 c 2.054e-4,-0.02143 -0.00249,-0.04174 -0.00781,-0.0625 -0.00568,-0.02091 -0.014456,-0.04184 -0.025391,-0.06055 -0.010496,-0.01895 -0.023993,-0.03718 -0.039063,-0.05273 -0.015568,-0.01508 -0.031832,-0.02661 -0.050781,-0.03711 -0.018713,-0.01092 -0.039633,-0.01971 -0.060547,-0.02539 -0.020759,-0.0053 -0.041071,-0.008 -0.0625,-0.0078 -0.0082,-6.3e-5 -0.017386,-6.02e-4 -0.025391,0 z m 2.921875,0 c -0.008,6.03e-4 -0.015507,0.0024 -0.023437,0.0039 -0.015862,0.003 -0.031981,0.0076 -0.046875,0.01367 -0.014895,0.006 -0.029475,0.01456 -0.042969,0.02344 -0.013492,0.0089 -0.027408,0.01778 -0.039063,0.0293 -0.011528,0.01165 -0.020416,0.02558 -0.029297,0.03906 -0.00888,0.01349 -0.017382,0.02808 -0.023438,0.04297 -0.00605,0.0149 -0.01062,0.02906 -0.013672,0.04492 -0.00305,0.01587 -0.00403,0.03243 -0.00391,0.04883 v 0.560547 l -0.4941406,-0.28125 c -0.014122,-0.0077 -0.029787,-0.01473 -0.044922,-0.01953 -0.015134,-0.0048 -0.031173,-0.0079 -0.046875,-0.0098 -0.015702,-0.0018 -0.031049,-0.0013 -0.046875,0 -0.015827,0.0013 -0.031369,0.0034 -0.046875,0.0078 -0.01551,0.0045 -0.030774,0.01027 -0.044922,0.01758 -0.014148,0.0072 -0.026631,0.01754 -0.039063,0.02734 -0.012433,0.0098 -0.024791,0.02113 -0.035156,0.0332 -0.010363,0.01207 -0.019399,0.02307 -0.027344,0.03711 -0.0079,0.01406 -0.014574,0.02982 -0.019531,0.04492 -0.00496,0.01511 -0.0078,0.03118 -0.00977,0.04687 -0.00196,0.01571 -0.00304,0.02906 -0.00195,0.04492 0.00108,0.01586 0.00362,0.03326 0.00781,0.04883 0.00412,0.01552 0.010641,0.03068 0.017578,0.04492 0.00694,0.01424 0.013952,0.02646 0.023437,0.03906 0.00948,0.01259 0.021435,0.02456 0.033203,0.03516 0.011768,0.01059 0.023326,0.02105 0.037109,0.0293 L 8.408193,14.76752 7.9199118,15.046817 c -0.013784,0.0082 -0.02534,0.01871 -0.037109,0.0293 -0.011768,0.01059 -0.023718,0.02059 -0.033203,0.0332 -0.00948,0.01259 -0.016502,0.02678 -0.023437,0.04102 -0.00694,0.01424 -0.013456,0.0294 -0.017578,0.04492 -0.00419,0.01557 -0.00673,0.03101 -0.00781,0.04688 -0.00108,0.01586 -1.41e-5,0.03117 0.00195,0.04687 0.00196,0.01571 0.0048,0.03178 0.00977,0.04688 0.00496,0.01511 0.011634,0.02892 0.019531,0.04297 0.00794,0.01405 0.016979,0.02699 0.027344,0.03906 0.010363,0.01207 0.022724,0.02338 0.035156,0.0332 0.012432,0.0098 0.024916,0.02007 0.039063,0.02734 0.014147,0.0072 0.029412,0.01311 0.044922,0.01758 0.015506,0.0043 0.031048,0.0066 0.046875,0.0078 0.015827,0.0013 0.031172,0.0018 0.046875,0 0.015702,-0.0018 0.031741,-0.0049 0.046875,-0.0098 0.015134,-0.0048 0.030798,-0.01179 0.044922,-0.01953 l 0.4941406,-0.283203 v 0.5625 c -1.255e-4,0.01639 8.439e-4,0.031 0.00391,0.04687 0.00305,0.01587 0.00761,0.03198 0.013672,0.04687 0.00605,0.0149 0.014557,0.02947 0.023438,0.04297 0.00888,0.01349 0.017769,0.02547 0.029297,0.03711 0.011654,0.01153 0.025569,0.02237 0.039063,0.03125 0.013492,0.0089 0.028075,0.01739 0.042969,0.02344 0.014895,0.006 0.031014,0.01066 0.046875,0.01367 0.015862,0.003 0.030483,0.0039 0.046875,0.0039 0.016392,1.26e-4 0.032967,-8.03e-4 0.048828,-0.0039 0.015862,-0.003 0.031979,-0.0076 0.046875,-0.01367 0.014895,-0.006 0.027523,-0.01456 0.041016,-0.02344 0.013492,-0.0089 0.027408,-0.01973 0.039063,-0.03125 0.011528,-0.01166 0.022369,-0.02363 0.03125,-0.03711 0.00888,-0.01349 0.017383,-0.02806 0.023437,-0.04297 0.00605,-0.0149 0.00867,-0.03103 0.011719,-0.04687 0.00305,-0.01587 0.00403,-0.03048 0.00391,-0.04687 v -0.560547 l 0.4960938,0.28125 c 0.014123,0.0077 0.029787,0.01474 0.044922,0.01953 0.015134,0.0048 0.02922,0.0079 0.044922,0.0098 0.015702,0.0018 0.033002,0.0013 0.048828,0 0.015827,-0.0012 0.031369,-0.0034 0.046875,-0.0078 0.01551,-0.0045 0.028821,-0.01027 0.042969,-0.01758 0.01415,-0.0072 0.028586,-0.01754 0.041016,-0.02734 0.01243,-0.0098 0.024796,-0.02113 0.035156,-0.0332 0.01036,-0.01207 0.017451,-0.02307 0.025391,-0.03711 0.0079,-0.01406 0.014571,-0.02982 0.019531,-0.04492 0.005,-0.01511 0.00787,-0.03118 0.00977,-0.04688 0.002,-0.01571 0.0031,-0.02906 0.002,-0.04492 -0.0011,-0.01586 -0.0036,-0.03326 -0.0078,-0.04883 -0.0041,-0.01552 -0.010648,-0.03068 -0.017578,-0.04492 -0.0069,-0.01424 -0.011994,-0.02842 -0.021484,-0.04102 -0.0095,-0.01259 -0.021433,-0.0226 -0.033203,-0.0332 -0.01177,-0.01059 -0.025272,-0.02105 -0.039063,-0.0293 L 9.4023438,14.767578 9.8886719,14.488281 c 0.01378,-0.0082 0.027292,-0.0187 0.039063,-0.0293 0.01177,-0.01059 0.023713,-0.02255 0.033203,-0.03516 0.0095,-0.01259 0.014544,-0.02482 0.021484,-0.03906 0.0069,-0.01424 0.013458,-0.0294 0.017578,-0.04492 0.0042,-0.01557 0.0067,-0.03296 0.0078,-0.04883 0.0011,-0.01586 -1.6e-5,-0.02922 -0.002,-0.04492 -0.002,-0.01571 -0.0049,-0.03177 -0.00977,-0.04687 -0.005,-0.01511 -0.011631,-0.03087 -0.019531,-0.04492 -0.0079,-0.01405 -0.015031,-0.02503 -0.025391,-0.03711 -0.01036,-0.01207 -0.022716,-0.02338 -0.035156,-0.0332 -0.01243,-0.0099 -0.026876,-0.02007 -0.041016,-0.02734 -0.014147,-0.0072 -0.027459,-0.01311 -0.042969,-0.01758 -0.015506,-0.0043 -0.031048,-0.0066 -0.046875,-0.0078 -0.015827,-0.0012 -0.033125,-0.0018 -0.048828,0 -0.015702,0.0018 -0.029787,0.0049 -0.044922,0.0098 -0.015134,0.0048 -0.030798,0.0118 -0.044922,0.01953 L 9.1503906,14.34375 v -0.5625 c 2.055e-4,-0.02143 -5.394e-4,-0.04174 -0.00586,-0.0625 -0.00568,-0.02091 -0.014456,-0.04184 -0.025391,-0.06055 -0.010496,-0.01895 -0.023993,-0.03718 -0.039063,-0.05273 -0.015568,-0.01508 -0.033785,-0.02661 -0.052734,-0.03711 -0.018713,-0.01092 -0.03768,-0.01971 -0.058594,-0.02539 -0.020759,-0.0053 -0.043024,-0.008 -0.064453,-0.0078 -0.0082,-6.3e-5 -0.015433,-6.02e-4 -0.023437,0 z m 2.9199216,0 c -0.008,6.03e-4 -0.0155,0.0024 -0.02344,0.0039 -0.01586,0.003 -0.03198,0.0076 -0.04687,0.01367 -0.01489,0.006 -0.02752,0.01456 -0.04102,0.02344 -0.01349,0.0089 -0.0274,0.01778 -0.03906,0.0293 -0.01153,0.01165 -0.02237,0.02558 -0.03125,0.03906 -0.0089,0.01349 -0.01738,0.02808 -0.02344,0.04297 -0.0061,0.0149 -0.01062,0.02906 -0.01367,0.04492 -0.003,0.01587 -0.004,0.03243 -0.0039,0.04883 v 0.560547 l -0.494141,-0.28125 c -0.01412,-0.0077 -0.02979,-0.01473 -0.04492,-0.01953 -0.01513,-0.0048 -0.02922,-0.0079 -0.04492,-0.0098 -0.0157,-0.0018 -0.033,-0.0013 -0.04883,0 -0.01583,0.0013 -0.03136,0.0034 -0.04687,0.0078 -0.01551,0.0045 -0.02883,0.01027 -0.04297,0.01758 -0.01415,0.0072 -0.02859,0.01754 -0.04102,0.02734 -0.01243,0.0098 -0.02479,0.02113 -0.03516,0.0332 -0.01036,0.01207 -0.0194,0.02307 -0.02734,0.03711 -0.0079,0.01406 -0.01262,0.02982 -0.01758,0.04492 -0.005,0.01511 -0.0079,0.03118 -0.0098,0.04687 -0.002,0.01571 -0.0031,0.02906 -0.002,0.04492 0.0011,0.01586 0.0036,0.03326 0.0078,0.04883 0.0041,0.01552 0.0087,0.03068 0.01563,0.04492 0.0069,0.01424 0.01395,0.02646 0.02344,0.03906 0.0095,0.01259 0.02143,0.02456 0.0332,0.03516 0.01177,0.01059 0.02527,0.02105 0.03906,0.0293 l 0.486328,0.279297 -0.486328,0.279297 c -0.01378,0.0082 -0.02729,0.01871 -0.03906,0.0293 -0.01177,0.01059 -0.02371,0.02059 -0.0332,0.0332 -0.0095,0.01259 -0.0165,0.02678 -0.02344,0.04102 -0.0069,0.01424 -0.0115,0.0294 -0.01563,0.04492 -0.0042,0.01557 -0.0067,0.03101 -0.0078,0.04688 -0.0011,0.01586 1.6e-5,0.03117 0.002,0.04687 0.002,0.01571 0.0049,0.03178 0.0098,0.04688 0.005,0.01511 0.0097,0.02892 0.01758,0.04297 0.0079,0.01405 0.01698,0.02699 0.02734,0.03906 0.01036,0.01207 0.02272,0.02338 0.03516,0.0332 0.01243,0.0098 0.02688,0.02007 0.04102,0.02734 0.01415,0.0072 0.02747,0.01311 0.04297,0.01758 0.01551,0.0043 0.03104,0.0066 0.04687,0.0078 0.01583,0.0013 0.03312,0.0018 0.04883,0 0.0157,-0.0018 0.02979,-0.0049 0.04492,-0.0098 0.01513,-0.0048 0.0308,-0.01179 0.04492,-0.01953 l 0.494141,-0.283203 v 0.5625 c -1.25e-4,0.01639 8.04e-4,0.031 0.0039,0.04687 0.003,0.01587 0.0076,0.03198 0.01367,0.04687 0.0061,0.0149 0.01456,0.02947 0.02344,0.04297 0.0089,0.01349 0.01972,0.02547 0.03125,0.03711 0.01165,0.01153 0.02556,0.02237 0.03906,0.03125 0.01349,0.0089 0.02612,0.01739 0.04102,0.02344 0.01489,0.006 0.03102,0.01066 0.04687,0.01367 0.01586,0.003 0.03243,0.0039 0.04883,0.0039 0.01639,1.26e-4 0.03101,-8.03e-4 0.04687,-0.0039 0.01586,-0.003 0.03198,-0.0076 0.04687,-0.01367 0.01489,-0.006 0.02947,-0.01456 0.04297,-0.02344 0.01349,-0.0089 0.02545,-0.01973 0.03711,-0.03125 0.01153,-0.01166 0.02237,-0.02363 0.03125,-0.03711 0.0089,-0.01349 0.01738,-0.02806 0.02344,-0.04297 0.0061,-0.0149 0.01062,-0.03103 0.01367,-0.04687 0.003,-0.01587 0.004,-0.03048 0.0039,-0.04687 v -0.560547 l 0.49414,0.28125 c 0.01412,0.0077 0.02979,0.01474 0.04492,0.01953 0.01513,0.0048 0.03117,0.0079 0.04687,0.0098 0.0157,0.0018 0.03104,0.0013 0.04687,0 0.01583,-0.0012 0.03136,-0.0034 0.04687,-0.0078 0.01551,-0.0045 0.03078,-0.01027 0.04492,-0.01758 0.01415,-0.0072 0.02663,-0.01754 0.03906,-0.02734 0.01243,-0.0098 0.02479,-0.02113 0.03516,-0.0332 0.01036,-0.01207 0.0194,-0.02307 0.02734,-0.03711 0.0079,-0.01406 0.01457,-0.02982 0.01953,-0.04492 0.005,-0.01511 0.0079,-0.03118 0.0098,-0.04688 0.002,-0.01571 0.0031,-0.02906 0.002,-0.04492 -0.0011,-0.01586 -0.0036,-0.03326 -0.0078,-0.04883 -0.0041,-0.01552 -0.01065,-0.03068 -0.01758,-0.04492 -0.0069,-0.01424 -0.01395,-0.02842 -0.02344,-0.04102 -0.0095,-0.01259 -0.02143,-0.0226 -0.0332,-0.0332 -0.01177,-0.01059 -0.02332,-0.02105 -0.03711,-0.0293 L 12.32232,14.76752 12.810601,14.488223 c 0.01378,-0.0082 0.02534,-0.0187 0.03711,-0.0293 0.01177,-0.01059 0.02371,-0.02255 0.0332,-0.03516 0.0095,-0.01259 0.0165,-0.02482 0.02344,-0.03906 0.0069,-0.01424 0.01346,-0.0294 0.01758,-0.04492 0.0042,-0.01557 0.0067,-0.03296 0.0078,-0.04883 0.0011,-0.01586 -1.7e-5,-0.02922 -0.002,-0.04492 -0.002,-0.01571 -0.0049,-0.03177 -0.0098,-0.04687 -0.005,-0.01511 -0.01163,-0.03087 -0.01953,-0.04492 -0.0079,-0.01405 -0.01698,-0.02503 -0.02734,-0.03711 -0.01036,-0.01207 -0.02272,-0.02338 -0.03516,-0.0332 -0.01243,-0.0099 -0.02492,-0.02007 -0.03906,-0.02734 -0.01415,-0.0072 -0.02942,-0.01311 -0.04492,-0.01758 -0.01551,-0.0043 -0.03105,-0.0066 -0.04687,-0.0078 -0.01583,-0.0012 -0.03116,-0.0018 -0.04687,0 -0.0157,0.0018 -0.03174,0.0049 -0.04687,0.0098 -0.01513,0.0048 -0.0308,0.0118 -0.04492,0.01953 l -0.49414,0.283203 v -0.5625 c 2.05e-4,-0.02143 -0.0025,-0.04174 -0.0078,-0.0625 -0.0057,-0.02091 -0.01445,-0.04184 -0.02539,-0.06055 -0.0105,-0.01895 -0.02399,-0.03718 -0.03906,-0.05273 -0.01557,-0.01508 -0.03183,-0.02661 -0.05078,-0.03711 -0.01871,-0.01092 -0.03964,-0.01971 -0.06055,-0.02539 -0.02076,-0.0053 -0.04107,-0.008 -0.0625,-0.0078 -0.0082,-6.3e-5 -0.01739,-6.02e-4 -0.02539,0 z" />
  <path
     d="M 2.625,11.5 C 2.558502,11.499491 2.4945407,11.5255 2.4472656,11.57227 2.4004975,11.619541 2.3744911,11.683502 2.375,11.75 v 0.568359 L 1.8730469,12.033203 c -0.057292,-0.03138 -0.124594,-0.03909 -0.1875,-0.02148 -0.062915,0.01812 -0.1162126,0.0602 -0.1484375,0.117187 -0.032041,0.05703 -0.040455,0.124341 -0.023437,0.1875 0.016719,0.06298 0.057366,0.116939 0.1132812,0.150391 L 2.1210938,12.75 1.6269531,13.033203 c -0.055916,0.03345 -0.096562,0.08741 -0.1132812,0.150391 -0.017018,0.06316 -0.0086,0.130473 0.023437,0.1875 0.032225,0.05699 0.085523,0.09907 0.1484375,0.117187 0.062906,0.01761 0.1302078,0.0099 0.1875,-0.02148 L 2.375,13.179688 V 13.75 c -5.089e-4,0.0665 0.025498,0.130459 0.072266,0.177734 0.047275,0.04677 0.1112368,0.07278 0.1777344,0.07227 0.066498,5.09e-4 0.1304593,-0.0255 0.1777344,-0.07227 C 2.8495025,13.880459 2.8755089,13.816498 2.875,13.75 v -0.568359 l 0.5019531,0.285156 c 0.057292,0.03138 0.124594,0.03909 0.1875,0.02148 0.062915,-0.01812 0.1162126,-0.0602 0.1484375,-0.117187 0.032041,-0.05703 0.040455,-0.124341 0.023437,-0.1875 -0.016719,-0.06298 -0.057366,-0.116939 -0.1132812,-0.150391 L 3.1289063,12.75 3.6230469,12.466797 c 0.055916,-0.03345 0.096562,-0.08741 0.1132812,-0.150391 0.017018,-0.06316 0.0086,-0.130473 -0.023437,-0.1875 -0.032225,-0.05699 -0.085523,-0.09907 -0.1484375,-0.117187 -0.062906,-0.01761 -0.1302078,-0.0099 -0.1875,0.02148 L 2.875,12.320313 V 11.75 C 2.8752085,11.72827 2.87258,11.7066 2.86719,11.68555 2.86143,11.66434 2.852888,11.64398 2.841799,11.625 2.831152,11.60578 2.818018,11.58805 2.802736,11.57227 2.7869492,11.556984 2.769218,11.54385 2.75,11.533203 2.7310218,11.522115 2.7106637,11.513578 2.6894531,11.507813 2.6683998,11.502418 2.6467325,11.499791 2.625,11.5 Z m 5.5,0 C 8.058502,11.499491 7.9945408,11.5255 7.9472656,11.57227 7.9004974,11.619541 7.8744911,11.683502 7.875,11.75 v 0.568359 L 7.3730469,12.033203 c -0.057292,-0.03138 -0.1245939,-0.03909 -0.1875,-0.02148 -0.062915,0.01812 -0.1162125,0.0602 -0.1484375,0.117187 -0.032041,0.05703 -0.040455,0.124341 -0.023437,0.1875 0.016719,0.06298 0.057365,0.116939 0.1132812,0.150391 L 7.6210937,12.75 7.1269531,13.033203 c -0.055916,0.03345 -0.096562,0.08741 -0.1132812,0.150391 -0.017018,0.06316 -0.0086,0.130473 0.023437,0.1875 0.032225,0.05699 0.085522,0.09907 0.1484375,0.117187 0.062906,0.01761 0.1302076,0.0099 0.1875,-0.02148 L 7.875,13.179688 V 13.75 c -5.089e-4,0.0665 0.025497,0.130459 0.072266,0.177734 0.047275,0.04677 0.1112366,0.07278 0.1777344,0.07227 0.066498,5.09e-4 0.1304592,-0.0255 0.1777344,-0.07227 C 8.3495026,13.880459 8.3755089,13.816498 8.375,13.75 v -0.568359 l 0.5019531,0.285156 c 0.057292,0.03138 0.1245939,0.03909 0.1875,0.02148 0.062915,-0.01812 0.1162125,-0.0602 0.1484375,-0.117187 0.032041,-0.05703 0.040455,-0.124341 0.023437,-0.1875 -0.016719,-0.06298 -0.057365,-0.116939 -0.1132812,-0.150391 L 8.6289063,12.75 9.1230469,12.466797 c 0.055916,-0.03345 0.096562,-0.08741 0.1132812,-0.150391 0.017018,-0.06316 0.0086,-0.130473 -0.023437,-0.1875 -0.032225,-0.05699 -0.085522,-0.09907 -0.1484375,-0.117187 -0.062906,-0.01761 -0.1302076,-0.0099 -0.1875,0.02148 L 8.375,12.320313 V 11.75 C 8.3752085,11.72827 8.37258,11.7066 8.36719,11.68555 8.36142,11.66434 8.352888,11.64398 8.341799,11.625 8.331152,11.60578 8.318018,11.58805 8.302736,11.57227 8.286951,11.55699 8.26922,11.54385 8.250002,11.53321 8.231024,11.52212 8.210666,11.51359 8.189455,11.50782 8.168402,11.50242 8.146734,11.49982 8.125002,11.50002 Z m 5.5,0 c -0.0665,-5.09e-4 -0.130459,0.0255 -0.177734,0.07227 -0.04677,0.04727 -0.07278,0.111236 -0.07227,0.177734 v 0.568359 l -0.501953,-0.285156 c -0.05729,-0.03138 -0.124594,-0.03909 -0.1875,-0.02148 -0.06292,0.01812 -0.116212,0.0602 -0.148438,0.117187 -0.03204,0.05703 -0.04045,0.124341 -0.02344,0.1875 0.01672,0.06298 0.05737,0.116939 0.113281,0.150391 L 13.121094,12.75 12.626953,13.033203 c -0.05592,0.03345 -0.09656,0.08741 -0.113281,0.150391 -0.01702,0.06316 -0.0086,0.130473 0.02344,0.1875 0.03223,0.05699 0.08552,0.09907 0.148438,0.117187 0.06291,0.01761 0.130207,0.0099 0.1875,-0.02148 L 13.375,13.179688 V 13.75 c -5.09e-4,0.0665 0.0255,0.130459 0.07227,0.177734 0.04727,0.04677 0.111236,0.07278 0.177734,0.07227 0.0665,5.09e-4 0.130459,-0.0255 0.177734,-0.07227 0.04677,-0.04727 0.07278,-0.111236 0.07227,-0.177734 v -0.568359 l 0.501953,0.285156 c 0.05729,0.03138 0.124594,0.03909 0.1875,0.02148 0.06292,-0.01812 0.116212,-0.0602 0.148438,-0.117187 0.03204,-0.05703 0.04045,-0.124341 0.02344,-0.1875 -0.01672,-0.06298 -0.05737,-0.116939 -0.113281,-0.150391 L 14.128906,12.75 14.623047,12.466797 c 0.05592,-0.03345 0.09656,-0.08741 0.113281,-0.150391 0.01702,-0.06316 0.0086,-0.130473 -0.02344,-0.1875 -0.03223,-0.05699 -0.08552,-0.09907 -0.148438,-0.117187 -0.06291,-0.01761 -0.130207,-0.0099 -0.1875,0.02148 L 13.875,12.320313 V 11.75 c 2.09e-4,-0.02173 -0.0024,-0.0434 -0.0078,-0.06445 -0.0058,-0.02121 -0.0143,-0.04157 -0.02539,-0.06055 -0.01065,-0.01922 -0.02378,-0.03695 -0.03906,-0.05273 -0.01578,-0.01528 -0.03352,-0.02842 -0.05273,-0.03906 -0.01898,-0.01109 -0.03934,-0.01962 -0.06055,-0.02539 -0.02105,-0.0054 -0.04272,-0.008 -0.06445,-0.0078 z m -8.25,2 C 5.308502,13.499491 5.2445407,13.5255 5.1972656,13.57227 5.1504975,13.619541 5.1244911,13.683502 5.125,13.75 v 0.568359 L 4.6230469,14.033203 c -0.057292,-0.03138 -0.124594,-0.03909 -0.1875,-0.02148 -0.062915,0.01812 -0.1162126,0.0602 -0.1484375,0.117187 -0.032041,0.05703 -0.040455,0.124341 -0.023437,0.1875 0.016719,0.06298 0.057366,0.116939 0.1132812,0.150391 L 4.8710937,14.75 4.3769531,15.033203 c -0.055916,0.03345 -0.096562,0.08741 -0.1132812,0.150391 -0.017018,0.06316 -0.0086,0.130473 0.023437,0.1875 0.032225,0.05699 0.085523,0.09907 0.1484375,0.117187 0.062906,0.01761 0.1302078,0.0099 0.1875,-0.02148 L 5.125,15.179688 V 15.75 c -5.089e-4,0.0665 0.025498,0.130459 0.072266,0.177734 0.047275,0.04677 0.1112368,0.07278 0.1777344,0.07227 0.066498,5.09e-4 0.1304593,-0.0255 0.1777344,-0.07227 C 5.5995025,15.880459 5.6255089,15.816498 5.625,15.75 v -0.568359 l 0.5019531,0.285156 c 0.057292,0.03138 0.124594,0.03909 0.1875,0.02148 0.062915,-0.01812 0.1162126,-0.0602 0.1484375,-0.117187 0.032041,-0.05703 0.040455,-0.124341 0.023437,-0.1875 -0.016719,-0.06298 -0.057366,-0.116939 -0.1132812,-0.150391 L 5.8789062,14.75 6.3730469,14.466797 c 0.055916,-0.03345 0.096562,-0.08741 0.1132812,-0.150391 0.017018,-0.06316 0.0086,-0.130473 -0.023437,-0.1875 -0.032225,-0.05699 -0.085523,-0.09907 -0.1484375,-0.117187 -0.062906,-0.01761 -0.1302078,-0.0099 -0.1875,0.02148 L 5.625,14.320313 V 13.75 C 5.6252085,13.72827 5.62258,13.7066 5.61719,13.68555 5.61142,13.66434 5.602888,13.64398 5.591799,13.625 5.581152,13.60578 5.568018,13.58805 5.552736,13.57227 5.5369492,13.556984 5.519218,13.54385 5.5,13.533203 5.4810218,13.522115 5.4606637,13.513578 5.4394531,13.507813 5.4183998,13.502418 5.3967325,13.499791 5.375,13.5 Z m 5.5,0 c -0.0665,-5.09e-4 -0.130459,0.0255 -0.177734,0.07227 -0.04677,0.04727 -0.07278,0.111236 -0.07227,0.177734 v 0.568359 l -0.501953,-0.285156 c -0.05729,-0.03138 -0.1245938,-0.03909 -0.1875001,-0.02148 -0.062915,0.01812 -0.1162124,0.0602 -0.1484375,0.117187 -0.032041,0.05703 -0.040455,0.124341 -0.023437,0.1875 0.016719,0.06298 0.057365,0.116939 0.1132812,0.150391 L 10.371094,14.75 9.8769531,15.033203 c -0.055916,0.03345 -0.096562,0.08741 -0.1132812,0.150391 -0.017018,0.06316 -0.0086,0.130473 0.023437,0.1875 0.032225,0.05699 0.085522,0.09907 0.1484375,0.117187 0.062906,0.01761 0.1302076,0.0099 0.1874996,-0.02148 L 10.625,15.179688 V 15.75 c -5.09e-4,0.0665 0.0255,0.130459 0.07227,0.177734 0.04727,0.04677 0.111236,0.07278 0.177734,0.07227 0.0665,5.09e-4 0.130459,-0.0255 0.177734,-0.07227 0.04677,-0.04727 0.07278,-0.111236 0.07227,-0.177734 v -0.568359 l 0.501953,0.285156 c 0.05729,0.03138 0.124594,0.03909 0.1875,0.02148 0.06292,-0.01812 0.116213,-0.0602 0.148438,-0.117187 0.03204,-0.05703 0.04045,-0.124341 0.02344,-0.1875 -0.01672,-0.06298 -0.05737,-0.116939 -0.113281,-0.150391 L 11.378906,14.75 11.873047,14.466797 c 0.05592,-0.03345 0.09656,-0.08741 0.113281,-0.150391 0.01702,-0.06316 0.0086,-0.130473 -0.02344,-0.1875 -0.03223,-0.05699 -0.08552,-0.09907 -0.148438,-0.117187 -0.06291,-0.01761 -0.130207,-0.0099 -0.1875,0.02148 L 11.125,14.320313 V 13.75 c 2.09e-4,-0.02173 -0.0024,-0.0434 -0.0078,-0.06445 -0.0058,-0.02121 -0.0143,-0.04157 -0.02539,-0.06055 -0.01065,-0.01922 -0.02378,-0.03695 -0.03906,-0.05273 -0.01578,-0.01528 -0.03352,-0.02842 -0.05273,-0.03906 -0.01898,-0.01109 -0.03934,-0.01962 -0.06055,-0.02539 -0.02105,-0.0054 -0.04272,-0.008 -0.06445,-0.0078 z"
     style="display:inline;fill:#0000ff"
     id="path5" />
</svg>
