<?xml version="1.0" encoding="UTF-8" standalone="no"?>
<svg
   width="16"
   height="16"
   fill="currentColor"
   class="bi bi-wind"
   viewBox="0 0 16 16"
   version="1.1"
   id="svg1"
   sodipodi:docname="wind.svg"
   inkscape:version="1.3 (0e150ed6c4, 2023-07-21)"
   xmlns:inkscape="http://www.inkscape.org/namespaces/inkscape"
   xmlns:sodipodi="http://sodipodi.sourceforge.net/DTD/sodipodi-0.dtd"
   xmlns="http://www.w3.org/2000/svg"
   xmlns:svg="http://www.w3.org/2000/svg">
  <defs
     id="defs1" />
  <sodipodi:namedview
     id="namedview1"
     pagecolor="#ffffff"
     bordercolor="#000000"
     borderopacity="0.25"
     inkscape:showpageshadow="2"
     inkscape:pageopacity="0.0"
     inkscape:pagecheckerboard="0"
     inkscape:deskcolor="#d1d1d1"
     inkscape:zoom="11.640625"
     inkscape:cx="25.986577"
     inkscape:cy="-5.3691275"
     inkscape:window-width="1920"
     inkscape:window-height="1001"
     inkscape:window-x="-9"
     inkscape:window-y="-9"
     inkscape:window-maximized="1"
     inkscape:current-layer="svg1" />
  <path
     d="M12.5 2A2.5 2.5 0 0 0 10 4.5a.5.5 0 0 1-1 0A3.5 3.5 0 1 1 12.5 8H.5a.5.5 0 0 1 0-1h12a2.5 2.5 0 0 0 0-5m-7 1a1 1 0 0 0-1 1 .5.5 0 0 1-1 0 2 2 0 1 1 2 2h-5a.5.5 0 0 1 0-1h5a1 1 0 0 0 0-2M0 9.5A.5.5 0 0 1 .5 9h10.042a3 3 0 1 1-3 3 .5.5 0 0 1 1 0 2 2 0 1 0 2-2H.5a.5.5 0 0 1-.5-.5"
     id="path1"
     style="fill:#5599ff" />
</svg>
